<svg width="109" height="109" viewBox="0 0 109 109" fill="none" xmlns="http://www.w3.org/2000/svg">
<rect width="109" height="109" rx="54.5" fill="#FFB74C"/>
<path d="M32.24 44.28C30.26 44.28 28.28 43.5 26.84 42.12L28.54 40.08C29.6 41.06 31 41.72 32.3 41.72C33.84 41.72 34.66 41.06 34.66 40.02C34.66 38.92 33.76 38.58 32.44 38.02L30.46 37.18C28.96 36.56 27.46 35.36 27.46 33.2C27.46 30.78 29.58 28.92 32.58 28.92C34.3 28.92 36.02 29.6 37.22 30.82L35.72 32.68C34.78 31.9 33.8 31.46 32.58 31.46C31.28 31.46 30.46 32.04 30.46 33.02C30.46 34.08 31.5 34.46 32.76 34.96L34.7 35.78C36.5 36.52 37.68 37.66 37.68 39.8C37.68 42.22 35.66 44.28 32.24 44.28ZM44.7717 44V31.66H40.6117V29.18H51.9317V31.66H47.7317V44H44.7717ZM56.3317 44V29.18H65.4117V31.66H59.2917V35.08H64.4917V37.56H59.2917V41.52H65.6317V44H56.3317ZM70.6364 44V29.18H75.4964C78.7764 29.18 81.2964 30.34 81.2964 33.84C81.2964 37.22 78.7564 38.74 75.5764 38.74H73.5964V44H70.6364ZM73.5964 36.4H75.3764C77.4164 36.4 78.3964 35.54 78.3964 33.84C78.3964 32.12 77.3164 31.54 75.2764 31.54H73.5964V36.4Z" fill="white"/>
<path d="M43.94 82.448C42.34 82.448 40.932 81.9893 39.716 81.072C38.5213 80.1333 37.5827 78.7467 36.9 76.912C36.2387 75.056 35.908 72.7627 35.908 70.032C35.908 67.3227 36.2387 65.072 36.9 63.28C37.5827 61.4667 38.5213 60.112 39.716 59.216C40.932 58.32 42.34 57.872 43.94 57.872C45.5613 57.872 46.9693 58.3307 48.164 59.248C49.3587 60.144 50.2867 61.488 50.948 63.28C51.6307 65.072 51.972 67.3227 51.972 70.032C51.972 72.7627 51.6307 75.056 50.948 76.912C50.2867 78.7467 49.3587 80.1333 48.164 81.072C46.9693 81.9893 45.5613 82.448 43.94 82.448ZM43.94 78.768C44.644 78.768 45.2627 78.5013 45.796 77.968C46.3293 77.4347 46.7453 76.5387 47.044 75.28C47.3427 74 47.492 72.2507 47.492 70.032C47.492 67.8347 47.3427 66.1173 47.044 64.88C46.7453 63.6213 46.3293 62.7467 45.796 62.256C45.2627 61.744 44.644 61.488 43.94 61.488C43.2787 61.488 42.6707 61.744 42.116 62.256C41.5827 62.7467 41.156 63.6213 40.836 64.88C40.516 66.1173 40.356 67.8347 40.356 70.032C40.356 72.2507 40.516 74 40.836 75.28C41.156 76.5387 41.5827 77.4347 42.116 77.968C42.6707 78.5013 43.2787 78.768 43.94 78.768ZM63.711 82.448C62.4737 82.448 61.3643 82.2987 60.383 82C59.4017 81.7227 58.527 81.3387 57.759 80.848C57.0123 80.336 56.3617 79.7707 55.807 79.152L58.015 76.176C58.7403 76.8373 59.5297 77.4133 60.383 77.904C61.2577 78.3733 62.2283 78.608 63.295 78.608C64.1057 78.608 64.8097 78.48 65.407 78.224C66.0257 77.968 66.495 77.5947 66.815 77.104C67.1563 76.6133 67.327 76.016 67.327 75.312C67.327 74.5227 67.135 73.8507 66.751 73.296C66.3883 72.72 65.7377 72.2827 64.799 71.984C63.8603 71.6853 62.5377 71.536 60.831 71.536V68.144C62.2817 68.144 63.423 67.9947 64.255 67.696C65.087 67.376 65.6737 66.9493 66.015 66.416C66.3777 65.8613 66.559 65.232 66.559 64.528C66.559 63.6107 66.2817 62.896 65.727 62.384C65.1723 61.8507 64.3937 61.584 63.391 61.584C62.559 61.584 61.7803 61.776 61.055 62.16C60.351 62.5227 59.647 63.024 58.943 63.664L56.511 60.752C57.5563 59.8773 58.655 59.184 59.807 58.672C60.959 58.1387 62.2283 57.872 63.615 57.872C65.1297 57.872 66.463 58.1173 67.615 58.608C68.7883 59.0987 69.695 59.8133 70.335 60.752C70.975 61.6907 71.295 62.832 71.295 64.176C71.295 65.456 70.9537 66.5547 70.271 67.472C69.5883 68.3893 68.6177 69.0933 67.359 69.584V69.744C68.2337 69.9787 69.023 70.3627 69.727 70.896C70.4523 71.408 71.0177 72.0587 71.423 72.848C71.8497 73.6373 72.063 74.5547 72.063 75.6C72.063 77.0293 71.679 78.256 70.911 79.28C70.1643 80.304 69.151 81.0933 67.871 81.648C66.6123 82.1813 65.2257 82.448 63.711 82.448Z" fill="white"/>
</svg>
