<svg width="48" height="48" viewBox="0 0 48 48" fill="none" xmlns="http://www.w3.org/2000/svg">
<rect width="48" height="48" rx="24" fill="#FFB74C"/>
<path fill-rule="evenodd" clip-rule="evenodd" d="M22.5 14C21.1446 14.0001 19.8089 14.3244 18.6043 14.9457C17.3997 15.567 16.3611 16.4674 15.5752 17.5718C14.7894 18.6761 14.279 19.9523 14.0867 21.294C13.8944 22.6357 14.0258 24.004 14.4698 25.2846C14.9138 26.5652 15.6576 27.7211 16.6392 28.6557C17.6208 29.5904 18.8117 30.2768 20.1125 30.6576C21.4133 31.0384 22.7863 31.1026 24.117 30.8449C25.4477 30.5872 26.6974 30.015 27.762 29.176L31.414 32.828C31.6026 33.0102 31.8552 33.111 32.1174 33.1087C32.3796 33.1064 32.6304 33.0012 32.8158 32.8158C33.0012 32.6304 33.1064 32.3796 33.1087 32.1174C33.111 31.8552 33.0102 31.6026 32.828 31.414L29.176 27.762C30.164 26.5086 30.7792 25.0024 30.9511 23.4157C31.123 21.8291 30.8448 20.226 30.1482 18.7901C29.4517 17.3542 28.3649 16.1434 27.0123 15.2962C25.6597 14.4491 24.096 13.9999 22.5 14ZM16 22.5C16 20.7761 16.6848 19.1228 17.9038 17.9038C19.1228 16.6848 20.7761 16 22.5 16C24.2239 16 25.8772 16.6848 27.0962 17.9038C28.3152 19.1228 29 20.7761 29 22.5C29 24.2239 28.3152 25.8772 27.0962 27.0962C25.8772 28.3152 24.2239 29 22.5 29C20.7761 29 19.1228 28.3152 17.9038 27.0962C16.6848 25.8772 16 24.2239 16 22.5Z" fill="white"/>
</svg>
