<svg width="109" height="109" viewBox="0 0 109 109" fill="none" xmlns="http://www.w3.org/2000/svg">
<rect width="109" height="109" rx="54.5" fill="#FFB74C"/>
<path d="M32.24 44.28C30.26 44.28 28.28 43.5 26.84 42.12L28.54 40.08C29.6 41.06 31 41.72 32.3 41.72C33.84 41.72 34.66 41.06 34.66 40.02C34.66 38.92 33.76 38.58 32.44 38.02L30.46 37.18C28.96 36.56 27.46 35.36 27.46 33.2C27.46 30.78 29.58 28.92 32.58 28.92C34.3 28.92 36.02 29.6 37.22 30.82L35.72 32.68C34.78 31.9 33.8 31.46 32.58 31.46C31.28 31.46 30.46 32.04 30.46 33.02C30.46 34.08 31.5 34.46 32.76 34.96L34.7 35.78C36.5 36.52 37.68 37.66 37.68 39.8C37.68 42.22 35.66 44.28 32.24 44.28ZM44.7717 44V31.66H40.6117V29.18H51.9317V31.66H47.7317V44H44.7717ZM56.3317 44V29.18H65.4117V31.66H59.2917V35.08H64.4917V37.56H59.2917V41.52H65.6317V44H56.3317ZM70.6364 44V29.18H75.4964C78.7764 29.18 81.2964 30.34 81.2964 33.84C81.2964 37.22 78.7564 38.74 75.5764 38.74H73.5964V44H70.6364ZM73.5964 36.4H75.3764C77.4164 36.4 78.3964 35.54 78.3964 33.84C78.3964 32.12 77.3164 31.54 75.2764 31.54H73.5964V36.4Z" fill="white"/>
<path d="M43.94 83.448C39.108 83.448 35.908 79.224 35.908 71.064C35.908 62.872 39.108 58.872 43.94 58.872C48.772 58.872 51.94 62.904 51.94 71.064C51.94 79.224 48.772 83.448 43.94 83.448ZM43.94 79.768C45.988 79.768 47.492 77.72 47.492 71.064C47.492 64.44 45.988 62.52 43.94 62.52C41.892 62.52 40.356 64.44 40.356 71.064C40.356 77.72 41.892 79.768 43.94 79.768ZM57.5678 83V79.192H62.6558V64.216H58.3678V61.304C60.7358 60.856 62.3678 60.248 63.8718 59.288H67.3598V79.192H71.8078V83H57.5678Z" fill="white"/>
</svg>
