<svg width="109" height="109" viewBox="0 0 109 109" fill="none" xmlns="http://www.w3.org/2000/svg">
<rect width="109" height="109" rx="54.5" fill="#FFB74C"/>
<path d="M32.24 44.28C30.26 44.28 28.28 43.5 26.84 42.12L28.54 40.08C29.6 41.06 31 41.72 32.3 41.72C33.84 41.72 34.66 41.06 34.66 40.02C34.66 38.92 33.76 38.58 32.44 38.02L30.46 37.18C28.96 36.56 27.46 35.36 27.46 33.2C27.46 30.78 29.58 28.92 32.58 28.92C34.3 28.92 36.02 29.6 37.22 30.82L35.72 32.68C34.78 31.9 33.8 31.46 32.58 31.46C31.28 31.46 30.46 32.04 30.46 33.02C30.46 34.08 31.5 34.46 32.76 34.96L34.7 35.78C36.5 36.52 37.68 37.66 37.68 39.8C37.68 42.22 35.66 44.28 32.24 44.28ZM44.7717 44V31.66H40.6117V29.18H51.9317V31.66H47.7317V44H44.7717ZM56.3317 44V29.18H65.4117V31.66H59.2917V35.08H64.4917V37.56H59.2917V41.52H65.6317V44H56.3317ZM70.6364 44V29.18H75.4964C78.7764 29.18 81.2964 30.34 81.2964 33.84C81.2964 37.22 78.7564 38.74 75.5764 38.74H73.5964V44H70.6364ZM73.5964 36.4H75.3764C77.4164 36.4 78.3964 35.54 78.3964 33.84C78.3964 32.12 77.3164 31.54 75.2764 31.54H73.5964V36.4Z" fill="white"/>
<path d="M43.94 82.448C42.34 82.448 40.932 81.9893 39.716 81.072C38.5213 80.1333 37.5827 78.7467 36.9 76.912C36.2387 75.056 35.908 72.7627 35.908 70.032C35.908 67.3227 36.2387 65.072 36.9 63.28C37.5827 61.4667 38.5213 60.112 39.716 59.216C40.932 58.32 42.34 57.872 43.94 57.872C45.5613 57.872 46.9693 58.3307 48.164 59.248C49.3587 60.144 50.2867 61.488 50.948 63.28C51.6307 65.072 51.972 67.3227 51.972 70.032C51.972 72.7627 51.6307 75.056 50.948 76.912C50.2867 78.7467 49.3587 80.1333 48.164 81.072C46.9693 81.9893 45.5613 82.448 43.94 82.448ZM43.94 78.768C44.644 78.768 45.2627 78.5013 45.796 77.968C46.3293 77.4347 46.7453 76.5387 47.044 75.28C47.3427 74 47.492 72.2507 47.492 70.032C47.492 67.8347 47.3427 66.1173 47.044 64.88C46.7453 63.6213 46.3293 62.7467 45.796 62.256C45.2627 61.744 44.644 61.488 43.94 61.488C43.2787 61.488 42.6707 61.744 42.116 62.256C41.5827 62.7467 41.156 63.6213 40.836 64.88C40.516 66.1173 40.356 67.8347 40.356 70.032C40.356 72.2507 40.516 74 40.836 75.28C41.156 76.5387 41.5827 77.4347 42.116 77.968C42.6707 78.5013 43.2787 78.768 43.94 78.768ZM56.351 82V79.28C58.5057 77.36 60.3403 75.5787 61.855 73.936C63.391 72.2933 64.5643 70.768 65.375 69.36C66.1857 67.9307 66.591 66.608 66.591 65.392C66.591 64.624 66.4523 63.952 66.175 63.376C65.8977 62.8 65.4923 62.3627 64.959 62.064C64.447 61.744 63.807 61.584 63.039 61.584C62.1857 61.584 61.3963 61.8293 60.671 62.32C59.967 62.7893 59.3163 63.3547 58.719 64.016L56.095 61.488C57.2043 60.2933 58.335 59.3973 59.487 58.8C60.6603 58.1813 62.047 57.872 63.647 57.872C65.1403 57.872 66.4417 58.1813 67.551 58.8C68.6817 59.3973 69.5563 60.24 70.175 61.328C70.7937 62.416 71.103 63.696 71.103 65.168C71.103 66.5973 70.7403 68.0587 70.015 69.552C69.311 71.024 68.3617 72.496 67.167 73.968C65.9723 75.44 64.6497 76.8907 63.199 78.32C63.8177 78.2347 64.479 78.1707 65.183 78.128C65.9083 78.064 66.5483 78.032 67.103 78.032H72.223V82H56.351Z" fill="white"/>
</svg>
