<svg width="293" height="175" viewBox="0 0 293 175" fill="none" xmlns="http://www.w3.org/2000/svg">
<path fill-rule="evenodd" clip-rule="evenodd" d="M69.765 0.0991361C61.5606 0.832513 54.2006 6.89404 51.624 15.0402C50.9026 17.3212 50.9026 17.3212 49.6033 16.7595C36.5945 11.1344 23.0443 19.6307 22.0308 34.0479C21.8558 36.5375 21.8193 36.653 21.262 36.4794C4.61727 31.2933 -6.34822 55.1325 8.46974 64.2905C11.3469 66.0687 11.7484 63.3559 8.98154 60.8315C-1.55085 51.2217 8.43374 34.2854 21.3744 39.8097C25.0212 41.3666 25.8891 40.9492 25.3288 37.9077C22.7271 23.7882 36.6997 13.62 49.675 20.19C51.1622 20.9429 52.0931 21.2554 52.5251 21.1472C53.1932 20.9794 53.1856 20.9987 54.1545 16.9729C56.4978 7.23617 67.0461 1.10208 77.0193 3.67699C89.0935 6.79412 94.452 21.727 87.2754 32.258C85.4687 34.9091 85.558 36.3399 87.5299 36.3399C88.5767 36.3399 91.4479 38.1069 92.7936 39.5793C98.0218 45.2998 95.575 53.7593 88.0456 55.9954C85.8056 56.6604 85.5589 56.5878 83.5948 54.686C80.793 51.9724 76.9922 50.3145 73.5352 50.2978C72.5465 50.293 72.5286 50.2718 72.0506 48.5525C68.7205 36.5751 55.2234 30.6855 44.1775 36.3896C38.3057 39.4219 31.9936 48.7615 35.0856 49.8421C36.2644 50.254 36.6093 49.9221 37.9879 47.0498C45.4098 31.5861 66.3181 34.8533 69.7812 52.0176C70.0611 53.404 70.5799 53.6507 72.8202 53.4612C79.5395 52.8933 85.6783 59.1438 84.857 65.7168C84.6056 67.7297 84.9728 68.0116 88.539 68.5448C95.93 69.6499 99.2547 72.5541 98.384 77.1447C97.9205 79.5888 97.1341 80.4081 95.0001 80.6696C92.2946 81.0014 92.2971 83.2872 95.0032 83.4462C99.8139 83.7289 103.176 77.3367 100.853 72.3261C99.1735 68.7056 96.0745 66.9986 88.4193 65.4765C87.8539 65.3641 87.7914 65.1894 87.7914 63.7179C87.7914 62.819 87.603 61.5499 87.3728 60.8974C86.811 59.3054 86.8066 59.3182 88.0007 59.1251C99.7545 57.2247 102.281 40.5158 91.674 34.8313C90.8432 34.3862 90.1232 33.9905 90.0741 33.9522C90.0253 33.914 90.5477 32.7087 91.2353 31.2741C98.799 15.4953 87.1269 -1.45273 69.765 0.0991361ZM252.531 34.4562C252.41 34.6482 252.351 37.3166 252.399 40.3863C252.476 45.3042 252.202 49.5435 251.696 51.2393C251.586 51.6068 251.271 51.0568 250.657 49.4254C246.684 38.8743 235.98 33.3511 227.602 37.5284C225.059 38.7962 225.053 39.2781 227.531 42.736C232.531 49.7109 239.663 55.8201 240.841 54.1377C241.555 53.1191 241.356 52.6243 239.671 51.2257C235.496 47.76 228.827 40.2786 229.526 39.846C236.837 35.3274 247.565 44.5178 249.526 56.9788C249.941 59.6148 250.468 60.6183 251.439 60.6183C253.253 60.6183 255.188 52.2931 255.479 43.2372C255.648 37.9956 255.648 37.9956 257.741 39.3711C269.704 47.2345 270.065 62.2564 258.382 66.0442C255.852 66.8643 256.201 69.1853 258.815 68.9283C268.385 67.987 273.082 54.1553 267.086 44.5722C263.551 38.9223 253.929 32.2349 252.531 34.4562ZM207.077 36.1571C204.292 37.4257 204.485 41.7152 207.669 49.2647C208.195 50.5115 208.626 51.5717 208.626 51.6205C208.626 51.6694 207.877 51.2005 206.961 50.5788C202.333 47.4357 192.524 43.5955 189.124 43.5955C186.179 43.5955 188.238 53.6577 192.545 60.3164C197.185 67.4886 209.308 75.0668 210.439 71.5021C210.778 70.4344 210.337 69.9153 208.548 69.276C199.194 65.9336 192.699 58.032 190.937 47.8512C190.745 46.7433 190.692 46.7442 194.009 47.8066C202.584 50.5537 209.193 54.8641 213.974 60.8285C215.44 62.658 216.277 63.1067 217.251 62.5857C218.238 62.0572 217.927 61.0796 215.743 57.8475C210.402 49.945 206.564 39.5184 208.79 38.9597C213.03 37.8957 223.791 45.2646 228.56 52.4968C230.536 55.4934 231.172 55.9011 232.163 54.8057C233.666 53.145 228.485 46.1157 222.376 41.5274C216.878 37.3981 209.805 34.9153 207.077 36.1571ZM227.312 59.7918C226.89 60.2137 226.781 60.5921 226.89 61.2568C227.761 66.5791 227.813 66.3444 225.153 69.0996C221.663 72.7146 218.417 78.4524 218.396 81.0446C218.394 81.4289 217.959 81.2852 216.09 80.2819C213.084 78.6676 211.166 78.9477 211.815 80.9065C212.149 81.9119 216.508 84.2524 217.544 83.9818C218.119 83.8316 218.188 83.9513 218.54 85.6941C218.692 86.4456 220.361 91.1899 221.33 93.6228C221.505 94.0629 221.44 94.0835 220.733 93.8145C218.548 92.9843 215.361 94.4921 216.169 95.9734C216.913 97.3341 220.558 97.201 221.421 95.7816C221.902 94.9902 221.902 94.9902 222.552 96.666C223.202 98.3418 223.202 98.3418 221.355 100.066C218.443 102.784 219.124 104.673 222.579 103.454C223.231 103.224 223.816 103.036 223.879 103.036C223.942 103.036 223.909 103.671 223.806 104.448C223.294 108.305 225.279 108.515 231.01 105.211C232.368 104.428 232.679 104.344 233.103 104.648C236.872 107.338 244.587 106.165 243.014 103.141C242.699 102.534 245.078 99.4198 245.699 99.6266C246.965 100.049 247.978 98.8293 247.48 97.4831C247.284 96.9534 247.515 96.3244 248.679 94.2189C251.019 89.9833 253.276 83.6008 253.276 81.2174C253.276 80.6291 253.453 80.3503 253.949 80.1619C256.954 79.0192 254.759 69.6354 250.486 65.3613C245.781 60.6552 235.32 58.8114 234.1 62.4733C233.917 63.0211 230.392 65.1127 230.392 64.6731C230.392 60.6669 228.862 58.2418 227.312 59.7918ZM275.017 64.7426C266.372 68.3104 257.141 73.6952 257.763 74.8073C258.526 76.1727 259.101 75.986 268.272 71.3988C278.574 66.2456 279.887 65.896 280.867 68.0456C283.437 73.686 273.39 81.2489 263.308 81.2642C259.818 81.2693 259.415 81.4186 259.415 82.7036C259.415 83.7233 259.491 83.7591 264.186 84.925C273.632 87.2713 280.556 93.2935 278.001 96.9414C277.012 98.3532 277.602 99.4081 279.381 99.4081C284.8 99.4081 279.975 88.2804 273.02 84.7411C270.966 83.6957 270.407 83.2224 271.226 83.2224C272.723 83.2224 277.678 80.1413 280.255 77.6071C287.574 70.4098 283.792 61.1209 275.017 64.7426ZM219.23 65.3624C217.928 66.6648 221.26 71.5096 222.999 70.8421C224.151 70.4 224.107 69.3734 222.856 67.4531C221.123 64.7928 220.283 64.3089 219.23 65.3624ZM214.39 70.6169C212.979 72.1752 216.786 76.439 218.553 75.2809C219.7 74.5296 219.445 73.5811 217.6 71.7362C215.888 70.0242 215.157 69.7691 214.39 70.6169ZM31.4249 76.2729C29.1505 76.7186 25.7998 78.6104 17.049 84.3895C12.2909 87.532 6.54588 91.3133 4.28184 92.7926C-0.240649 95.7479 -0.799333 96.5304 0.844625 97.6075C1.70637 98.1721 0.504728 98.8656 14.3728 89.8005C35.6823 75.8708 31.3652 75.942 54.4746 89.1386C69.2962 97.6025 69.2962 97.6025 74.8395 102.839C80.3831 108.075 80.3831 108.075 80.745 107.029C82.3639 102.352 89.1409 102.693 94.1456 107.703C96.1741 109.733 96.1741 109.733 100.137 109.733C104.658 109.733 104.221 108.829 97.14 103.526C83.5856 93.375 80.2302 91.8809 70.9399 91.8616C63.1909 91.8455 61.07 90.9368 66.4573 89.9409C72.2294 88.874 78.6328 90.0706 85.6984 93.5371C90.3378 95.8134 93.8546 98.1459 101.836 104.24C103.326 105.378 104.214 105.528 104.91 104.758C105.898 103.667 105.282 102.973 99.6515 98.8324C84.3812 87.6029 71.7609 84.1188 61.3842 88.2687C59.9529 88.8408 59.9529 88.8408 51.0589 83.756C37.4669 75.9855 35.9142 75.3939 31.4249 76.2729ZM186.719 78.3405C177.212 79.8578 173.303 82.2912 177.301 84.2039C191.739 91.1107 207.928 93.5204 210.768 89.1852C211.818 87.5833 210.175 86.4785 207.871 87.2381C201.89 89.2106 193.1 87.9338 183.39 83.682C181.176 82.7131 181.176 82.7131 182.413 82.3959C183.093 82.2214 183.823 82.0197 184.035 81.9477C189.244 80.1767 200.386 80.8364 207.767 83.353C210.463 84.2723 211.073 84.2644 211.437 83.3075C212.724 79.9222 196.826 76.7275 186.719 78.3405ZM144.73 84.5993C144.228 85.5381 144.407 86.0583 145.717 87.4583C146.418 88.2084 147.228 89.3562 147.517 90.0092C148.148 91.4338 148.736 94.7273 148.244 94.0771C143.971 88.4269 143.55 87.9665 142.653 87.9665C140.544 87.9665 140.614 89.0917 142.911 92.0922C145.003 94.8247 144.999 94.7552 143.053 94.3863C135.575 92.9681 131.505 99.3436 138.588 101.382C139.275 101.579 139.877 101.769 139.926 101.803C139.975 101.838 139.755 102.375 139.438 102.998C138.253 105.319 139.012 107.674 141.292 108.757C142.286 109.229 142.469 109.445 142.478 110.16C142.542 115.576 150.095 113.45 151.678 107.569C152.211 105.59 153.005 107.875 153.789 113.64C153.882 114.331 154.025 115.239 154.104 115.657C154.25 116.419 154.25 116.419 152.625 115.662C148.611 113.794 142.83 114.889 139.69 118.113C137.318 120.547 137.79 121.485 141.845 122.397C148.314 123.853 155.395 122.17 153.166 119.707C152.69 119.181 152.696 119.18 153.572 119.683C154.461 120.193 154.461 120.193 154.57 124.382C154.708 129.72 155.103 131.188 156.414 131.238C156.659 131.248 157.236 131.771 157.697 132.401C159.574 134.969 162.265 135.291 167.37 133.558C170.777 132.402 174.174 132.133 177.969 132.721C182.99 133.499 179.321 127.282 173.441 125.048C169.29 123.47 164.23 123.962 159.162 126.436C157.557 127.219 157.557 127.219 157.557 123.529C157.557 118.54 156.707 111.039 155.71 107.222C155.566 106.673 155.711 106.773 156.387 107.686C158.591 110.665 164.075 112.728 164.973 110.917C166.698 107.437 159.522 97.6045 157.433 100.587C156.735 101.583 156.916 102.11 158.324 103.18C160.316 104.692 162.453 108.059 161.422 108.059C161.058 108.059 158.518 105.485 157.753 104.343C157.151 103.443 156.084 103.351 155.524 104.151C155.141 104.698 155.129 104.696 154.82 104.018C154.441 103.187 155.083 101.84 156.074 101.389C158.042 100.492 156.503 95.7303 153.897 94.6503C152.514 94.0777 153.277 88.3851 154.736 88.3851C155.651 88.3851 155.719 89.2653 154.926 90.8333C153.597 93.4593 154.288 94.107 157.808 93.5352C160.244 93.1395 161.617 93.5254 162.298 94.7974C162.965 96.0434 161.783 96.9766 160.894 95.9055C159.898 94.7047 157.744 96.3487 158.571 97.6787C159.929 99.8629 163.282 99.8833 164.825 97.7167C166.92 94.7745 164.005 90.5107 159.834 90.4155C158.394 90.3829 158.394 90.3829 158.393 89.1048C158.389 84.5795 153.336 83.6257 151.244 87.7555C150.527 89.1701 150.527 89.1701 150.071 88.2196C148.746 85.4583 145.462 83.2325 144.73 84.5993ZM32.6422 85.6852C27.427 87.7834 15.8895 94.563 2.61333 103.331C-0.864911 105.628 -0.238137 115.594 3.38466 115.594C5.95901 115.594 6.03603 115.612 5.74692 116.152C4.92648 117.685 6.57909 118.596 8.73847 117.801C15.4965 115.314 25.8026 114.561 29.2861 116.298C30.8651 117.086 32.4546 116.819 33.063 115.663C33.5619 114.716 33.0228 113.979 31.5625 113.612C28.1523 112.753 27.6012 101.617 30.8824 99.8774C33.159 98.6705 37.8961 99.8465 39.7326 102.075C40.5661 103.086 40.5661 103.086 41.6776 102.35C46.6846 99.0369 50.5828 99.8624 52.7634 104.698C53.3849 106.076 52.4124 106.058 61.1409 104.855C63.9036 104.474 66.8025 104.16 67.5825 104.157C69.8225 104.149 69.6515 103.933 64.9869 100.874C44.3472 87.3403 37.0477 83.9126 32.6422 85.6852ZM216.031 87.9553C215.056 89.0322 216.177 90.6405 217.636 90.2587C218.442 90.0483 218.776 88.864 218.254 88.0683C217.725 87.261 216.706 87.2094 216.031 87.9553ZM254.617 89.292C253.38 90.7323 253.89 91.4511 256.647 92.1577C264.321 94.1234 271.947 99.283 276.098 105.319C277.661 107.592 277.863 107.559 269.675 106.369C259.496 104.889 256.261 103.229 255.617 99.1563C255.255 96.8627 253.647 96.2075 252.637 97.9416C251.366 100.124 254.384 104.696 258.393 106.661C262.317 108.584 276.776 111.001 279.076 110.118C286.256 107.363 265.773 88.9717 255.342 88.8084C255.174 88.8059 254.848 89.0236 254.617 89.292ZM195.454 96.8859C182.349 101.859 180.915 102.907 182.574 106.303C183.723 108.653 185.264 108.784 193.263 107.209C196.417 106.587 199.847 105.913 200.884 105.71C202.771 105.34 202.771 105.34 200.736 107.47C195.525 112.924 193.789 119.625 196.245 124.803C198.074 128.657 199.046 128.952 201.498 126.392C203.676 124.117 204.91 123.294 210.677 120.27C213.297 118.896 215.961 117.414 216.598 116.976C217.755 116.18 217.755 116.18 217.528 117.352C216.568 122.31 217.887 127.855 220.697 130.673C224.095 134.079 226.108 133.918 225.732 130.271C225.528 128.296 224.743 127.565 223.378 128.08C222.608 128.371 222.519 128.329 221.882 127.363C219.483 123.729 219.633 118.301 222.34 110.74C223.582 107.27 223.457 106.385 221.728 106.385C220.955 106.385 220.815 106.549 219.914 108.526C218.056 112.604 216.303 114.094 208.696 118.061C203.568 120.735 202.838 121.184 200.634 123.032C199.201 124.234 199.201 124.234 198.891 123.472C196.619 117.885 199.387 111.863 207.027 105.767C209.737 103.605 210.063 103.182 209.721 102.277C209.304 101.173 208.377 101.24 198.926 103.05C184.771 105.763 185.463 105.671 185.463 104.839C185.463 104.076 188.942 102.337 193.277 100.933C203.923 97.4859 208.042 95.2369 206.513 93.7071C205.808 93.0022 205.321 93.1417 195.454 96.8859ZM144.5 97.7591C145.512 98.092 145.531 98.1241 145.378 99.2451C145.112 101.184 145.704 102.676 147.395 104.327C148.977 105.872 149.109 106.255 148.588 107.808C148.132 109.172 147.273 110.012 146.337 110.012C145.171 110.012 145.051 109.302 146.038 108.25C147.122 107.095 147.281 106.579 146.776 105.859C146.335 105.229 144.896 105.037 144.57 105.565C144.233 106.11 143.044 106.403 142.453 106.087C141.52 105.588 141.879 104.436 143.255 103.514C145.253 102.176 144.215 99.8613 141.29 99.1293C138.934 98.5399 137.956 97.9064 138.511 97.3307C138.803 97.0282 143.244 97.3458 144.5 97.7591ZM115.292 102.351C112.236 103.401 109.837 108.156 109.837 113.164C109.837 114.373 109.743 115.313 109.628 115.254C100.27 110.442 96.3991 111.777 99.5776 118.72C101.484 122.883 108.904 125.968 111.609 123.722C113.194 122.405 111.725 120.915 109.032 121.108C105.415 121.367 102.966 119.717 102.008 116.377C101.535 114.729 106.829 116.647 110.256 119.366C113.369 121.835 114.873 121.007 113.621 117.512C111.707 112.174 114.105 103.902 117.038 105.724C118.652 106.725 118.947 112.484 117.541 115.528C115.947 118.981 118.147 119.528 120.987 116.386C124.541 112.453 130.686 109.413 131.606 111.132C132.662 113.105 127.233 117.633 121.935 119.197C120.838 119.521 119.874 119.962 119.791 120.176C119.678 120.47 119.398 120.511 118.656 120.344C116.42 119.84 113.42 121.396 112.637 123.466C112.445 123.971 112.097 124.772 111.862 125.245C110.594 127.799 113.255 131.923 116.528 132.476C118.603 132.826 121.837 131.351 121.837 130.054C121.837 129.735 122.093 129.059 122.406 128.553C123.214 127.246 123.403 125.194 122.841 123.849C122.27 122.482 122.125 122.54 124.91 123.016C130.067 123.898 133.571 125.598 135.243 128.028C136.454 129.788 136.421 129.79 130.923 128.331C125.245 126.824 125.069 126.808 124.455 127.744C123.787 128.764 124.279 129.714 125.662 130.073C126.244 130.224 129.133 130.983 132.082 131.761C139.395 133.689 139.951 133.634 139.592 131.014C138.992 126.643 135.409 123.025 129.951 121.282C127.064 120.36 127.073 120.37 128.45 119.634C129.999 118.806 133.662 115.072 134.349 113.622C137.246 107.509 129.341 105.781 122.465 111.024C121.558 111.715 121.558 111.715 121.558 110.225C121.558 105.05 118.526 101.239 115.292 102.351ZM32.8727 102.892C29.9221 105.374 32.8808 113.07 38.0643 116.396C41.2895 118.466 42.5319 116.046 39.4465 113.704C35.7551 110.903 32.9435 104.474 35.8067 105.383C36.6701 105.657 38.947 108.08 39.6681 109.493C41.2627 112.617 43.6805 112.559 43.2516 109.407C43.0236 107.734 43.8423 106.664 45.3509 106.664C47.1972 106.664 47.8497 108.11 47.0284 110.381C46.309 112.37 48.3799 113.324 49.6692 111.597C53.1421 106.945 46.0416 100.986 41.8468 105.031C40.9705 105.876 40.9705 105.876 39.6355 104.597C37.1161 102.183 34.499 101.523 32.8727 102.892ZM248.252 105.547C247.363 106.437 247.684 107.472 249.071 108.189C250.392 108.872 251.035 110.298 251.877 114.41C253.132 120.532 254.009 123.45 255.786 127.407C256.541 129.088 256.476 129.147 254.499 128.573C246.666 126.295 240.718 118.644 240.718 110.843C240.718 109.183 240.328 108.617 239.183 108.617C237.826 108.617 237.532 109.304 237.753 111.957C238.594 122.036 246.012 130.182 255.924 131.91C260.882 132.775 261.517 132.06 259.45 127.936C257.354 123.756 256.077 119.845 254.801 113.704C253.776 108.764 252.661 106.804 250.147 105.519C248.875 104.868 248.932 104.868 248.252 105.547ZM58.4577 106.212C52.6967 108.27 49.238 119.582 51.9731 127.419C52.5781 129.154 52.4182 128.993 51.1052 126.547C48.6911 122.051 45.7135 118.103 44.7418 118.109C40.4461 118.139 42.0164 134.739 46.5615 137.344C48.1338 138.245 49.2908 136.431 48.158 134.84C46.052 131.882 44.3385 125.03 45.3189 123.487C45.7542 122.802 49.4216 129.283 50.9526 133.443C52.3197 137.157 52.8756 137.375 55.3121 135.148C57.5119 133.137 63.5129 131.497 63.5129 132.907C63.5129 135.093 59.5142 139.023 56.2573 140.037C54.3178 140.642 54.0248 140.876 54.0248 141.826C54.0248 143.212 54.5151 143.35 58.0385 142.957C61.3792 142.585 63.6999 142.774 66.7869 143.671C68.723 144.233 68.7797 144.443 67.1815 145.13C64.3152 146.363 61.0639 146.621 58.0712 145.852C57.1503 145.615 56.1099 145.35 55.7592 145.263C53.6639 144.745 53.5426 146.983 55.5761 148.64C61.7883 153.7 77.5082 155.528 75.8313 150.994C75.4297 149.908 74.9202 149.79 72.3533 150.19C69.82 150.584 66.7821 150.474 64.5488 149.907C62.9157 149.492 62.9185 149.489 65.5291 148.822C66.6898 148.525 68.4174 147.889 69.3685 147.409C70.6142 146.78 71.3152 146.584 71.8753 146.707C72.5732 146.86 72.7792 146.71 73.8882 145.234C75.063 143.672 75.1535 143.611 75.7325 143.995C77.3106 145.043 78.0228 144.103 78.2215 140.709C78.5173 135.664 76.3068 130.7 72.4613 127.773C70.2216 126.067 73.0806 124.477 79.1413 124.056C85.9683 123.583 86.5004 125.326 80.5625 128.71C77.3829 130.522 77.9907 131.886 82.2509 132.5C85.4004 132.954 92.1286 134.555 92.7266 134.992C93.0804 135.25 92.8751 135.413 91.5615 135.916C84.2171 138.727 82.5508 140.432 86.045 141.562C93.1125 143.848 91.6717 145.99 83.8845 144.773C80.7679 144.287 79.2749 145.163 80.4249 146.805C81.6576 148.565 94.0734 148.447 95.2412 146.665C95.9997 145.507 94.0547 142.606 91.2953 140.778C90.0579 139.958 90.0579 139.958 92.1149 139.054C99.1495 135.962 97.7774 132.682 88.6001 130.65C84.5682 129.757 84.5682 129.757 86.4401 127.95C90.3841 124.142 90.57 123.07 87.4618 122.051C83.6953 120.816 79.9355 120.6 76.0467 121.395C73.6507 121.885 73.6507 121.885 74.7039 119.926C79.2772 111.416 74.9232 107.958 67.302 114.047C65.1329 115.781 65.0899 115.79 65.4711 114.461C66.9445 109.324 62.9375 104.611 58.4577 106.212ZM86.117 107.093C81.8884 108.991 81.95 116.073 86.2043 117.14C87.8846 117.562 88.7042 115.573 87.303 114.474C84.991 112.661 85.5993 109.733 88.2881 109.733C89.7526 109.733 90.599 110.648 90.7905 112.437C91.1211 115.529 93.6564 115.371 93.6472 112.259C93.6352 108.295 89.6025 105.529 86.117 107.093ZM61.8902 109.742C63.2269 111.079 62.9782 113.517 61.0429 118.041C59.243 122.25 58.9301 124.076 59.9311 124.532C61.0976 125.063 60.8939 126.616 59.6074 127.002C58.2847 127.398 56.4309 129.012 55.5275 130.553C54.3904 132.494 53.9539 132.568 53.2654 130.939C52.6883 129.572 52.6883 129.573 53.343 130.001C55.1466 131.183 55.8457 129.775 54.9568 126.749C52.2924 117.681 57.371 105.223 61.8902 109.742ZM232.531 109.664C232.318 110.086 231.866 111.31 231.527 112.384C230.735 114.894 228.632 118.847 226.804 121.263C225.231 123.34 225.166 123.551 225.804 124.461C227.561 126.971 235.108 115.459 235.133 110.231C235.14 108.813 233.177 108.384 232.531 109.664ZM255.946 111.009C254.077 112.879 260.097 118.075 265.833 119.543C268.97 120.345 272.591 120.292 273.135 119.436C274.064 117.972 272.824 116.989 270.049 116.989C266.017 116.989 262.389 115.41 259.087 112.22C257.316 110.507 256.689 110.266 255.946 111.009ZM73.2516 115.582C72.1954 120.283 67.5948 124.608 63.9611 124.316C62.9358 124.234 62.1332 124.067 62.177 123.946C62.8577 122.068 68.0775 117.019 71.4419 114.985C73.4026 113.8 73.6348 113.876 73.2516 115.582ZM169.557 116.18C165.995 116.705 164.108 118.524 165.664 119.932C166.171 120.391 166.338 120.408 167.129 120.083C170.888 118.54 173.147 118.766 175.636 120.935C176.838 121.982 177.592 121.942 178.877 120.764C180.741 119.057 182.405 119.094 184.268 120.884C186.727 123.247 188.685 121.154 186.307 118.704C184.173 116.504 181.146 115.975 178.513 117.341C177.117 118.065 177.117 118.065 175.612 117.25C173.923 116.335 171.458 115.9 169.557 116.18ZM151.418 118.43C152.673 119.021 152.673 119.021 150.999 119.394C147.065 120.271 141.625 119.827 143.624 118.793C145.87 117.631 149.375 117.468 151.418 118.43ZM106.207 125.305C103.393 126.684 100.9 128.708 99.1863 131.004C97.0978 133.804 97.9735 134.652 102.791 134.496C105.93 134.394 105.93 134.394 105.937 135.529C105.965 140.801 113.537 143.197 116.156 138.763C116.432 138.296 116.725 137.952 116.806 138C120.18 139.982 123.511 139.956 123.511 137.948C123.511 137.021 121.681 135.653 120.859 135.966C119.855 136.347 118.979 135.921 117.431 134.298C115.415 132.185 114.006 132.518 114.064 135.095C114.13 138.015 111.644 139.193 109.642 137.19C108.912 136.461 108.862 135.292 109.437 132.432C109.732 130.964 108.8 130.558 106.333 131.08C101.955 132.008 102.513 130.524 107.487 128.012C109.377 127.058 109.711 126.782 109.788 126.112C109.986 124.388 108.679 124.093 106.207 125.305ZM276.101 127.168C270.484 128.714 266.665 132.402 262.956 139.861C261.747 142.293 260.52 144.345 259.869 145.024C258.591 146.357 258.846 146.728 257.186 141.128C255.835 136.57 255.513 135.965 254.441 135.965C252.694 135.965 252.651 136.586 254.078 141.233C255.973 147.402 256.023 147.335 250.962 145.398C248.892 144.607 248.754 144.589 248.085 145.027C245.955 146.423 248.914 148.492 254.31 149.381C256.584 149.755 256.327 149.267 257.313 155.081C257.956 158.872 257.928 159.132 256.973 158.218C248.015 149.639 234.429 150.132 220.486 159.542C214.585 163.524 212.306 164.721 209.1 165.517C206.571 166.146 206.114 166.449 206.114 167.499C206.114 168.626 206.53 168.809 209.463 168.973C212.454 169.141 213.859 169.572 219.962 172.192C229.81 176.42 235.051 175.513 238.825 168.925C241.202 164.778 242.865 164.377 246.881 166.983C251.259 169.824 254.523 170.502 256.551 168.993C258.059 167.872 257.395 165.849 255.654 166.257C253.05 166.867 251.893 166.616 248.95 164.806C242.692 160.955 239.86 161.413 236.753 166.777C233.202 172.909 229.436 173.218 218.185 168.296C214.42 166.65 214.376 166.612 215.658 166.081C216.15 165.877 218.826 164.18 221.604 162.309C236.24 152.455 247.332 152.569 257.374 162.677C258.752 164.064 259.585 164.703 259.87 164.594C260.105 164.504 260.409 164.43 260.544 164.43C261.486 164.43 261.284 160.455 259.936 152.479C259.494 149.863 259.427 148.938 259.673 148.855C261.449 148.264 263.643 145.477 265.427 141.547C269.624 132.299 276.777 127.872 283.475 130.378C285.559 131.158 288.441 133.787 288.437 134.905C288.437 134.951 287.024 134.991 285.298 134.993C280.958 134.998 279.387 135.725 275.771 139.401C272.439 142.787 271.578 143.072 269.42 141.501C268.067 140.517 266.864 143.095 268.136 144.254C270.639 146.534 273.679 145.724 277.833 141.668C281.652 137.939 284.809 137.031 288.923 138.477C291.777 139.48 292.599 138.883 292.041 136.215C290.592 129.287 283.345 125.173 276.101 127.168ZM172.269 127.735C175.257 128.623 175.304 129.153 172.411 129.358C170.525 129.492 168.994 129.833 166.448 130.688C162.439 132.032 161.177 132.045 160.141 130.75C159.285 129.681 159.271 129.702 161.368 128.862C165.225 127.319 169.409 126.886 172.269 127.735ZM139.544 136.634C133.797 138.03 126.992 145.276 129.944 146.857C131.081 147.465 131.693 147.085 132.72 145.133C135.152 140.513 139.928 138.646 147.294 139.435C149.131 139.632 149.131 139.632 147.862 140.798C146.386 142.155 144.778 144.258 143.901 145.976C142.934 147.873 141.193 149.591 139.882 149.944C138.035 150.441 134.93 150.367 134.623 149.818C133.929 148.576 131.972 149.436 131.702 151.101C131.482 152.452 132.054 152.902 134.295 153.142C140.901 153.85 143.599 152.515 146.77 146.971C148.504 143.941 152.286 140.43 153.817 140.43C154.863 140.43 155.425 138.142 154.501 137.647C152.429 136.538 142.662 135.877 139.544 136.634ZM171.371 137.479C164.689 139.015 157.063 144.919 159.112 146.968C159.896 147.752 160.643 147.447 162.749 145.48C169.824 138.873 181.071 138.357 187.975 144.323C189.601 145.728 189.392 145.847 186.998 144.877C182.278 142.966 179.345 143.48 172.393 147.436C169.783 148.922 167.254 149.174 167.09 147.965C166.714 145.182 163.18 144.83 163.493 147.606C164.002 152.124 169.375 153.117 174.672 149.673C179.151 146.759 182.585 146.194 186.222 147.771C189.677 149.268 192.162 148.487 192.16 145.904C192.155 140.631 179.67 135.572 171.371 137.479ZM213.744 139.707C208.036 140.798 203.198 143.556 199.62 147.759C194.982 153.207 196.141 155.575 202.541 153.726C209.175 151.81 209.953 151.725 220.319 151.797C230.447 151.867 232.082 151.707 234.901 150.367C238.428 148.691 241.221 144.728 239.741 143.5C238.223 142.24 235.79 143.1 236.066 144.798C236.198 145.614 236.084 145.833 235.079 146.694C232.874 148.581 232.297 148.662 221.044 148.667C209.839 148.671 205.971 149.113 201.237 150.931C200.368 151.265 202.63 148.658 204.578 147.08C210.24 142.495 217.991 141.111 224.771 143.473C228.126 144.642 229.642 144.188 228.894 142.237C228.195 140.417 218.502 138.798 213.744 139.707ZM33.6532 141.991C26.7146 143.25 21.0848 148.216 17.9981 155.8C16.2447 160.109 17.0551 160.557 22.6302 158.359C32.6608 154.405 38.0518 154.445 44.338 158.517C49.9697 162.165 54.8748 160.646 53.7379 155.605C52.9886 152.283 45.1204 149.997 44.1287 152.813C43.6448 154.188 44.1362 154.505 47.0033 154.666C49.706 154.818 50.3897 155.154 50.7999 156.529C51.247 158.03 48.9869 157.909 46.4181 156.295C39.2579 151.796 33.7578 151.31 24.7279 154.375C20.9257 155.665 21.1442 155.746 22.4271 153.529C27.5557 144.67 38.7134 142.148 44.703 148.494C46.2244 150.106 47.0613 150.305 47.7701 149.223C49.8394 146.065 39.7345 140.888 33.6532 141.991ZM102.502 145.883C95.8401 147.207 94.61 150.899 100.142 152.963C101.287 153.39 103.51 154.585 105.082 155.619C110.493 159.175 115.422 160.188 120.271 158.742C129.201 156.079 128.365 147.183 119.087 146.133C117.11 145.91 116.535 146.203 116.535 147.434C116.535 148.422 117.315 148.954 119.087 149.178C124.531 149.865 125.12 153.777 120.039 155.5C115.21 157.137 111.487 156.409 105.93 152.74C103.796 151.331 102.896 150.864 100.639 149.996C99.0705 149.393 104.213 148.446 108.433 148.56C112.191 148.663 112.191 148.663 112.468 147.88C113.208 145.798 108.087 144.772 102.502 145.883Z" fill="#FFE1B4"/>
<path fill-rule="evenodd" clip-rule="evenodd" d="M69.765 0.0991361C61.5606 0.832513 54.2006 6.89404 51.624 15.0402C50.9026 17.3212 50.9026 17.3212 49.6033 16.7595C36.5945 11.1344 23.0443 19.6307 22.0308 34.0479C21.8558 36.5375 21.8193 36.653 21.262 36.4794C4.61727 31.2933 -6.34822 55.1325 8.46974 64.2905C11.3469 66.0687 11.7484 63.3559 8.98154 60.8315C-1.55085 51.2217 8.43374 34.2854 21.3744 39.8097C25.0212 41.3666 25.8891 40.9492 25.3288 37.9077C22.7271 23.7882 36.6997 13.62 49.675 20.19C51.1622 20.9429 52.0931 21.2554 52.5251 21.1472C53.1932 20.9794 53.1856 20.9987 54.1545 16.9729C56.4978 7.23617 67.0461 1.10208 77.0193 3.67699C89.0935 6.79412 94.452 21.727 87.2754 32.258C85.4687 34.9091 85.558 36.3399 87.5299 36.3399C88.5767 36.3399 91.4479 38.1069 92.7936 39.5793C98.0218 45.2998 95.575 53.7593 88.0456 55.9954C85.8056 56.6604 85.5589 56.5878 83.5948 54.686C80.793 51.9724 76.9922 50.3145 73.5352 50.2978C72.5465 50.293 72.5286 50.2718 72.0506 48.5525C68.7205 36.5751 55.2234 30.6855 44.1775 36.3896C38.3057 39.4219 31.9936 48.7615 35.0856 49.8421C36.2644 50.254 36.6093 49.9221 37.9879 47.0498C45.4098 31.5861 66.3181 34.8533 69.7812 52.0176C70.0611 53.404 70.5799 53.6507 72.8202 53.4612C79.5395 52.8933 85.6783 59.1438 84.857 65.7168C84.6056 67.7297 84.9728 68.0116 88.539 68.5448C95.93 69.6499 99.2547 72.5541 98.384 77.1447C97.9205 79.5888 97.1341 80.4081 95.0001 80.6696C92.2946 81.0014 92.2971 83.2872 95.0032 83.4462C99.8139 83.7289 103.176 77.3367 100.853 72.3261C99.1735 68.7056 96.0745 66.9986 88.4193 65.4765C87.8539 65.3641 87.7914 65.1894 87.7914 63.7179C87.7914 62.819 87.603 61.5499 87.3728 60.8974C86.811 59.3054 86.8066 59.3182 88.0007 59.1251C99.7545 57.2247 102.281 40.5158 91.674 34.8313C90.8432 34.3862 90.1232 33.9905 90.0741 33.9522C90.0253 33.914 90.5477 32.7087 91.2353 31.2741C98.799 15.4953 87.1269 -1.45273 69.765 0.0991361ZM252.531 34.4562C252.41 34.6482 252.351 37.3166 252.399 40.3863C252.476 45.3042 252.202 49.5435 251.696 51.2393C251.586 51.6068 251.271 51.0568 250.657 49.4254C246.684 38.8743 235.98 33.3511 227.602 37.5284C225.059 38.7962 225.053 39.2781 227.531 42.736C232.531 49.7109 239.663 55.8201 240.841 54.1377C241.555 53.1191 241.356 52.6243 239.671 51.2257C235.496 47.76 228.827 40.2786 229.526 39.846C236.837 35.3274 247.565 44.5178 249.526 56.9788C249.941 59.6148 250.468 60.6183 251.439 60.6183C253.253 60.6183 255.188 52.2931 255.479 43.2372C255.648 37.9956 255.648 37.9956 257.741 39.3711C269.704 47.2345 270.065 62.2564 258.382 66.0442C255.852 66.8643 256.201 69.1853 258.815 68.9283C268.385 67.987 273.082 54.1553 267.086 44.5722C263.551 38.9223 253.929 32.2349 252.531 34.4562ZM207.077 36.1571C204.292 37.4257 204.485 41.7152 207.669 49.2647C208.195 50.5115 208.626 51.5717 208.626 51.6205C208.626 51.6694 207.877 51.2005 206.961 50.5788C202.333 47.4357 192.524 43.5955 189.124 43.5955C186.179 43.5955 188.238 53.6577 192.545 60.3164C197.185 67.4886 209.308 75.0668 210.439 71.5021C210.778 70.4344 210.337 69.9153 208.548 69.276C199.194 65.9336 192.699 58.032 190.937 47.8512C190.745 46.7433 190.692 46.7442 194.009 47.8066C202.584 50.5537 209.193 54.8641 213.974 60.8285C215.44 62.658 216.277 63.1067 217.251 62.5857C218.238 62.0572 217.927 61.0796 215.743 57.8475C210.402 49.945 206.564 39.5184 208.79 38.9597C213.03 37.8957 223.791 45.2646 228.56 52.4968C230.536 55.4934 231.172 55.9011 232.163 54.8057C233.666 53.145 228.485 46.1157 222.376 41.5274C216.878 37.3981 209.805 34.9153 207.077 36.1571ZM227.305 59.7993C226.901 60.2031 226.772 60.5999 226.875 61.1248C226.955 61.537 227.1 62.6276 227.197 63.5485C227.58 67.1981 228.213 68.2192 229.679 67.5514C230.514 67.1707 230.601 66.0777 230.09 62.3826C229.673 59.3668 228.669 58.4352 227.305 59.7993ZM237.26 60.9128C234.502 61.3749 233.538 62.2659 234.285 63.6621C234.648 64.3394 234.992 64.365 237.643 63.9102C245.433 62.5743 252.383 68.7059 252.114 76.6784C252.017 79.553 252.27 80.1527 253.579 80.1527C254.733 80.1527 255.035 79.346 255.036 76.2548C255.04 66.7189 246.516 59.3617 237.26 60.9128ZM275.017 64.7426C266.372 68.3104 257.141 73.6952 257.763 74.8073C258.526 76.1727 259.101 75.986 268.272 71.3988C278.574 66.2456 279.887 65.896 280.867 68.0456C283.437 73.686 273.39 81.2489 263.308 81.2642C259.818 81.2693 259.415 81.4186 259.415 82.7036C259.415 83.7233 259.491 83.7591 264.186 84.925C273.632 87.2713 280.556 93.2935 278.001 96.9414C277.012 98.3532 277.602 99.4081 279.381 99.4081C284.8 99.4081 279.975 88.2804 273.02 84.7411C270.966 83.6957 270.407 83.2224 271.226 83.2224C272.723 83.2224 277.678 80.1413 280.255 77.6071C287.574 70.4098 283.792 61.1209 275.017 64.7426ZM219.23 65.3624C217.928 66.6648 221.26 71.5096 222.999 70.8421C224.151 70.4 224.107 69.3734 222.856 67.4531C221.123 64.7928 220.283 64.3089 219.23 65.3624ZM243.292 68.5875C242.398 69.2129 242.521 69.8988 243.787 71.3623C245.173 72.9632 245.186 73.2111 243.857 72.7369C243.282 72.5315 242.497 72.3571 242.113 72.349C241.603 72.3384 241.25 72.0446 240.798 71.2542C239.644 69.2316 237.333 68.0595 236.242 68.9431C235.34 69.6734 235.676 70.6264 237.219 71.7144C238.714 72.7679 238.752 72.9482 237.644 73.7374C237.181 74.0669 236.609 74.711 236.372 75.169C235.942 76.0011 235.942 76.0011 235.396 75.3076C233.989 73.5194 230.899 74.6198 230.022 77.2217C229.97 77.3747 229.465 77.1467 228.899 76.7152C227.249 75.4561 225.601 76.0257 226.024 77.7093C226.225 78.5079 231.828 82.6562 232.713 82.6612C234.255 82.6704 234.715 81.4844 233.741 80.0132C232.507 78.1502 233.217 77.3242 234.7 78.8969C236.4 80.7 238.274 80.2471 238.564 77.9626C239.103 73.7312 244.653 74.7531 246.042 79.3398C248.553 87.6246 241.093 97.5534 235.028 93.999C232.864 92.7312 232.355 91.2377 233.059 88.2333C233.543 86.1741 230.933 85.6667 230.251 87.6874C229.884 88.7719 228.901 88.9161 225.45 88.3915C224.061 88.1803 223.982 88.2029 223.666 88.8941C222.964 90.4365 224.546 91.4341 228.242 91.7793C231.334 92.0682 231.693 93.6239 229.364 96.6423C227.526 99.0238 227.309 99.6338 228.04 100.365C228.993 101.317 229.923 100.824 231.677 98.4347C232.411 97.4354 233.081 96.6174 233.167 96.6177C233.253 96.6177 234.013 96.8825 234.857 97.206C237.302 98.1431 240.708 97.6508 242.988 96.0311C243.724 95.5084 243.724 95.5084 244.384 97.3628C245.11 99.4061 245.573 99.8596 246.656 99.5881C247.782 99.3054 247.823 98.5229 246.856 95.8188C245.976 93.358 245.976 93.358 246.845 91.9878C249.173 88.3181 249.978 81.7546 248.554 78.0598C248.171 77.0666 247.862 75.5543 247.794 74.3424C247.571 70.3931 245.144 67.2902 243.292 68.5875ZM214.39 70.6169C212.979 72.1752 216.786 76.439 218.553 75.2809C219.7 74.5296 219.445 73.5811 217.6 71.7362C215.888 70.0242 215.157 69.7691 214.39 70.6169ZM31.4249 76.2729C29.1505 76.7186 25.7998 78.6104 17.049 84.3895C12.2909 87.532 6.54588 91.3133 4.28184 92.7926C-0.240649 95.7479 -0.799333 96.5304 0.844625 97.6075C1.70637 98.1721 0.504728 98.8656 14.3728 89.8005C35.6599 75.885 31.3839 75.9894 53.9137 88.8363C72.5398 99.4572 71.159 98.745 72.0268 98.1763C73.2022 97.4061 72.4214 95.1518 70.847 94.7698C69.6919 94.4896 63.5188 90.9307 63.7593 90.6837C66.1894 88.1892 77.9033 89.7129 85.6984 93.5371C90.3378 95.8134 93.8546 98.1459 101.836 104.24C103.326 105.378 104.214 105.528 104.91 104.758C105.898 103.667 105.282 102.973 99.6515 98.8324C84.3812 87.6029 71.7609 84.1188 61.3842 88.2687C59.9529 88.8408 59.9529 88.8408 51.0589 83.756C37.4669 75.9855 35.9142 75.3939 31.4249 76.2729ZM186.719 78.3405C177.212 79.8578 173.303 82.2912 177.301 84.2039C191.739 91.1107 207.928 93.5204 210.768 89.1852C211.818 87.5833 210.175 86.4785 207.871 87.2381C201.89 89.2106 193.1 87.9338 183.39 83.682C181.176 82.7131 181.176 82.7131 182.413 82.3959C183.093 82.2214 183.823 82.0197 184.035 81.9477C189.244 80.1767 200.386 80.8364 207.767 83.353C210.463 84.2723 211.073 84.2644 211.437 83.3075C212.724 79.9222 196.826 76.7275 186.719 78.3405ZM212.097 79.7205C211.454 80.7019 211.769 81.2746 213.583 82.4187C216.891 84.5061 218.253 84.5326 218.253 82.5094C218.253 80.5719 213.076 78.2264 212.097 79.7205ZM240.962 80.1248C240.307 80.6551 240.307 80.6551 240.791 82.4729C241.406 84.7782 241.396 86.1403 240.756 87.5479C239.564 90.1691 238.206 89.6704 238.206 86.6111C238.206 84.5329 237.939 84.0596 236.765 84.0596C235.73 84.0596 235.416 84.7389 235.416 86.9803C235.416 94.4966 243.571 93.5835 244.009 86.0183C244.262 81.6426 242.735 78.6891 240.962 80.1248ZM144.73 84.5993C144.228 85.5381 144.407 86.0583 145.717 87.4583C146.418 88.2084 147.228 89.3562 147.517 90.0092C148.148 91.4338 148.736 94.7273 148.244 94.0771C143.971 88.4269 143.55 87.9665 142.653 87.9665C140.544 87.9665 140.614 89.0917 142.911 92.0922C145.003 94.8247 144.999 94.7552 143.053 94.3863C135.575 92.9681 131.505 99.3436 138.588 101.382C139.275 101.579 139.877 101.769 139.926 101.803C139.975 101.838 139.755 102.375 139.438 102.998C138.253 105.319 139.012 107.674 141.292 108.757C142.286 109.229 142.469 109.445 142.478 110.16C142.542 115.576 150.095 113.45 151.678 107.569C152.211 105.59 153.005 107.875 153.789 113.64C153.882 114.331 154.025 115.239 154.104 115.657C154.25 116.419 154.25 116.419 152.625 115.662C148.611 113.794 142.83 114.889 139.69 118.113C137.318 120.547 137.79 121.485 141.845 122.397C148.314 123.853 155.395 122.17 153.166 119.707C152.69 119.181 152.696 119.18 153.572 119.683C154.461 120.193 154.461 120.193 154.57 124.382C154.708 129.72 155.103 131.188 156.414 131.238C156.659 131.248 157.236 131.771 157.697 132.401C159.574 134.969 162.265 135.291 167.37 133.558C170.777 132.402 174.174 132.133 177.969 132.721C182.99 133.499 179.321 127.282 173.441 125.048C169.29 123.47 164.23 123.962 159.162 126.436C157.557 127.219 157.557 127.219 157.557 123.529C157.557 118.54 156.707 111.039 155.71 107.222C155.566 106.673 155.711 106.773 156.387 107.686C158.591 110.665 164.075 112.728 164.973 110.917C166.698 107.437 159.522 97.6045 157.433 100.587C156.735 101.583 156.916 102.11 158.324 103.18C160.316 104.692 162.453 108.059 161.422 108.059C161.058 108.059 158.518 105.485 157.753 104.343C157.151 103.443 156.084 103.351 155.524 104.151C155.141 104.698 155.128 104.695 154.817 104.011C154.529 103.38 154.341 103.315 152.805 103.315C148.921 103.315 147.024 100.405 149.293 97.9276C150.866 96.2094 153.437 96.8485 153.791 99.0458C154.131 101.158 154.217 101.353 154.884 101.521C158.145 102.339 157.239 96.035 153.897 94.6503C152.514 94.0777 153.277 88.3851 154.736 88.3851C155.651 88.3851 155.719 89.2653 154.926 90.8333C153.597 93.4593 154.288 94.107 157.808 93.5352C160.244 93.1395 161.617 93.5254 162.298 94.7974C162.965 96.0434 161.783 96.9766 160.894 95.9055C159.898 94.7047 157.744 96.3487 158.571 97.6787C159.929 99.8629 163.282 99.8833 164.825 97.7167C166.92 94.7745 164.005 90.5107 159.834 90.4155C158.394 90.3829 158.394 90.3829 158.393 89.1048C158.389 84.5795 153.336 83.6257 151.244 87.7555C150.527 89.1701 150.527 89.1701 150.071 88.2196C148.746 85.4583 145.462 83.2325 144.73 84.5993ZM216.031 87.9553C215.056 89.0322 216.177 90.6405 217.636 90.2587C218.442 90.0483 218.776 88.864 218.254 88.0683C217.725 87.261 216.706 87.2094 216.031 87.9553ZM254.617 89.292C253.38 90.7323 253.89 91.4511 256.647 92.1577C264.321 94.1234 271.947 99.283 276.098 105.319C277.661 107.592 277.863 107.559 269.675 106.369C259.496 104.889 256.261 103.229 255.617 99.1563C255.255 96.8627 253.647 96.2075 252.637 97.9416C251.366 100.124 254.384 104.696 258.393 106.661C262.317 108.584 276.776 111.001 279.076 110.118C286.256 107.363 265.773 88.9717 255.342 88.8084C255.174 88.8059 254.848 89.0236 254.617 89.292ZM195.454 96.8859C182.349 101.859 180.915 102.907 182.574 106.303C183.723 108.653 185.264 108.784 193.263 107.209C196.417 106.587 199.847 105.913 200.884 105.71C202.771 105.34 202.771 105.34 200.736 107.47C195.525 112.924 193.789 119.625 196.245 124.803C198.074 128.657 199.046 128.952 201.498 126.392C203.676 124.117 204.91 123.294 210.677 120.27C213.297 118.896 215.961 117.414 216.598 116.976C217.755 116.18 217.755 116.18 217.528 117.352C216.568 122.31 217.887 127.855 220.697 130.673C224.095 134.079 226.108 133.918 225.732 130.271C225.528 128.296 224.743 127.565 223.378 128.08C222.608 128.371 222.519 128.329 221.882 127.363C219.483 123.729 219.633 118.301 222.34 110.74C223.582 107.27 223.457 106.385 221.728 106.385C220.955 106.385 220.815 106.549 219.914 108.526C218.056 112.604 216.303 114.094 208.696 118.061C203.568 120.735 202.838 121.184 200.634 123.032C199.201 124.234 199.201 124.234 198.891 123.472C196.619 117.885 199.387 111.863 207.027 105.767C209.737 103.605 210.063 103.182 209.721 102.277C209.304 101.173 208.377 101.24 198.926 103.05C184.771 105.763 185.463 105.671 185.463 104.839C185.463 104.076 188.942 102.337 193.277 100.933C203.923 97.4859 208.042 95.2369 206.513 93.7071C205.808 93.0022 205.321 93.1417 195.454 96.8859ZM217.871 93.8134C216.311 94.2044 215.647 95.0608 216.179 95.9954C217.06 97.5448 221.741 96.7955 221.741 95.1049C221.741 93.9409 219.863 93.3142 217.871 93.8134ZM144.5 97.7591C145.512 98.092 145.531 98.1241 145.378 99.2451C145.112 101.184 145.704 102.676 147.395 104.327C148.977 105.872 149.109 106.255 148.588 107.808C148.132 109.172 147.273 110.012 146.337 110.012C145.171 110.012 145.051 109.302 146.038 108.25C147.122 107.095 147.281 106.579 146.776 105.859C146.335 105.229 144.896 105.037 144.57 105.565C144.233 106.11 143.044 106.403 142.453 106.087C141.52 105.588 141.879 104.436 143.255 103.514C145.253 102.176 144.215 99.8613 141.29 99.1293C138.934 98.5399 137.956 97.9064 138.511 97.3307C138.803 97.0282 143.244 97.3458 144.5 97.7591ZM223.264 98.5583C219.128 100.234 218.475 104.903 222.579 103.454C223.231 103.224 223.816 103.036 223.879 103.036C223.942 103.036 223.909 103.671 223.806 104.448C223.294 108.305 225.279 108.515 231.01 105.211C232.368 104.428 232.679 104.344 233.103 104.648C236.399 107.001 240.896 106.866 242.768 104.358C244.027 102.672 242.07 101.626 240.02 102.889C238.155 104.038 236.376 103.686 234.593 101.813C233.405 100.565 232.967 100.558 230.987 101.748C227.695 103.727 227.044 103.975 227.043 103.251C227.041 102.484 226.084 100.846 225.509 100.625C225.28 100.537 225.161 100.356 225.244 100.222C225.512 99.7887 224.496 98.2636 223.974 98.3139C223.897 98.3211 223.578 98.4313 223.264 98.5583ZM115.292 102.351C112.236 103.401 109.837 108.156 109.837 113.164C109.837 114.373 109.743 115.313 109.628 115.254C100.27 110.442 96.3991 111.777 99.5776 118.72C101.484 122.883 108.904 125.968 111.609 123.722C113.194 122.405 111.725 120.915 109.032 121.108C105.415 121.367 102.966 119.717 102.008 116.377C101.535 114.729 106.829 116.647 110.256 119.366C113.369 121.835 114.873 121.007 113.621 117.512C111.707 112.174 114.105 103.902 117.038 105.724C118.652 106.725 118.947 112.484 117.541 115.528C115.947 118.981 118.147 119.528 120.987 116.386C124.541 112.453 130.686 109.413 131.606 111.132C132.665 113.111 127.232 117.633 121.907 119.206C119.913 119.794 119.765 119.928 119.874 121.035C119.972 122.031 120.558 122.293 123.946 122.86C130.052 123.88 133.463 125.441 135.243 128.028C136.454 129.788 136.421 129.79 130.923 128.331C125.245 126.824 125.069 126.808 124.455 127.744C123.787 128.764 124.279 129.714 125.662 130.073C126.244 130.224 129.133 130.983 132.082 131.761C139.395 133.689 139.951 133.634 139.592 131.014C138.992 126.643 135.409 123.025 129.951 121.282C127.064 120.36 127.073 120.37 128.45 119.634C129.999 118.806 133.662 115.072 134.349 113.622C137.246 107.509 129.341 105.781 122.465 111.024C121.558 111.715 121.558 111.715 121.558 110.225C121.558 105.05 118.526 101.239 115.292 102.351ZM32.8727 102.892C29.9221 105.374 32.8808 113.07 38.0643 116.396C41.2895 118.466 42.5319 116.046 39.4465 113.704C35.7551 110.903 32.9435 104.474 35.8067 105.383C36.6701 105.657 38.947 108.08 39.6681 109.493C41.2627 112.617 43.6805 112.559 43.2516 109.407C43.0236 107.734 43.8423 106.664 45.3509 106.664C47.1972 106.664 47.8497 108.11 47.0284 110.381C46.309 112.37 48.3799 113.324 49.6692 111.597C53.1421 106.945 46.0416 100.986 41.8468 105.031C40.9705 105.876 40.9705 105.876 39.6355 104.597C37.1161 102.183 34.499 101.523 32.8727 102.892ZM248.252 105.547C247.363 106.437 247.684 107.472 249.071 108.189C250.392 108.872 251.035 110.298 251.877 114.41C253.132 120.532 254.009 123.45 255.786 127.407C256.541 129.088 256.476 129.147 254.499 128.573C246.666 126.295 240.718 118.644 240.718 110.843C240.718 109.183 240.328 108.617 239.183 108.617C237.826 108.617 237.532 109.304 237.753 111.957C238.594 122.036 246.012 130.182 255.924 131.91C260.882 132.775 261.517 132.06 259.45 127.936C257.354 123.756 256.077 119.845 254.801 113.704C253.776 108.764 252.661 106.804 250.147 105.519C248.875 104.868 248.932 104.868 248.252 105.547ZM58.4577 106.212C52.6967 108.27 49.238 119.582 51.9731 127.419C52.5781 129.154 52.4182 128.993 51.1052 126.547C48.6911 122.051 45.7135 118.103 44.7418 118.109C40.4461 118.139 42.0164 134.739 46.5615 137.344C48.1338 138.245 49.2908 136.431 48.158 134.84C46.052 131.882 44.3385 125.03 45.3189 123.487C45.7542 122.802 49.4216 129.283 50.9526 133.443C52.3197 137.157 52.8756 137.375 55.3121 135.148C57.5119 133.137 63.5129 131.497 63.5129 132.907C63.5129 135.093 59.5142 139.023 56.2573 140.037C54.3178 140.642 54.0248 140.876 54.0248 141.826C54.0248 143.212 54.5151 143.35 58.0385 142.957C61.3792 142.585 63.6999 142.774 66.7869 143.671C68.723 144.233 68.7797 144.443 67.1815 145.13C64.3152 146.363 61.0639 146.621 58.0712 145.852C57.1503 145.615 56.1099 145.35 55.7592 145.263C53.6639 144.745 53.5426 146.983 55.5761 148.64C61.7883 153.7 77.5082 155.528 75.8313 150.994C75.4297 149.908 74.9202 149.79 72.3533 150.19C69.82 150.584 66.7821 150.474 64.5488 149.907C62.9157 149.492 62.9182 149.489 65.5319 148.821C75.2679 146.331 74.4954 141.359 64.1606 139.996C62.7154 139.805 62.7154 139.805 63.8319 138.393C65.7354 135.985 67.0821 132.696 66.7336 131.307C66.1531 128.994 59.8153 129.02 55.5331 131.353C53.8319 132.279 53.8319 132.279 53.2601 130.926C52.6883 129.573 52.6883 129.573 53.343 130.001C55.1466 131.183 55.8457 129.775 54.9568 126.749C52.7394 119.203 55.4081 109.695 59.942 108.989C63.1013 108.496 63.5495 112.181 61.0429 118.041C59.2095 122.328 58.9251 124.074 59.9817 124.555C60.5186 124.799 60.6765 125.042 60.5791 125.473C60.3341 126.555 61.0362 127.004 63.3993 127.277C70.9725 128.151 75.4049 133.182 75.2885 140.772C75.2383 144.044 75.5235 144.605 77.0427 144.224C77.8927 144.01 78.0568 143.521 78.2215 140.709C78.5173 135.664 76.3068 130.7 72.4613 127.773C70.2216 126.067 73.0806 124.477 79.1413 124.056C85.9683 123.583 86.5004 125.326 80.5625 128.71C77.3829 130.522 77.9907 131.886 82.2509 132.5C85.4004 132.954 92.1286 134.555 92.7266 134.992C93.0804 135.25 92.8751 135.413 91.5615 135.916C84.2171 138.727 82.5508 140.432 86.045 141.562C93.1125 143.848 91.6717 145.99 83.8845 144.773C80.7679 144.287 79.2749 145.163 80.4249 146.805C81.6576 148.565 94.0734 148.447 95.2412 146.665C95.9997 145.507 94.0547 142.606 91.2953 140.778C90.0579 139.958 90.0579 139.958 92.1149 139.054C99.1495 135.962 97.7774 132.682 88.6001 130.65C84.5682 129.757 84.5682 129.757 86.4401 127.95C90.3841 124.142 90.57 123.07 87.4618 122.051C83.6953 120.816 79.9355 120.6 76.0467 121.395C73.6507 121.885 73.6507 121.885 74.7039 119.926C79.2772 111.416 74.9232 107.958 67.302 114.047C65.1329 115.781 65.0899 115.79 65.4711 114.461C66.9445 109.324 62.9375 104.611 58.4577 106.212ZM86.117 107.093C81.8884 108.991 81.95 116.073 86.2043 117.14C87.8846 117.562 88.7042 115.573 87.303 114.474C84.991 112.661 85.5993 109.733 88.2881 109.733C89.7526 109.733 90.599 110.648 90.7905 112.437C91.1211 115.529 93.6564 115.371 93.6472 112.259C93.6352 108.295 89.6025 105.529 86.117 107.093ZM232.531 109.664C232.318 110.086 231.866 111.31 231.527 112.384C230.735 114.894 228.632 118.847 226.804 121.263C225.231 123.34 225.166 123.551 225.804 124.461C227.561 126.971 235.108 115.459 235.133 110.231C235.14 108.813 233.177 108.384 232.531 109.664ZM255.946 111.009C254.077 112.879 260.097 118.075 265.833 119.543C268.97 120.345 272.591 120.292 273.135 119.436C274.064 117.972 272.824 116.989 270.049 116.989C266.017 116.989 262.389 115.41 259.087 112.22C257.316 110.507 256.689 110.266 255.946 111.009ZM17.1885 112.705C9.98309 113.787 4.95522 115.789 5.74357 117.262C6.31007 118.32 6.99377 118.443 8.73847 117.801C15.4965 115.314 25.8026 114.561 29.2861 116.298C31.4274 117.367 33.99 116.15 33.1001 114.487C32.3743 113.131 22.0517 111.975 17.1885 112.705ZM73.2516 115.582C72.1954 120.283 67.5948 124.608 63.9611 124.316C62.9358 124.234 62.1332 124.067 62.177 123.946C62.8577 122.068 68.0775 117.019 71.4419 114.985C73.4026 113.8 73.6348 113.876 73.2516 115.582ZM169.557 116.18C165.995 116.705 164.108 118.524 165.664 119.932C166.171 120.391 166.338 120.408 167.129 120.083C170.888 118.54 173.147 118.766 175.636 120.935C176.838 121.982 177.592 121.942 178.877 120.764C180.741 119.057 182.405 119.094 184.268 120.884C186.727 123.247 188.685 121.154 186.307 118.704C184.173 116.504 181.146 115.975 178.513 117.341C177.117 118.065 177.117 118.065 175.612 117.25C173.923 116.335 171.458 115.9 169.557 116.18ZM151.418 118.43C152.673 119.021 152.673 119.021 150.999 119.394C147.065 120.271 141.625 119.827 143.624 118.793C145.87 117.631 149.375 117.468 151.418 118.43ZM106.207 125.305C103.393 126.684 100.9 128.708 99.1863 131.004C97.0978 133.804 97.9735 134.652 102.791 134.496C105.93 134.394 105.93 134.394 105.937 135.529C105.965 140.801 113.537 143.197 116.156 138.763C116.432 138.296 116.725 137.952 116.806 138C120.18 139.982 123.511 139.956 123.511 137.948C123.511 137.021 121.681 135.653 120.859 135.966C119.855 136.347 118.979 135.921 117.431 134.298C115.415 132.185 114.006 132.518 114.064 135.095C114.13 138.015 111.644 139.193 109.642 137.19C108.912 136.461 108.862 135.292 109.437 132.432C109.732 130.964 108.8 130.558 106.333 131.08C101.955 132.008 102.513 130.524 107.487 128.012C109.377 127.058 109.711 126.782 109.788 126.112C109.986 124.388 108.679 124.093 106.207 125.305ZM112.07 125.082C110.145 127.007 113.093 131.895 116.528 132.476C119.729 133.017 123.268 130.218 121.143 128.826C120.491 128.399 120.379 128.407 119.32 128.959C117.915 129.691 116.932 129.702 115.775 128.996C114.891 128.457 114.782 128.222 114.446 126.132C114.197 124.582 113.068 124.083 112.07 125.082ZM276.101 127.168C270.484 128.714 266.665 132.402 262.956 139.861C261.747 142.293 260.52 144.345 259.869 145.024C258.591 146.357 258.846 146.728 257.186 141.128C255.835 136.57 255.513 135.965 254.441 135.965C252.694 135.965 252.651 136.586 254.078 141.233C255.973 147.402 256.023 147.335 250.962 145.398C248.892 144.607 248.754 144.589 248.085 145.027C245.955 146.423 248.914 148.492 254.31 149.381C256.584 149.755 256.327 149.267 257.313 155.081C257.956 158.872 257.928 159.132 256.973 158.218C248.015 149.639 234.429 150.132 220.486 159.542C214.585 163.524 212.306 164.721 209.1 165.517C206.571 166.146 206.114 166.449 206.114 167.499C206.114 168.626 206.53 168.809 209.463 168.973C212.454 169.141 213.859 169.572 219.962 172.192C229.81 176.42 235.051 175.513 238.825 168.925C241.202 164.778 242.865 164.377 246.881 166.983C251.259 169.824 254.523 170.502 256.551 168.993C258.059 167.872 257.395 165.849 255.654 166.257C253.05 166.867 251.893 166.616 248.95 164.806C242.692 160.955 239.86 161.413 236.753 166.777C233.202 172.909 229.436 173.218 218.185 168.296C214.42 166.65 214.376 166.612 215.658 166.081C216.15 165.877 218.826 164.18 221.604 162.309C236.24 152.455 247.332 152.569 257.374 162.677C258.752 164.064 259.585 164.703 259.87 164.594C260.105 164.504 260.409 164.43 260.544 164.43C261.486 164.43 261.284 160.455 259.936 152.479C259.494 149.863 259.427 148.938 259.673 148.855C261.449 148.264 263.643 145.477 265.427 141.547C269.624 132.299 276.777 127.872 283.475 130.378C285.559 131.158 288.441 133.787 288.437 134.905C288.437 134.951 287.024 134.991 285.298 134.993C280.958 134.998 279.387 135.725 275.771 139.401C272.439 142.787 271.578 143.072 269.42 141.501C268.067 140.517 266.864 143.095 268.136 144.254C270.639 146.534 273.679 145.724 277.833 141.668C281.652 137.939 284.809 137.031 288.923 138.477C291.777 139.48 292.599 138.883 292.041 136.215C290.592 129.287 283.345 125.173 276.101 127.168ZM172.269 127.735C175.257 128.623 175.304 129.153 172.411 129.358C170.525 129.492 168.994 129.833 166.448 130.688C162.439 132.032 161.177 132.045 160.141 130.75C159.285 129.681 159.271 129.702 161.368 128.862C165.225 127.319 169.409 126.886 172.269 127.735ZM139.544 136.634C133.797 138.03 126.992 145.276 129.944 146.857C131.081 147.465 131.693 147.085 132.72 145.133C135.152 140.513 139.928 138.646 147.294 139.435C149.131 139.632 149.131 139.632 147.862 140.798C146.386 142.155 144.778 144.258 143.901 145.976C142.934 147.873 141.193 149.591 139.882 149.944C138.035 150.441 134.93 150.367 134.623 149.818C133.929 148.576 131.972 149.436 131.702 151.101C131.482 152.452 132.054 152.902 134.295 153.142C140.901 153.85 143.599 152.515 146.77 146.971C148.504 143.941 152.286 140.43 153.817 140.43C154.863 140.43 155.425 138.142 154.501 137.647C152.429 136.538 142.662 135.877 139.544 136.634ZM171.371 137.479C164.689 139.015 157.063 144.919 159.112 146.968C159.896 147.752 160.643 147.447 162.749 145.48C169.824 138.873 181.071 138.357 187.975 144.323C189.601 145.728 189.392 145.847 186.998 144.877C182.278 142.966 179.345 143.48 172.393 147.436C169.783 148.922 167.254 149.174 167.09 147.965C166.714 145.182 163.18 144.83 163.493 147.606C164.002 152.124 169.375 153.117 174.672 149.673C179.151 146.759 182.585 146.194 186.222 147.771C189.677 149.268 192.162 148.487 192.16 145.904C192.155 140.631 179.67 135.572 171.371 137.479ZM213.744 139.707C208.036 140.798 203.198 143.556 199.62 147.759C194.982 153.207 196.141 155.575 202.541 153.726C209.175 151.81 209.953 151.725 220.319 151.797C230.447 151.867 232.082 151.707 234.901 150.367C238.428 148.691 241.221 144.728 239.741 143.5C238.223 142.24 235.79 143.1 236.066 144.798C236.198 145.614 236.084 145.833 235.079 146.694C232.874 148.581 232.297 148.662 221.044 148.667C209.839 148.671 205.971 149.113 201.237 150.931C200.368 151.265 202.63 148.658 204.578 147.08C210.24 142.495 217.991 141.111 224.771 143.473C228.126 144.642 229.642 144.188 228.894 142.237C228.195 140.417 218.502 138.798 213.744 139.707ZM33.6532 141.991C26.7146 143.25 21.0848 148.216 17.9981 155.8C16.2447 160.109 17.0551 160.557 22.6302 158.359C32.6608 154.405 38.0518 154.445 44.338 158.517C49.9697 162.165 54.8748 160.646 53.7379 155.605C52.9886 152.283 45.1204 149.997 44.1287 152.813C43.6448 154.188 44.1362 154.505 47.0033 154.666C49.706 154.818 50.3897 155.154 50.7999 156.529C51.247 158.03 48.9869 157.909 46.4181 156.295C39.2579 151.796 33.7578 151.31 24.7279 154.375C20.9257 155.665 21.1442 155.746 22.4271 153.529C27.5557 144.67 38.7134 142.148 44.703 148.494C46.2244 150.106 47.0613 150.305 47.7701 149.223C49.8394 146.065 39.7345 140.888 33.6532 141.991ZM102.502 145.883C95.8401 147.207 94.61 150.899 100.142 152.963C101.287 153.39 103.51 154.585 105.082 155.619C110.493 159.175 115.422 160.188 120.271 158.742C129.201 156.079 128.365 147.183 119.087 146.133C117.11 145.91 116.535 146.203 116.535 147.434C116.535 148.422 117.315 148.954 119.087 149.178C124.531 149.865 125.12 153.777 120.039 155.5C115.21 157.137 111.487 156.409 105.93 152.74C103.796 151.331 102.896 150.864 100.639 149.996C99.0705 149.393 104.213 148.446 108.433 148.56C112.191 148.663 112.191 148.663 112.468 147.88C113.208 145.798 108.087 144.772 102.502 145.883Z" fill="#5B5B5B"/>
</svg>
