<svg width="24" height="24" viewBox="0 0 24 24" fill="none" xmlns="http://www.w3.org/2000/svg">
<path d="M19 5.99954C16.6805 5.99954 13.9706 4.66295 12.1104 3.03958C12.0796 3.01349 12.0403 2.99954 12 2.99954C11.9595 2.99954 11.9204 3.01426 11.8896 3.04056L11.8887 3.03958C10.0393 4.65198 7.32008 5.99954 5 5.99954V12.9995L5.00879 13.4117C5.09782 15.4371 5.8465 16.9384 6.98633 18.106C8.22945 19.3792 9.98355 20.2996 11.9961 20.9947C12.0034 20.9972 12.0113 20.9988 12.0186 21.0015C14.0236 20.3018 15.7728 19.381 17.0137 18.1079C18.229 16.861 19 15.2354 19 12.9995V5.99954ZM21 12.9995C21 15.7637 20.021 17.8888 18.4463 19.5044C16.8988 21.0921 14.8204 22.1442 12.6689 22.8941L12.6611 22.897C12.233 23.0421 11.7688 23.0369 11.3438 22.8843V22.8853C11.3379 22.8833 11.3321 22.8805 11.3262 22.8784C11.3246 22.8779 11.3228 22.878 11.3213 22.8775V22.8765C9.17204 22.132 7.09956 21.0847 5.55566 19.5034C4.07782 17.9898 3.12517 16.0279 3.01172 13.5113L3 12.9995V5.99954C3.00012 5.46927 3.21097 4.96045 3.58594 4.58548C3.96099 4.21055 4.46967 3.99954 5 3.99954L5.32129 3.98782C6.95847 3.8673 9.05352 2.86212 10.582 1.52689L10.5908 1.52005C10.9837 1.18437 11.4832 0.999542 12 0.999542C12.5168 0.999542 13.0163 1.18437 13.4092 1.52005L13.418 1.52689C15.0575 2.96029 17.3229 3.99954 19 3.99954C19.5303 3.99954 20.039 4.21055 20.4141 4.58548C20.789 4.96045 20.9999 5.46927 21 5.99954V12.9995Z" fill="white"/>
<path d="M14.2929 9.29295C14.6834 8.90243 15.3164 8.90243 15.707 9.29295C16.0975 9.68348 16.0975 10.3165 15.707 10.707L11.707 14.707C11.3164 15.0975 10.6834 15.0975 10.2929 14.707L8.29289 12.707C7.90237 12.3165 7.90237 11.6835 8.29289 11.293C8.68342 10.9024 9.31643 10.9024 9.70696 11.293L10.9999 12.5859L14.2929 9.29295Z" fill="white"/>
</svg>
