<?xml version="1.0" encoding="UTF-8" standalone="no"?>
<svg
   width="41"
   height="34"
   viewBox="0 0 41 34"
   fill="none"
   version="1.1"
   id="svg1"
   sodipodi:docname="smail-logo.svg"
   inkscape:version="1.4.2 (f4327f4, 2025-05-13)"
   xmlns:inkscape="http://www.inkscape.org/namespaces/inkscape"
   xmlns:sodipodi="http://sodipodi.sourceforge.net/DTD/sodipodi-0.dtd"
   xmlns="http://www.w3.org/2000/svg"
   xmlns:svg="http://www.w3.org/2000/svg">
  <defs
     id="defs1">
    <linearGradient
       id="swatch8"
       inkscape:swatch="solid">
      <stop
         style="stop-color:#bb4325;stop-opacity:0;"
         offset="0"
         id="stop8" />
    </linearGradient>
    <linearGradient
       id="swatch7">
      <stop
         style="stop-color:#37c865;stop-opacity:0;"
         offset="0"
         id="stop7" />
    </linearGradient>
    <linearGradient
       id="swatch2"
       inkscape:swatch="solid">
      <stop
         style="stop-color:#ff6000;stop-opacity:0;"
         offset="0"
         id="stop2" />
    </linearGradient>
  </defs>
  <sodipodi:namedview
     id="namedview1"
     pagecolor="#ffffff"
     bordercolor="#000000"
     borderopacity="0.25"
     inkscape:showpageshadow="2"
     inkscape:pageopacity="0.0"
     inkscape:pagecheckerboard="0"
     inkscape:deskcolor="#d1d1d1"
     inkscape:zoom="34.323529"
     inkscape:cx="20.510711"
     inkscape:cy="17"
     inkscape:window-width="2560"
     inkscape:window-height="1369"
     inkscape:window-x="-8"
     inkscape:window-y="615"
     inkscape:window-maximized="1"
     inkscape:current-layer="svg1" />
  <rect
     style="display:none;opacity:1;fill:#ffff00;fill-opacity:1;stroke:#ffff00;stroke-width:0;stroke-linecap:round;stroke-linejoin:round;stroke-miterlimit:7.4;stroke-dasharray:none;stroke-opacity:1;paint-order:normal"
     id="rect18"
     width="41.196228"
     height="34.145672"
     x="-0.05826908"
     y="-0.058269404" />
  <path
     d="M 15.186264,24.679355 H 25.81655 c 0.177239,0 0.322181,-0.144062 0.322181,-0.320068 V 20.9987 c 0,-0.176007 -0.144942,-0.320069 -0.322181,-0.320069 h -1.610639 c -0.17715,0 -0.322092,0.144062 -0.322092,0.320069 v 1.440264 H 17.119083 V 20.9987 c 0,-0.176007 -0.144941,-0.320069 -0.32218,-0.320069 h -1.610639 c -0.177151,0 -0.322092,0.144062 -0.322092,0.320069 v 3.360587 c 0,0.176006 0.144941,0.320068 0.322092,0.320068 z m 13.690517,-4.920888 c 0,0.424441 0.169759,0.831457 0.471787,1.131549 0.302027,0.300179 0.711683,0.468706 1.13894,0.468706 0.427169,0 0.836825,-0.168527 1.138852,-0.468706 0.302028,-0.300092 0.471787,-0.707108 0.471787,-1.131549 0,-0.42444 -0.169759,-0.831456 -0.471787,-1.131548 -0.302027,-0.300091 -0.711683,-0.468706 -1.138852,-0.468706 -0.427257,0 -0.836913,0.168615 -1.13894,0.468706 -0.302028,0.300092 -0.471787,0.707108 -0.471787,1.131548 z m 9.623703,-6.705157 -0.954309,-1.656312 c -0.04295,-0.07296 -0.113172,-0.126197 -0.195368,-0.147934 -0.08228,-0.02174 -0.169846,-0.01021 -0.243593,0.03194 L 35.06571,12.465183 31.9129,3.8157225 C 31.746397,3.2996088 31.4192,2.849415 30.978391,2.5301341 30.53767,2.2108533 30.006129,2.0390106 29.460684,2.0394181 H 12.013301 c -1.397248,0 -2.6374456,0.8961557 -3.0682928,2.2203873 L 5.9411433,12.469232 3.895618,11.285057 c -0.073756,-0.04224 -0.1613015,-0.05368 -0.2435319,-0.03195 -0.082239,0.02174 -0.1524747,0.07489 -0.1953764,0.147934 L 2.502401,13.05331 c -0.088586,0.15207 -0.03624,0.344094 0.1167722,0.432097 l 2.4320794,1.408231 -0.5838587,1.600254 c -0.048314,0.128045 -0.07248,0.264099 -0.07248,0.400064 V 30.82437 c 0,0.628081 0.4751481,1.136213 1.0590069,1.136213 h 2.7219988 c 0.4952745,0 0.9261217,-0.372079 1.0308193,-0.892179 L 9.5167841,29.560201 H 31.486083 l 0.310036,1.508203 c 0.108684,0.5201 0.535501,0.892179 1.030784,0.892179 h 2.722034 c 0.583903,0 1.059033,-0.508132 1.059033,-1.136213 V 16.893956 c 0,-0.135965 -0.0242,-0.272019 -0.07251,-0.400064 l -0.583815,-1.600254 2.428014,-1.408231 c 0.07313,-0.04198 0.126725,-0.110708 0.149254,-0.191495 0.02262,-0.08079 0.01241,-0.167207 -0.02842,-0.240602 z m -4.791698,4.144698 v 9.481665 H 7.2940904 V 17.198008 L 7.9222412,15.477717 H 33.080617 Z M 11.671055,5.23997 l 0.02015,-0.05201 0.0161,-0.05201 c 0.04427,-0.1320228 0.165102,-0.220035 0.305996,-0.220035 h 17.21787 l 3.03603,8.32141 H 8.743674 Z M 8.9047379,19.758467 c 0,0.424441 0.169697,0.831457 0.4717512,1.131549 0.3020541,0.300179 0.7117279,0.468706 1.1388959,0.468706 0.427178,0 0.836834,-0.168527 1.13895,-0.468706 0.302027,-0.300092 0.471698,-0.707108 0.471698,-1.131549 0,-0.42444 -0.169671,-0.831456 -0.471698,-1.131548 -0.302116,-0.300091 -0.711772,-0.468706 -1.13895,-0.468706 -0.427168,0 -0.8368418,0.168615 -1.1388959,0.468706 -0.3020542,0.300092 -0.4717512,0.707108 -0.4717512,1.131548 z"
     fill="#333333"
     id="path1"
     sodipodi:nodetypes="sssssssccssssssscscsssssccccccccscccccccccssssccccsssscccccccccccccccsccccscssscsss"
     style="stroke-width:0.880034;fill:#ffffff" />
</svg>
