<svg width="197" height="274" viewBox="0 0 197 274" fill="none" xmlns="http://www.w3.org/2000/svg">
<path fill-rule="evenodd" clip-rule="evenodd" d="M72.6011 0.446185C68.8642 1.8415 66.34 4.82217 65.8056 8.47036C65.3432 11.6274 68.0705 11.482 68.8884 8.30599C70.2612 2.97533 76.7586 1.29202 80.2441 5.36411C83.9587 9.70381 80.9453 15.9802 75.1467 15.9802C72.0435 15.9802 71.8231 16.5113 73.2346 20.587C75.0744 25.8998 74.6932 30.146 72.1476 32.6966C70.6429 34.2041 70.6429 34.2041 69.8995 32.7248C68.0501 29.0434 63.4886 28.0215 61.6219 30.8702C60.631 32.383 62.1527 33.6136 63.603 32.4728C65.8486 30.7063 68.8337 33.7744 67.53 36.5086C66.8775 37.8766 65.8712 38.4247 64.0886 38.3831C62.146 38.3376 61.3585 39.184 62.1787 40.4356C62.5551 41.0105 62.6187 41.4824 62.47 42.5983C61.5781 49.2819 61.8 54.629 62.981 54.9254C64.5956 55.3306 64.6899 55.0509 65.0745 48.7198C65.5642 40.6563 65.4557 41.0964 67.1638 40.2483C67.9533 39.8565 68.8686 39.1268 69.2141 38.6139C69.6051 38.034 70.4643 37.3916 71.5122 36.896C76.957 34.321 78.8529 28.2866 76.5376 20.9018C76.242 19.9599 75.999 19.1679 75.997 19.1417C75.995 19.1158 76.4014 19.0072 76.9003 18.9009C82.879 17.6264 86.5548 10.7955 84.029 5.65294C81.9226 1.36374 76.6174 -1.0535 72.6011 0.446185ZM51.994 2.76408C46.6044 3.77457 41.6352 7.41298 43.6843 8.8482C44.565 9.46521 44.7953 9.41414 46.7113 8.17566C51.1001 5.33927 56.1716 4.8004 61.0828 6.64891C62.9642 7.35717 64.2727 6.91486 64.2727 5.57117C64.2727 3.81642 56.2109 1.97322 51.994 2.76408ZM40.863 11.1198C39.3109 13.093 38.3113 18.5191 39.2989 19.6103C40.6088 21.058 41.8107 19.9878 42.0334 17.1752C42.121 16.0673 42.4517 14.5757 42.7679 13.8607C43.9213 11.2532 42.4375 9.11833 40.863 11.1198ZM47.0415 10.8625C44.7322 11.7948 42.6839 21.6558 44.5131 23.0338C45.8557 24.0454 46.6918 23.1792 46.6918 20.7765C46.6918 18.379 47.3049 16.0215 48.4831 13.8884C48.9924 12.9669 49.3482 12.0245 49.274 11.7943C48.9882 10.9068 47.9769 10.4849 47.0415 10.8625ZM51.5849 12.3923C48.1019 16.5314 46.8296 26.0265 49.7581 26.0265C50.8493 26.0265 51.0496 25.5543 51.238 22.5382C51.4693 18.8342 51.6058 18.6986 52.7338 21.0519C53.4178 22.4793 54.2413 23.5922 55.6039 24.9309C57.515 26.8078 57.515 26.8078 57.131 28.4404C56.6016 30.6896 56.6448 33.0508 57.2959 37.468C58.7289 47.1931 58.0558 50.469 54.1478 52.7858C51.2525 54.5023 52.2139 56.9823 55.2261 55.5675C60.5944 53.0459 61.9802 47.7987 60.2277 36.6308C59.4595 31.7361 59.7525 28.7046 61.0635 27.9819C62.5654 27.1533 62.3835 25.996 60.5902 24.9736C56.2798 22.5153 53.9298 18.4148 54.3295 14.0483C54.5764 11.3508 53.1733 10.5042 51.5849 12.3923ZM48.1429 28.5938C47.7782 28.9586 47.6878 30.2783 48.0059 30.5964C48.1147 30.7052 48.1689 31.2781 48.1262 31.8695C48.0023 33.5868 49.8597 34.5569 50.6983 33.2123C52.2521 30.7211 50.0305 26.7063 48.1429 28.5938ZM38.8214 30.9603C37.9323 31.1944 37.7283 32.736 38.4759 33.5734C38.8035 33.9404 38.791 34.3417 38.3908 36.2764C37.0686 42.6703 43.6277 52.3239 47.9548 50.3524C49.6886 49.5623 49.1026 48.1346 46.5709 46.9813C42.3811 45.0722 40.0465 40.017 41.5336 36.0727C42.4612 33.6117 42.4143 33.2469 41.0011 31.9443C40.3007 31.2988 39.6307 30.785 39.5121 30.8029C39.3937 30.8208 39.0829 30.8916 38.8214 30.9603ZM53.0952 38.759C51.9683 39.9447 50.4318 40.6929 48.5596 40.9672C46.4842 41.2717 45.7502 43.0886 47.3992 43.8402C50.563 45.2815 58.0946 40.0502 55.669 38.0959C54.9241 37.4957 54.092 37.71 53.0952 38.759ZM66.282 52.5932C65.8695 53.0057 65.8408 54.3923 66.2399 54.6388C67.6064 55.4835 58.8941 60.6891 50.6176 63.9729C44.7353 66.3069 45.0559 66.3262 46.8344 63.7443C48.7719 60.9313 48.7407 59.7931 46.7256 59.7931C45.328 59.7931 42.1193 64.7556 42.2784 66.6714C42.5086 69.4433 44.6516 69.5697 50.7856 67.1737C59.774 63.6628 66.7759 59.7007 68.951 56.895C70.6792 54.6656 68.2022 50.673 66.282 52.5932ZM76.8585 57.4489C76.2138 58.1904 75.8324 58.2219 73.7609 57.7054C71.7812 57.212 59.3914 67.8761 55.6706 73.2763C49.6353 82.0355 49.2544 91.6481 55.2395 84.1563C60.3505 77.7591 67.7769 70.9885 73.9755 67.0749C74.7842 66.5642 75.6814 65.8473 75.9691 65.4815C77.0848 64.0627 79.5341 65.9238 79.1948 67.9322C78.9891 69.1495 79.5573 70.1184 80.4768 70.1184C81.9419 70.1184 82.5539 73.8254 81.3165 75.2068C80.5002 76.1182 80.5002 76.1182 80.191 75.281C78.63 71.0521 78.0766 70.2345 76.9642 70.5135C75.5538 70.8674 75.5307 71.7124 76.8406 75.0438C79.3873 81.5203 82.4687 95.8284 81.521 96.7758C81.0589 97.238 63.32 99.7029 62.9706 99.3538C62.6687 99.0519 62.4848 97.1512 62.1957 91.343C61.7715 82.8191 61.7601 82.78 59.7611 82.9223C58.9072 82.9829 58.8204 84.273 59.1706 91.6852C59.7126 103.161 60.0528 103.663 66.385 102.34C67.2414 102.161 67.2414 102.161 68.1696 106.86C70.1456 116.866 73.0828 127.223 76.5797 136.518C77.6513 139.367 78.5543 141.813 78.5864 141.954C78.7078 142.487 70.233 143.64 63.9853 143.939C60.2093 144.12 60.2093 144.12 60.1605 143.473C60.0876 142.506 59.3278 142.117 57.5108 142.117C52.3861 142.117 39.1571 139.176 39.1571 138.037C39.1571 137.969 39.4549 137.196 39.8185 136.318C42.7617 129.215 43.6782 119.714 42.3546 110.024C42.2812 109.487 41.7253 105.469 41.1195 101.094C39.0494 86.153 38.8565 77.9531 40.4279 71.6923C40.625 70.9076 39.7674 69.8365 38.9478 69.8435C35.865 69.8706 35.5589 82.6793 38.1929 101.435C38.8766 106.303 39.4362 110.457 39.4362 110.665C39.4362 111.734 30.3808 112.046 25.6812 111.139C20.7484 110.187 15.2531 108.072 15.6009 107.26C16.3253 105.567 16.5301 104.635 16.5407 102.978C16.548 101.847 16.6711 101.094 16.8483 101.094C17.011 101.094 18.6359 101.471 20.4599 101.932C26.6713 103.5 26.5689 104.297 22.1728 88.592C18.243 74.5527 19.8052 76.4115 10.7306 74.9777C-1.51435 73.043 -1.02906 72.8278 1.34186 79.1447C2.89094 83.2717 2.89094 83.2717 1.91366 85.2762C-0.616044 90.4654 0.223656 96.3826 4.06635 100.446C5.89003 102.374 7.09446 102.475 7.70868 100.75C7.827 100.418 7.44942 99.7721 6.50507 98.693C3.27771 95.0052 2.57057 90.3273 4.63312 86.3107C6.1236 83.4073 6.90665 84.7993 6.1769 89.0553C5.65561 92.0948 6.98674 94.5581 8.78196 93.8755C10.1262 93.3643 10.8322 94.0324 10.8322 95.815C10.8322 97.1847 10.9447 97.4794 11.889 98.5856C13.6435 100.641 14.1308 103.447 13.0882 105.493C12.7667 106.124 12.7667 106.124 11.1018 104.918C7.45585 102.276 5.10837 104.016 8.61033 106.764C16.3365 112.828 28.1118 115.932 37.5318 114.388C41.2646 113.776 40.7341 126.762 36.6452 136.085C35.0122 139.808 35.1285 139.955 41.4594 142.17C44.1052 143.095 44.3566 143.426 43.1817 144.437C42.462 145.056 42.462 145.056 42.7777 150.632C44.0879 173.803 48.1538 198.215 56.9646 235.812C57.5041 238.114 57.5041 238.114 56.625 238.114C53.713 238.114 53.7253 240.918 56.6387 241.179C58.2394 241.323 58.2394 241.323 58.7119 243.488C58.9717 244.678 59.3325 245.831 59.5136 246.049C59.7684 246.356 59.7542 246.624 59.45 247.233C59.2343 247.666 58.8991 248.607 58.7054 249.322C57.9277 252.198 56.0677 252.94 49.0638 253.168C42.9607 253.366 42.1601 253.687 40.6615 256.532C40.0453 257.702 39.922 262.419 40.4815 263.41C41.7808 265.709 57.5694 266.055 64.2633 263.93C64.6785 263.799 64.7882 264.007 64.9514 265.239C65.2528 267.51 64.9553 267.418 71.9112 267.399C86.3561 267.36 89.2614 266.968 90.883 264.842C92.3562 262.911 92.037 259.857 90.3168 259.425C88.9821 259.09 87.9197 260.236 88.5219 261.361C89.807 263.762 87.1952 264.265 73.133 264.324C67.2241 264.349 67.6656 264.549 68.0822 262.028C68.2575 260.967 68.2575 260.967 69.6983 261.147C70.8257 261.288 71.2181 261.232 71.5024 260.889C71.7787 260.556 71.9958 260.52 72.4055 260.739C73.174 261.151 73.8789 260.842 74.7351 259.72C76.7912 257.024 81.7686 255.83 84.6108 257.352C85.8803 258.031 87.2924 257.226 87.1084 255.927C86.5866 252.241 76.3302 253.388 72.6748 257.541C71.5973 258.765 71.5973 258.765 70.5952 258.346C68.4779 257.462 66.1014 258.073 65.3248 259.701C64.287 261.878 51.728 263.185 44.8081 261.836C43.064 261.496 43.064 261.496 43.064 259.727C43.064 256.551 44.2436 255.925 49.7378 256.186C55.0528 256.438 61.2031 253.995 61.2031 251.632C61.2031 250.769 67.6011 250.407 68.1219 251.242C68.7528 252.251 70.6951 251.593 70.6892 250.371C70.6881 250.153 70.0784 247.429 69.3338 244.318C67.8087 237.946 67.7167 238.555 70.2416 238.319C71.0894 238.239 71.4684 238.359 71.9732 238.863C72.5394 239.43 72.8913 239.509 74.8235 239.509C80.3814 239.509 80.4584 239.551 80.4584 242.563C80.4584 245.566 80.63 245.928 82.056 245.928C83.2373 245.928 83.5281 245.244 83.5281 242.469C83.5281 240.442 83.5281 240.442 85.1009 240.727C88.5099 241.345 88.7292 238.408 85.325 237.726C83.0938 237.279 82.6655 194.745 84.6516 170.871C85.0127 166.53 85.0844 164.496 84.8846 164.255C84.6362 163.956 85.0476 157.827 85.3364 157.522C85.3794 157.476 91.0494 164.759 97.9361 173.706C112.834 193.06 111.831 191.961 113.205 190.442C113.978 189.588 113.877 189.429 106.651 180.069C100.539 172.151 97.0188 165.788 101.662 171.049C103.871 173.552 110.876 182.704 110.876 183.087C110.876 183.636 111.69 184.534 112.188 184.534C112.348 184.534 114.946 187.598 117.961 191.342C124.185 199.074 125.775 200.202 128.437 198.777C128.823 198.57 129.086 198.666 129.583 199.196C130.321 199.981 131.286 200.083 131.926 199.444C132.839 198.531 132.45 197.866 128.996 194.436C122.705 188.191 120.407 185.58 121.661 186.104C126.039 187.933 139.62 195.394 139.62 195.97C139.62 196.077 138.961 196.52 138.155 196.953C135.959 198.133 129.84 201.82 128.806 202.587C127.775 203.351 127.621 204.289 128.409 205.002C129.203 205.72 129.513 205.611 133.44 203.235C139.049 199.841 145.329 196.426 151.266 193.542C158.656 189.952 158.665 189.905 152.673 186.175C142.754 180 130.314 174.845 129.523 176.581C128.895 177.958 129.453 178.425 133.656 180.042C139.761 182.391 152.178 188.741 152.178 189.514C152.178 191.003 142.619 194.228 141.132 193.241C132.428 187.459 118.773 180.993 117.589 182.092C117.285 182.374 117.255 182.367 117.435 182.052C117.557 181.838 119.616 180.724 122.01 179.577C126.664 177.348 126.772 177.269 126.779 176.087C126.789 174.173 125.381 174.483 118.595 177.884C116.778 178.795 115.194 179.503 115.077 179.456C114.696 179.305 108.022 171.408 104.074 166.437C100.32 161.71 100.207 161.597 99.292 161.704C97.9511 161.861 97.5194 160.918 98.5227 160.024C99.0688 159.538 99.1868 159.226 99.0613 158.598C98.838 157.482 99.6202 157.183 100.019 158.232C100.683 159.978 103.062 159.852 103.062 158.07C103.062 156.561 101.387 154.786 98.3184 153.045C96.7835 152.175 96.7835 152.175 96.7835 149.587C96.7835 144.613 93.1772 139.645 90.2426 140.576C88.6087 141.095 88.8448 142.949 90.6316 143.632C92.8362 144.474 94.1871 147.169 93.7016 149.758C93.518 150.737 93.518 150.737 92.1405 150.194C90.6199 149.595 89.2424 149.489 88.9575 149.95C88.1767 151.213 87.9643 154.895 88.6003 156.139C89.0764 157.071 88.5632 156.62 87.4104 155.093C86.5085 153.898 86.0848 153.558 85.4988 153.558C84.8288 153.558 83.8071 151.671 83.8071 150.433C83.8071 150.353 84.4981 150.216 85.3428 150.129C88.773 149.775 91.0502 147.955 89.7969 146.57C89.1768 145.885 88.9743 145.888 86.7591 146.616C84.0569 147.503 81.4465 147.026 82.1194 145.769C82.5209 145.019 82.2709 144.151 81.5911 143.936C81.0919 143.777 80.5943 142.396 81.0363 142.396C81.7591 142.396 81.4708 140.942 79.9449 136.894C76.7527 128.427 73.8745 118.867 72.1071 110.862C71.0584 106.11 70.3016 101.949 70.4579 101.793C70.9183 101.332 78.784 100.391 78.7851 100.795C78.8175 113.338 85.0537 140.721 87.8778 140.721C89.5592 140.721 89.5706 140.177 87.9995 134.994C87.2284 132.451 86.5978 130.32 86.5978 130.258C86.5978 130.196 87.6599 130.145 88.9578 130.145C101.959 130.145 105.277 116.598 97.7767 94.1401C94.951 85.6781 92.1159 80.0636 88.8174 76.3973C86.2891 73.5866 82.4205 68.4395 82.4205 67.8859C82.4202 66.1052 85.6397 68.8372 89.7565 74.1112C106.536 95.6085 107.891 128.639 92.1154 131.645C90.0944 132.03 89.6792 132.325 89.6716 133.376C89.6605 134.99 91.4364 135.188 95.1597 133.989C109.792 129.275 109.589 96.9115 94.7941 75.7437C91.5028 71.0345 85.6241 64.6326 83.8096 63.7809C82.9716 63.3877 82.6755 63.0439 82.4177 62.1651C81.3517 58.53 78.2248 55.8775 76.8585 57.4489ZM12.292 78.2494C16.2633 78.8681 16.2633 78.8681 16.5304 79.7257C17.3771 82.4457 21.8736 98.9366 21.7907 99.0192C20.5818 100.228 14.1388 96.9701 13.9812 95.0699C13.7869 92.7275 12.3503 91.1424 10.1544 90.848C8.96725 90.6886 8.96669 90.6881 9.12939 89.6823C9.98109 84.4153 8.95776 81.5599 6.21792 81.5599C5.76277 81.5599 5.3905 81.5058 5.3905 81.4394C5.3905 81.3733 5.02381 80.3248 4.57592 79.1098C3.76133 76.9004 3.76133 76.9004 6.041 77.2657C7.29482 77.4664 10.1078 77.9092 12.292 78.2494ZM103.125 188.302C99.901 190.851 99.9146 190.899 104.925 194.586C126.931 210.784 145.699 231.705 159.448 255.364C161.946 259.662 162.338 260.071 163.47 259.555C164.853 258.925 164.687 258.272 161.966 253.623C148.226 230.149 129.114 208.719 108.115 193.241C104.765 190.771 104.765 190.771 106.146 189.74C107.704 188.578 107.953 187.654 106.907 186.922C105.931 186.238 105.566 186.372 103.125 188.302ZM158.221 193.416C157.399 194.324 157.702 194.904 162.407 201.417C172.563 215.476 191.838 244.735 193.085 247.986C193.372 248.733 189.88 253.451 186.415 256.998C184.187 259.278 184.187 259.278 182.845 257.809C178.025 252.535 165.577 255.418 167.093 261.458C167.496 263.063 169.166 262.984 170.015 261.32C172.274 256.893 178.723 256.433 181.209 260.521C181.932 261.709 181.609 261.994 180.551 261.101C176.243 257.464 170.596 259.781 170.596 265.185C170.596 267.754 171.597 269.074 174.306 270.076C175.238 270.421 175.556 270.66 175.353 270.863C174.74 271.475 175.009 272.991 175.783 273.285C178.407 274.283 182.76 269.448 182.551 265.768C182.467 264.282 182.519 264.075 183.014 263.949C183.321 263.871 184.46 263.017 185.546 262.053C189.149 258.851 191.256 256.388 195.688 250.197C196.629 248.882 196.934 247.462 196.355 247.089C196.197 246.988 194.333 244.079 192.213 240.626C184.111 227.432 174.715 213.328 165.124 199.962C159.752 192.477 159.385 192.129 158.221 193.416ZM103.062 195.697C102.14 196.619 101.838 196.133 122.074 226.196C141.643 255.269 141.643 255.27 141.678 258.203C141.749 264.206 149.389 272.139 151.183 268.073C151.367 267.657 151.777 267.43 152.532 267.329C153.128 267.249 153.83 266.99 154.092 266.753C154.526 266.36 155.171 266.554 161.396 268.943C168.85 271.803 169.237 271.855 169.424 270.011C169.545 268.817 151.943 261.358 149.918 261.745C149.119 261.897 148.409 261.227 148.215 260.136C148.075 259.348 105.883 196.423 104.961 195.627C104.227 194.993 103.749 195.01 103.062 195.697ZM66.1003 243.835C66.4215 245.216 66.7698 246.683 66.8742 247.094C67.0639 247.842 67.0639 247.842 64.5778 247.931C63.2106 247.981 62.1413 247.941 62.2018 247.844C62.2621 247.747 62.064 247.353 61.7615 246.968C61.2795 246.356 61.2625 246.226 61.6256 245.924C62.1424 245.496 62.1468 244.539 61.6406 242.637C61.2477 241.161 61.2477 241.161 63.3817 241.242C65.516 241.323 65.516 241.323 66.1003 243.835ZM76.2063 249.713C75.0013 250.367 74.4471 251.656 75.0049 252.507C75.5541 253.345 76.8166 253.411 77.5162 252.638C77.8692 252.249 78.2301 252.138 78.7862 252.249C79.6282 252.417 80.7374 251.6 80.7374 250.811C80.7374 249.442 77.9513 248.766 76.2063 249.713Z" fill="#FFE1B4"/>
<path fill-rule="evenodd" clip-rule="evenodd" d="M72.6011 0.446185C68.8642 1.8415 66.34 4.82217 65.8056 8.47035C65.3432 11.6274 68.0705 11.482 68.8884 8.30598C70.2612 2.97533 76.7586 1.29202 80.2441 5.36411C83.9587 9.70381 80.9453 15.9802 75.1467 15.9802C72.0435 15.9802 71.8231 16.5113 73.2346 20.587C75.0744 25.8998 74.6932 30.146 72.1476 32.6966C70.6429 34.2041 70.6429 34.2041 69.8995 32.7248C68.0501 29.0434 63.4886 28.0215 61.6219 30.8702C60.631 32.3829 62.1527 33.6136 63.603 32.4728C65.8486 30.7063 68.8337 33.7744 67.53 36.5086C66.8775 37.8766 65.8712 38.4247 64.0886 38.3831C62.146 38.3376 61.3585 39.184 62.1787 40.4356C62.5551 41.0105 62.6187 41.4823 62.47 42.5983C61.5781 49.2819 61.8 54.629 62.981 54.9254C64.5956 55.3306 64.6899 55.0509 65.0745 48.7198C65.5642 40.6563 65.4557 41.0964 67.1638 40.2483C67.9533 39.8565 68.8686 39.1268 69.2141 38.6139C69.6051 38.034 70.4643 37.3916 71.5122 36.896C76.957 34.321 78.8529 28.2866 76.5376 20.9018C76.242 19.9599 75.999 19.1679 75.997 19.1417C75.995 19.1158 76.4014 19.0072 76.9003 18.9009C82.879 17.6264 86.5548 10.7955 84.029 5.65294C81.9226 1.36374 76.6174 -1.0535 72.6011 0.446185ZM51.994 2.76408C46.6044 3.77457 41.6352 7.41298 43.6843 8.8482C44.565 9.46521 44.7953 9.41414 46.7113 8.17566C51.1001 5.33927 56.1716 4.8004 61.0828 6.64891C62.9642 7.35717 64.2727 6.91486 64.2727 5.57117C64.2727 3.81642 56.2109 1.97322 51.994 2.76408ZM40.863 11.1198C39.3109 13.093 38.3113 18.5191 39.2989 19.6103C40.6088 21.058 41.8107 19.9878 42.0334 17.1752C42.121 16.0673 42.4517 14.5757 42.7679 13.8607C43.9213 11.2532 42.4375 9.11833 40.863 11.1198ZM47.0415 10.8625C44.7322 11.7948 42.6839 21.6558 44.5131 23.0338C45.8557 24.0454 46.6918 23.1792 46.6918 20.7765C46.6918 18.379 47.3049 16.0215 48.4831 13.8884C48.9924 12.9669 49.3482 12.0245 49.274 11.7943C48.9882 10.9068 47.9769 10.4849 47.0415 10.8625ZM51.5849 12.3923C48.1019 16.5314 46.8296 26.0265 49.7581 26.0265C50.8493 26.0265 51.0496 25.5543 51.238 22.5382C51.4693 18.8342 51.6058 18.6986 52.7338 21.0519C53.4178 22.4793 54.2413 23.5922 55.6039 24.9309C57.515 26.8078 57.515 26.8078 57.131 28.4404C56.6016 30.6896 56.6448 33.0508 57.2959 37.468C58.7289 47.1931 58.0558 50.469 54.1478 52.7858C51.2525 54.5023 52.2139 56.9823 55.2261 55.5675C60.5944 53.0459 61.9802 47.7987 60.2277 36.6308C59.4595 31.7361 59.7525 28.7046 61.0635 27.9819C62.5654 27.1533 62.3835 25.996 60.5902 24.9736C56.2798 22.5153 53.9298 18.4147 54.3295 14.0483C54.5764 11.3508 53.1733 10.5042 51.5849 12.3923ZM48.1429 28.5938C47.7782 28.9586 47.6878 30.2783 48.0059 30.5964C48.1147 30.7052 48.1689 31.2781 48.1262 31.8695C48.0023 33.5868 49.8597 34.5569 50.6983 33.2123C52.2521 30.7211 50.0305 26.7063 48.1429 28.5938ZM38.8214 30.9603C37.9323 31.1944 37.7283 32.736 38.4759 33.5734C38.8035 33.9404 38.791 34.3417 38.3908 36.2764C37.0686 42.6703 43.6277 52.3239 47.9548 50.3524C49.6886 49.5623 49.1026 48.1346 46.5709 46.9813C42.3811 45.0722 40.0465 40.017 41.5336 36.0727C42.4612 33.6117 42.4143 33.2469 41.0011 31.9443C40.3007 31.2988 39.6307 30.785 39.5121 30.8029C39.3937 30.8208 39.0829 30.8916 38.8214 30.9603ZM53.0952 38.759C51.9683 39.9447 50.4318 40.6929 48.5596 40.9672C46.4842 41.2717 45.7502 43.0886 47.3992 43.8402C50.563 45.2815 58.0946 40.0502 55.669 38.0959C54.9241 37.4957 54.092 37.71 53.0952 38.759ZM66.282 52.5932C65.8695 53.0057 65.8408 54.3923 66.2399 54.6388C67.6064 55.4835 58.8941 60.6891 50.6176 63.9728C44.7353 66.3069 45.0559 66.3262 46.8344 63.7443C48.7719 60.9313 48.7407 59.793 46.7256 59.793C45.328 59.793 42.1193 64.7556 42.2784 66.6714C42.5086 69.4433 44.6516 69.5697 50.7856 67.1737C59.774 63.6628 66.7759 59.7007 68.951 56.895C70.6792 54.6655 68.2022 50.673 66.282 52.5932ZM76.986 57.3437C76.3492 58.2526 76.4268 58.5177 77.773 60.0336C79.8989 62.4271 80.2912 64.3538 79.3296 67.6799C78.4941 70.5702 80.9741 71.0655 82.1897 68.2509C82.8792 66.6541 82.8792 66.6541 85.4257 69.2396C105.625 89.7493 109.756 128.284 92.1154 131.645C90.0944 132.03 89.6792 132.325 89.6716 133.376C89.6605 134.99 91.4364 135.188 95.1597 133.989C109.792 129.275 109.589 96.9114 94.7941 75.7437C91.5028 71.0345 85.6241 64.6326 83.8096 63.7809C82.9716 63.3877 82.6755 63.0438 82.4177 62.1651C81.403 58.7055 78.0911 55.7656 76.986 57.3437ZM70.1392 59.6624C61.0278 66.2595 55.9583 71.6476 53.0756 77.799C49.298 85.8609 50.6662 89.881 55.2395 84.1563C60.2824 77.8442 67.6935 71.0655 73.7609 67.2158C76.3495 65.5733 76.7318 64.8871 75.7403 63.6625C74.6394 62.3029 67.4543 67.3347 59.5532 74.9992C56.0183 78.428 55.852 78.5522 56.5597 77.2345C59.1419 72.4276 63.6108 68.0628 72.9237 61.2509C74.9092 59.7986 75.4274 58.6531 74.4292 57.923C73.5887 57.3086 73.138 57.4913 70.1392 59.6624ZM38.071 70.0938C35.8502 71.5003 35.9032 85.1308 38.1929 101.435C38.8766 106.303 39.4362 110.457 39.4362 110.665C39.4362 111.734 30.3808 112.046 25.6812 111.139C20.7484 110.187 15.2531 108.072 15.6009 107.26C16.3253 105.567 16.5301 104.635 16.5407 102.978C16.548 101.847 16.6711 101.094 16.8483 101.094C17.011 101.094 18.6359 101.471 20.4599 101.932C26.6713 103.5 26.5689 104.297 22.1728 88.592C18.243 74.5527 19.8052 76.4115 10.7306 74.9777C-1.51435 73.0429 -1.02906 72.8278 1.34186 79.1447C2.89094 83.2717 2.89094 83.2717 1.91366 85.2762C-0.616044 90.4654 0.223656 96.3826 4.06635 100.446C5.89003 102.374 7.09446 102.475 7.70868 100.75C7.827 100.418 7.44942 99.7721 6.50507 98.693C3.27771 95.0052 2.57057 90.3272 4.63312 86.3107C6.1236 83.4073 6.90665 84.7993 6.1769 89.0553C5.65561 92.0948 6.98674 94.5581 8.78196 93.8755C10.1262 93.3643 10.8322 94.0324 10.8322 95.815C10.8322 97.1847 10.9447 97.4793 11.889 98.5856C13.6435 100.641 14.1308 103.447 13.0882 105.493C12.7667 106.124 12.7667 106.124 11.1018 104.918C7.45585 102.276 5.10837 104.016 8.61033 106.764C16.3365 112.828 28.1118 115.932 37.5318 114.388C41.2646 113.776 40.7341 126.762 36.6452 136.085C35.2432 139.282 35.2996 139.607 37.4275 140.593C45.2515 144.217 59.9462 146.492 60.1197 144.106C60.2319 142.565 59.6439 142.117 57.5108 142.117C52.3861 142.117 39.1571 139.176 39.1571 138.037C39.1571 137.969 39.4549 137.196 39.8185 136.318C42.7617 129.215 43.6782 119.714 42.3546 110.024C42.2812 109.487 41.7253 105.469 41.1195 101.094C39.0494 86.153 38.8565 77.9531 40.4279 71.6923C40.7338 70.4745 39.1579 69.4056 38.071 70.0938ZM76.2895 70.9385C75.5229 71.7051 75.5273 71.7344 76.969 75.3885C79.2018 81.0476 80.6719 87.1978 81.3048 93.5295C81.6857 97.3407 83.0316 96.6182 72.3946 98.3121C61.3339 100.073 62.6759 100.99 62.1957 91.343C61.7715 82.8191 61.7601 82.78 59.7611 82.9223C58.9072 82.9829 58.8204 84.273 59.1706 91.6852C59.7126 103.161 60.0528 103.663 66.385 102.34C67.2414 102.161 67.2414 102.161 68.1696 106.86C71.6729 124.598 78.0116 143.073 80.4132 142.545C81.7842 142.244 81.7342 141.641 79.9449 136.894C76.7527 128.427 73.8745 118.867 72.1071 110.862C71.0584 106.11 70.3016 101.949 70.4579 101.793C70.9183 101.332 78.784 100.391 78.7851 100.795C78.8175 113.338 85.0537 140.721 87.8778 140.721C89.5659 140.721 89.5737 140.179 87.9624 134.937C85.8259 127.987 85.5552 126.99 84.6468 122.722C83.3765 116.754 82.0465 106.756 81.8079 101.38C81.7401 99.8511 81.7401 99.8511 82.9122 99.6192C85.0713 99.1922 84.8402 91.6801 82.3912 82.6762C79.6031 72.4262 77.961 69.2669 76.2895 70.9385ZM12.292 78.2494C16.2633 78.8681 16.2633 78.8681 16.5304 79.7257C17.3771 82.4457 21.8736 98.9366 21.7907 99.0192C20.5818 100.228 14.1388 96.9701 13.9812 95.0699C13.7869 92.7275 12.3503 91.1424 10.1544 90.848C8.96725 90.6886 8.96669 90.6881 9.12939 89.6823C9.98109 84.4153 8.95776 81.5599 6.21792 81.5599C5.76277 81.5599 5.3905 81.5058 5.3905 81.4394C5.3905 81.3732 5.02381 80.3248 4.57592 79.1098C3.76133 76.9004 3.76133 76.9004 6.041 77.2657C7.29482 77.4664 10.1078 77.9092 12.292 78.2494ZM89.6674 141C88.6157 142.052 88.9737 142.96 90.7159 143.657C92.858 144.514 94.1791 147.213 93.7016 149.758C93.518 150.737 93.5179 150.737 92.1045 150.18C90.1898 149.425 89.0619 149.556 88.7064 150.573C88.3031 151.727 88.7488 152.194 91.0162 152.994C92.7659 153.612 92.9852 153.766 92.8133 154.256C92.4478 155.298 92.5781 156.687 93.0712 157.002C93.8548 157.502 95.0478 156.909 95.3455 155.871C95.6882 154.675 99.9928 156.803 99.9928 158.167C99.9928 159.194 101.959 159.852 102.728 159.084C104.014 157.798 102.116 155.2 98.3184 153.045C96.7835 152.174 96.7835 152.174 96.7835 149.587C96.7835 145.321 95.398 142.657 92.4025 141.164C90.6592 140.296 90.3883 140.279 89.6674 141ZM79.7055 144.21C75.4729 147.174 83.1695 151.734 88.3316 149.321C91.7643 147.716 90.4876 145.312 86.8768 146.582C84.5232 147.41 81.5777 147.103 82.0024 146.074C82.4355 145.025 82.4341 144.69 81.9949 144.251C81.4217 143.678 80.4888 143.661 79.7055 144.21ZM42.9482 144.602C42.5033 145.093 42.4905 145.557 42.7799 150.671C44.0876 173.798 48.1594 198.238 56.9646 235.812C57.5041 238.114 57.5041 238.114 56.625 238.114C53.713 238.114 53.7253 240.918 56.6387 241.179C58.2394 241.323 58.2394 241.323 58.7119 243.488C58.9717 244.678 59.3325 245.831 59.5136 246.049C59.7684 246.356 59.7542 246.624 59.45 247.233C59.2343 247.666 58.8991 248.607 58.7054 249.322C57.9277 252.198 56.0677 252.94 49.0638 253.168C42.9607 253.366 42.1601 253.687 40.6615 256.532C40.0453 257.702 39.922 262.419 40.4815 263.41C41.7808 265.709 57.5694 266.055 64.2633 263.93C64.6785 263.799 64.7882 264.007 64.9514 265.239C65.2528 267.51 64.9553 267.418 71.9112 267.399C86.3561 267.36 89.2614 266.968 90.883 264.842C92.3562 262.911 92.037 259.857 90.3168 259.425C88.9821 259.09 87.9197 260.236 88.5219 261.361C89.807 263.762 87.1952 264.265 73.133 264.324C67.2241 264.349 67.6656 264.549 68.0822 262.028C68.2575 260.967 68.2575 260.967 69.6983 261.147C70.8257 261.288 71.2181 261.232 71.5024 260.889C71.7787 260.556 71.9958 260.52 72.4055 260.739C73.174 261.151 73.8789 260.842 74.7351 259.72C76.7912 257.024 81.7686 255.83 84.6108 257.352C85.8803 258.031 87.2924 257.226 87.1084 255.927C86.5866 252.241 76.3302 253.388 72.6748 257.541C71.5973 258.765 71.5973 258.765 70.5952 258.346C68.4779 257.462 66.1014 258.073 65.3248 259.701C64.287 261.878 51.728 263.185 44.8081 261.836C43.064 261.496 43.064 261.496 43.064 259.727C43.064 256.551 44.2436 255.925 49.7378 256.186C55.0528 256.438 61.2031 253.995 61.2031 251.632C61.2031 250.769 67.6011 250.407 68.1219 251.241C68.5603 251.943 69.6274 251.943 70.2625 251.241C70.8821 250.557 70.9421 250.89 68.1718 239.649C59.9972 206.479 56.3856 185.565 55.3419 165.354C54.9858 158.46 54.9414 158.321 53.2252 158.752C52.0942 159.036 52.0406 160.907 52.8552 171.697C54.0911 188.067 58.8224 214.405 64.7003 237.638C64.8976 238.418 64.8976 238.418 62.7122 238.336C60.5341 238.254 60.526 238.251 60.346 237.416C60.2467 236.956 58.9588 231.179 57.484 224.58C50.3146 192.493 46.9658 171.783 45.8649 152.721C45.4011 144.689 45.4207 144.851 44.8611 144.442C44.1532 143.924 43.513 143.978 42.9482 144.602ZM84.2955 153.859C83.0978 154.557 82.3217 153.427 97.9724 173.774C112.55 192.725 111.841 191.949 113.205 190.442C113.978 189.588 113.877 189.429 106.614 180.042C93.4722 163.061 90.3456 159.004 88.2995 156.279C86.1714 153.445 85.6001 153.1 84.2955 153.859ZM95.9464 158.239C94.0646 159.265 93.8124 161.372 95.5713 161.372C97.6623 161.372 99.7531 159.146 98.7269 158.012C98.0742 157.291 97.6163 157.328 95.9464 158.239ZM98.2079 162.252C97.5948 163.128 100.586 167.221 109.252 177.368C112.546 181.225 112.546 181.225 111.711 181.928C110.206 183.194 111.129 185.004 112.913 184.287C113.405 184.089 114.003 183.868 114.243 183.793C114.533 183.704 115.698 184.765 117.718 186.957C127.703 197.792 130.829 200.54 131.926 199.444C132.839 198.531 132.45 197.866 128.996 194.436C122.705 188.191 120.407 185.58 121.661 186.104C126.039 187.933 139.62 195.394 139.62 195.969C139.62 196.077 138.961 196.52 138.155 196.953C135.959 198.132 129.84 201.82 128.806 202.587C127.775 203.351 127.621 204.289 128.409 205.002C129.203 205.72 129.513 205.611 133.44 203.235C139.049 199.841 145.329 196.426 151.266 193.542C158.656 189.952 158.665 189.905 152.673 186.175C142.754 180 130.314 174.845 129.523 176.581C128.895 177.958 129.453 178.425 133.656 180.042C139.761 182.391 152.178 188.741 152.178 189.514C152.178 191.003 142.619 194.228 141.132 193.241C132.428 187.459 118.773 180.993 117.589 182.092C117.285 182.374 117.255 182.367 117.435 182.052C117.557 181.838 119.616 180.724 122.01 179.577C126.664 177.348 126.772 177.269 126.779 176.087C126.789 174.173 125.381 174.483 118.595 177.884C116.778 178.795 115.194 179.503 115.077 179.456C114.697 179.306 108.026 171.413 104.096 166.465C99.9671 161.265 99.2558 160.756 98.2079 162.252ZM83.1921 163.94C82.2176 164.276 82.2257 164.24 81.7253 170.302C80.8103 181.38 80.6811 185.813 80.5407 210.913C80.3956 236.874 80.3956 236.874 78.4036 236.674C73.3568 236.168 71.5284 236.513 71.5284 237.975C71.5284 239.067 72.5006 239.509 74.8983 239.509C80.3721 239.509 80.4584 239.557 80.4584 242.563C80.4584 245.566 80.63 245.928 82.056 245.928C83.2373 245.928 83.5281 245.244 83.5281 242.469C83.5281 240.442 83.5281 240.442 85.1009 240.727C88.5099 241.345 88.7292 238.408 85.325 237.726C83.0944 237.279 82.6655 194.746 84.651 170.878C84.9373 167.435 85.1089 164.516 85.0319 164.392C84.7213 163.889 83.9143 163.691 83.1921 163.94ZM103.125 188.302C99.901 190.851 99.9146 190.899 104.925 194.586C126.931 210.784 145.699 231.705 159.448 255.364C161.946 259.662 162.338 260.071 163.47 259.555C164.853 258.925 164.687 258.272 161.966 253.623C148.226 230.149 129.114 208.719 108.115 193.241C104.765 190.771 104.765 190.771 106.146 189.74C107.704 188.578 107.953 187.654 106.907 186.922C105.931 186.238 105.566 186.372 103.125 188.302ZM158.221 193.416C157.399 194.324 157.702 194.904 162.407 201.417C172.563 215.476 191.838 244.735 193.085 247.986C193.372 248.733 189.88 253.451 186.415 256.998C184.187 259.278 184.187 259.278 182.845 257.809C178.025 252.535 165.577 255.418 167.093 261.458C167.496 263.063 169.166 262.984 170.015 261.32C172.274 256.893 178.723 256.433 181.209 260.521C181.932 261.709 181.609 261.994 180.551 261.101C177.12 258.204 172.597 258.98 171.028 262.736C169.7 265.912 171.628 270.329 173.926 269.377C175.112 268.885 175.177 268.344 174.229 266.866C172.052 263.474 175.717 260.68 178.747 263.422C180.577 265.078 179.421 268.685 176.568 270.219C173.823 271.695 174.866 274.284 177.7 273.031C180.699 271.705 182.717 268.683 182.551 265.768C182.467 264.282 182.519 264.075 183.014 263.949C183.321 263.871 184.46 263.017 185.546 262.053C189.149 258.851 191.256 256.388 195.688 250.197C196.629 248.882 196.934 247.462 196.355 247.089C196.197 246.988 194.333 244.079 192.213 240.626C184.111 227.432 174.715 213.328 165.124 199.962C159.752 192.477 159.385 192.129 158.221 193.416ZM103.062 195.697C102.14 196.619 101.838 196.133 122.074 226.196C141.643 255.269 141.643 255.269 141.678 258.203C141.74 263.441 144.563 267.338 149.192 268.576C152.085 269.35 152.253 266.967 149.406 265.537C147.28 264.47 145.959 263.262 145.198 261.689C144.426 260.094 144.51 259.565 145.364 260.648C146.47 262.052 148.517 261.666 148.219 260.11C148.071 259.331 105.849 196.394 104.961 195.627C104.227 194.992 103.749 195.01 103.062 195.697ZM66.1003 243.835C66.4215 245.216 66.7698 246.683 66.8742 247.094C67.0639 247.842 67.0639 247.842 64.5778 247.931C63.2106 247.981 62.1413 247.941 62.2018 247.844C62.2621 247.747 62.064 247.353 61.7615 246.968C61.2795 246.356 61.2625 246.226 61.6256 245.924C62.1424 245.496 62.1468 244.539 61.6406 242.637C61.2477 241.161 61.2477 241.161 63.3817 241.242C65.516 241.323 65.516 241.323 66.1003 243.835ZM76.2063 249.713C75.0013 250.367 74.4471 251.656 75.0049 252.507C75.5541 253.345 76.8166 253.411 77.5162 252.638C77.8692 252.249 78.2301 252.138 78.7862 252.249C79.6282 252.417 80.7374 251.6 80.7374 250.811C80.7374 249.442 77.9513 248.766 76.2063 249.713ZM149.875 261.857C149.291 262.197 149.208 263.85 149.752 264.302C150.917 265.268 168.244 271.552 168.782 271.203C169.438 270.777 169.666 269.314 169.144 268.88C168.867 268.65 150.616 261.524 150.408 261.564C150.383 261.568 150.144 261.7 149.875 261.857Z" fill="#5B5B5B"/>
</svg>
