<svg width="266" height="279" viewBox="0 0 266 279" fill="none" xmlns="http://www.w3.org/2000/svg">
<path fill-rule="evenodd" clip-rule="evenodd" d="M53.3867 0.279846C51.8387 0.783275 50.3712 1.72567 49.2633 2.92759C48.0951 4.19482 48.0951 4.19482 47.122 3.78822C39.3144 0.525979 30.0571 16.31 35.0961 24.2924C36.9784 27.2739 39.1152 25.4798 37.4924 22.2803C34.1515 15.6928 42.7748 2.461 47.1723 7.42804C48.5025 8.93079 49.3074 8.78428 50.2113 6.87521C52.4214 2.20761 57.8869 1.51051 60.6504 5.54352C61.561 6.87242 62.7649 7.56534 64.1663 7.56645C66.796 7.56896 67.6298 14.2414 65.4885 18.1502C64.3748 20.1837 64.4259 20.5719 65.9409 21.5849C67.9186 22.9074 67.7021 25.3773 65.6242 25.1985C64.2495 25.0799 63.6099 25.7449 63.8172 27.0774C64.6402 32.3651 64.2582 37.5261 62.7041 42.1164C61.6548 45.2151 61.6623 45.8176 62.7565 46.3163C65.0211 47.348 67.6767 38.4846 67.2595 31.2879C67.1057 28.6368 67.1057 28.6368 68.2178 27.8591C70.7511 26.087 71.117 22.3704 68.9791 20.1254C68.3319 19.4459 68.3266 19.4023 68.777 18.4505C71.2141 13.2995 68.9249 4.49788 65.1486 4.49788C63.9353 4.49788 63.7335 4.39016 62.449 3.05959C60.1205 0.646813 56.0746 -0.594178 53.3867 0.279846ZM55.6192 12.0622C52.2721 15.1575 48.5662 17.3007 44.3149 18.5992C41.1685 19.5606 41.1839 19.5447 40.6994 22.3012C40.4778 23.5604 40.0397 25.1717 39.7257 25.8816C39.022 27.4726 39.0102 28.0011 39.6649 28.5935C41.195 29.9783 42.9492 27.6043 43.5735 23.3042C43.759 22.0255 43.759 22.0255 45.7125 21.4049C52.8227 19.1456 60.9727 12.6817 59.0877 10.7966C58.3189 10.0281 57.4923 10.3297 55.6192 12.0622ZM152.873 21.0932C146.051 22.5809 140.859 27.8616 141.949 32.2035C142.417 34.0707 144.903 33.6543 144.916 31.7065C144.971 23.8894 159.09 20.9824 167.074 27.1444C173.044 31.7525 174.629 37.9045 172.563 48.4503C170.318 59.9091 171.663 65.7424 177.899 71.6094C181.71 75.1937 187.817 77.6489 188.72 75.9597C189.421 74.6509 189.037 74.1921 186.473 73.2732C176.244 69.6074 172.917 62.0939 175.584 48.6861C177.03 41.4187 176.995 38.3406 175.419 33.9705C172.065 24.6719 162.227 19.053 152.873 21.0932ZM58.2597 23.1061C57.7136 23.6522 57.8057 25.9556 58.402 26.6742C59.4577 27.9461 61.3414 26.6574 61.0305 24.8759C60.6711 22.8181 59.3754 21.9904 58.2597 23.1061ZM45.3037 24.851C44.4388 26.4671 45.3628 28.7615 46.8826 28.7721C48.2525 28.7816 48.675 26.6089 47.6282 24.9392C47.1215 24.1311 45.7175 24.0778 45.3037 24.851ZM35.1198 26.4682C29.1518 27.9844 33.2456 36.726 39.9219 36.7226C41.4707 36.7218 42.2242 36.8262 42.2242 37.0419C42.2242 39.0662 47.4471 45.8689 49.0012 45.8689C51.1299 45.8689 51.0526 44.5612 48.7788 42.1055C46.6644 39.8216 45.187 37.0369 44.6077 34.2432C43.965 31.1428 41.9329 30.1856 41.4144 32.7387C41.164 33.9719 39.2441 34.1994 37.4759 33.2053C35.755 32.2384 34.5854 29.3345 35.9165 29.3345C37.1031 29.3345 37.6992 27.1089 36.6614 26.5536C36.0943 26.2503 35.9991 26.245 35.1198 26.4682ZM53.3169 26.8452C51.9085 27.6657 53.8848 35.2645 55.5067 35.2645C57.1485 35.2645 57.2824 34.4248 56.3026 30.2774C55.4071 26.488 54.9107 25.9171 53.3169 26.8452ZM151.338 29.817C148.823 30.7744 152.613 45.5134 156.233 48.8496C157.278 49.8135 157.492 50.1665 157.357 50.7059C157.24 51.1706 157.368 51.5501 157.779 51.9617C158.427 52.6094 158.575 52.596 161.31 51.6366C162.727 51.1393 163.128 51.091 163.473 51.3771C164.508 52.2357 163.35 53.7148 161.156 54.3368C157.636 55.335 158.215 59.1858 162.97 66.3987C163.936 67.8632 164.686 69.1009 164.638 69.1495C164.392 69.3948 157.637 73.0337 155.942 73.8332C147.403 77.8626 147.236 77.5939 154.765 71.942C158.077 69.4559 158.457 68.8578 157.617 67.4421C157.339 66.973 156.505 65.4117 155.764 63.9726C153.869 60.2906 153.422 59.9234 152.323 61.1384C151.551 61.9912 151.717 62.8426 153.206 65.6709C154.586 68.2919 154.586 68.2919 152.892 69.5329C143.841 76.1654 141.261 80.8907 146.645 80.9756C148.161 80.9996 140.306 84.8523 138.107 85.1632C137.182 85.2941 136.358 85.2999 136.277 85.1763C135.502 84.0014 126.854 84.2026 118.125 85.5988C117.037 85.7727 117.037 85.7727 117.196 84.7912C117.349 83.8491 117.294 83.7701 115.822 82.8283C109.354 78.6909 110.707 69.8105 118.123 67.7299C121.39 66.8129 120.732 64.0359 117.422 64.7776C107.37 67.0302 105.518 81.5273 114.755 85.6624C115.744 86.1056 115.803 86.191 115.447 86.6768C114.79 87.576 115.006 88.3018 116.448 90.0356C117.938 91.8275 118.168 92.3136 117.31 91.8543C116.269 91.297 115.632 91.5283 114.746 92.7858C113.901 93.9846 113.853 94.0084 112.018 94.1398C108.283 94.4071 103.084 98.1248 101.106 101.942C99.7103 104.637 102.236 105.463 104.008 102.891C107.065 98.4527 113.874 95.3342 115.337 97.7026C115.72 98.3213 115.534 98.4108 111.314 99.6435C109.177 100.267 107.404 100.809 107.375 100.846C106.434 102.043 106.89 103.438 108.286 103.637C109.06 103.747 109.06 103.747 108.147 104.104C107.042 104.536 106.593 105.288 106.82 106.323C107.187 107.993 100.087 110.213 99.5721 108.59C98.8943 106.454 96.2507 106.786 96.2507 109.007C96.2507 110.495 97.8004 111.714 100.174 112.094C101.246 112.265 101.246 112.265 101.248 115.659C101.255 125.378 110.726 132.434 125.841 133.982C132.671 134.682 139.528 132.04 138.415 129.138C138.294 128.824 139.493 128.728 145.152 128.599C156.496 128.339 165.524 127.056 171.463 124.861C174.252 123.83 174.383 123.366 172.619 120.755C170.114 117.047 169.863 115.753 171.581 115.409C172.406 115.244 172.415 115.256 172.916 117.199C174.013 121.457 175.524 123.27 177.709 122.947C179.471 122.687 183.526 121.303 184.205 120.73C184.296 120.654 182.024 112.412 181.865 112.241C181.807 112.178 181.538 112.32 181.269 112.557C179.986 113.683 178.055 113.493 178.826 112.315C179.442 111.375 179.255 110.29 178.361 109.626C177.408 108.918 176.326 109.159 175.788 110.2C175.467 110.821 174.921 111.12 172.922 111.769C171.564 112.21 170.297 112.63 170.105 112.702C169.858 112.795 169.756 112.468 169.756 111.582C169.756 110.174 169.317 109.635 168.172 109.635C167.139 109.635 166.686 110.394 166.686 112.125C166.686 113.427 166.612 113.618 166.058 113.744C152.234 116.893 137.223 117.911 137.519 115.679C139.974 97.1964 154.034 81.9434 171.849 78.4375C174.111 77.9924 174.5 77.7493 174.5 76.7812C174.5 75.8827 173.649 75.1007 172.671 75.1007C171.797 75.1007 170.264 73.1172 170.771 72.6427C171.472 71.9889 171.171 71.1877 169.725 69.8563C166.856 67.2153 163.777 62.4863 162.489 58.7407C161.996 57.3108 161.996 57.3108 163.383 56.6614C168.279 54.3678 167.965 48.333 162.947 48.3018C162.141 48.2968 161.289 48.1154 160.982 47.8832C160.684 47.658 160.129 47.4735 159.748 47.4735C157.397 47.4735 154.247 39.9868 153.656 32.9919C153.435 30.3835 152.655 29.3152 151.338 29.817ZM1.77629 34.5861C-1.62241 38.1587 -0.0384544 43.1913 5.6254 46.8161C5.67926 46.8507 5.41555 47.2952 5.03965 47.8039C3.91586 49.3248 3.35997 51.0849 3.29356 53.3339C3.25532 54.6343 3.05942 55.7438 2.77673 56.264C0.940777 59.6412 6.92416 64.5321 17.9653 68.679C19.8601 69.3906 20.4205 69.7305 20.6635 70.3157C24.835 80.3594 25.8256 84.2158 26.8752 94.4956C27.5779 101.378 27.7752 102.394 28.7594 104.202C31.0715 108.45 36.8305 109.479 41.7414 106.522C42.6207 105.993 43.3407 105.582 43.3413 105.609C43.3418 105.636 43.5983 106.977 43.9114 108.588C44.9305 113.833 45.7189 119.77 46.5608 128.54C46.6641 129.614 46.8326 133.363 46.9359 136.87C47.1619 144.552 46.8505 144.029 51.2005 144.029C54.2099 144.029 54.2099 144.029 53.9359 144.751C52.8573 147.587 26.5967 232.35 26.5967 232.994C26.5967 233.444 26.8746 234.174 27.2145 234.617C28.4385 236.213 32.4743 240.469 33.7976 241.56C35.0967 242.632 34.056 245.813 31.4881 248.619C30.6049 249.584 13.8257 236.011 14.0816 234.538C14.2105 233.796 14.3869 232.593 14.4734 231.864C14.6503 230.378 14.9023 230.248 15.7956 231.181C17.3636 232.819 23.6774 239.865 25.5982 242.12C28.2197 245.198 28.6553 245.448 29.5612 244.395C30.6487 243.13 30.529 242.956 22.0407 233.469C15.1322 225.748 12.091 225.429 11.3883 232.353C11.2792 233.427 11.0149 234.584 10.8006 234.924C10.0092 236.18 10.2899 236.837 12.2947 238.426C16.2909 241.594 31.3617 252.864 31.6011 252.864C32.3789 252.864 32.9501 252.169 35.0104 248.717C37.8005 244.043 37.4581 244.394 38.7105 244.918C41.776 246.199 47.5069 238.454 60.9147 214.911C73.0779 193.554 85.3168 166.025 83.4697 164.178C82.0838 162.792 81.2305 163.815 79.3303 169.145C72.6652 187.838 62.3781 207.728 46.1146 233.365C41.8447 240.096 40.4519 241.981 39.7489 241.979C38.1594 241.975 29.4959 233.517 29.7939 232.259C29.8907 231.85 35.9481 212.365 43.2545 188.958C50.5609 165.552 56.6903 145.899 56.875 145.285C57.254 144.025 56.8624 144.17 62.4562 143.224C69.9854 141.95 72.9811 140.674 72.543 138.928C72.2675 137.832 71.5556 137.793 68.4756 138.708C63.1115 140.302 53.6415 141.61 51.0261 141.12C50.038 140.934 50.038 140.934 50.038 138.039C50.038 125.014 47.2348 106.367 43.0522 91.5671C40.0308 80.8765 39.387 79.547 37.6197 80.3521C36.6309 80.8025 36.7029 81.3766 38.4206 86.7435C43.0237 101.128 43.1052 102.522 39.4475 104.329C33.5347 107.251 30.6847 104.566 30.0573 95.484C29.4328 86.441 27.8388 79.7932 24.0477 70.4184C23.6992 69.5563 23.7204 69.4673 24.4155 68.8835C25.4082 68.0499 25.9292 66.9206 26.3165 64.7637C26.4943 63.7725 26.8813 62.4118 27.1763 61.7401C28.0461 59.7598 27.781 58.636 26.4446 58.636C25.2854 58.636 24.3567 60.2789 23.6939 63.5029C22.9379 67.1804 22.1241 67.3872 17.1384 65.1686C8.44031 61.2977 4.57027 58.4756 6.12576 57.1375C6.86305 56.5032 6.86333 56.5018 6.49943 54.6706C5.97814 52.0488 6.42185 50.6194 8.3711 48.6386C10.1381 46.8431 10.2908 46.0129 8.98476 45.2977C4.79045 43.0013 3.39541 41.5443 3.23411 39.2909C3.02314 36.3434 4.09251 36.9847 10.8296 43.8454C13.8943 46.9665 15.3061 47.5213 15.8469 45.8173C16.1547 44.8481 15.8196 44.4424 10.1295 38.8924C3.80647 32.7251 3.63206 32.6352 1.77629 34.5861ZM49.4798 36.8692C48.8466 37.5023 48.8003 37.7951 49.2108 38.5622C50.0301 40.0932 55.2121 41.4223 56.263 40.3714C57.4016 39.2328 56.4006 37.7089 54.5105 37.7036C53.9691 37.7022 52.8545 37.3882 52.0335 37.0059C50.2336 36.1681 50.1836 36.1654 49.4798 36.8692ZM148.544 41.7569C147.834 42.6123 147.405 45.2994 147.866 46.0032C149.055 47.8176 151.059 45.6792 151.059 42.5961C151.059 41.5253 149.24 40.9184 148.544 41.7569ZM138.377 43.9216C137.758 44.8663 138.123 45.6691 139.504 46.4017C140.733 47.0541 140.733 47.0541 140.733 49.622C140.733 54.9053 143.138 60.0314 145.616 60.0314C147.118 60.0314 147.426 58.0852 146.1 56.9717C144.303 55.4634 143.945 54.2302 143.926 49.5032C143.916 47.166 143.854 45.2087 143.786 45.1534C142.141 43.8053 138.932 43.0747 138.377 43.9216ZM64.4075 46.8175C63.6411 47.224 60.9181 48.7159 58.3563 50.1327C53.6979 52.7085 53.6979 52.7085 53.1367 50.3272C52.5523 47.8486 52.4075 47.5575 51.7123 47.4638C49.7955 47.2056 49.5016 48.0534 50.3042 51.5264C50.6458 53.0046 50.8827 54.2481 50.8305 54.2899C50.7783 54.3315 49.2471 55.1695 47.4282 56.1521C43.6293 58.2038 43.3661 58.5501 44.1899 60.4128C44.9303 62.0864 44.9367 62.0783 40.7443 64.7539C36.2963 67.5931 35.8058 68.0103 35.8058 68.9541C35.8058 71.0711 36.9734 70.8088 41.9675 67.5697C46.2645 64.7827 46.2645 64.7827 46.8985 66.0304C48.1239 68.4415 47.3936 68.7437 59.1005 60.9807C68.4248 54.7978 68.8635 54.4158 68.0542 53.1806C67.2913 52.0164 66.6408 52.3326 57.9776 58.0779C48.2372 64.5374 49.2954 64.1459 48.1733 61.7057C47.2853 59.7743 47.2853 59.7743 48.1733 59.2402C48.6616 58.9464 53.0169 56.5403 57.8517 53.8937C68.0116 48.3319 68.4282 48.0038 67.0608 46.6363C66.3377 45.9133 66.0782 45.9309 64.4075 46.8175ZM17.4222 47.9139C7.34554 50.6242 9.78176 59.0438 20.0834 57.1112C22.8199 56.5978 21.9252 54.3304 18.8773 54.0544C13.7302 53.5881 12.9731 53.1145 15.4903 51.9366C19.9101 49.8685 23.1656 50.404 23.6247 53.2747C24.0274 55.7924 26.5967 55.8142 26.5967 53.2998C26.5967 49.3 22.0948 46.657 17.4222 47.9139ZM146.163 51.4993C145.267 52.8667 146.046 53.6584 148.916 54.2958C149.594 54.4465 149.683 54.5754 149.559 55.2278C148.952 58.4072 149.166 59.1942 150.64 59.1942C151.6 59.1942 152.118 58.525 152.319 57.0281C152.416 56.3008 152.675 55.1497 152.893 54.4702C153.658 52.0945 153.311 51.6335 150.537 51.3391C149.519 51.2314 148.228 51.0564 147.667 50.9507C146.768 50.7807 146.592 50.8446 146.163 51.4993ZM72.642 53.0548C71.8079 53.8889 71.9075 54.1842 74.1239 57.447C88.2682 78.2695 87.7988 77.4716 86.2296 78.0231C81.4526 79.7016 73.3922 83.7204 68.7731 86.7268C67.4891 87.5623 66.3857 88.193 66.321 88.1282C66.2565 88.0635 64.8394 84.2582 63.1726 79.6721C61.5058 75.0857 60.0521 71.1127 59.9427 70.8425C59.5378 69.8443 57.4778 69.8954 57.1552 70.9115C57.0282 71.3111 61.3693 83.995 63.5577 89.6184C63.6741 89.9176 62.8494 90.7363 60.7715 92.3845C56.889 95.4642 56.5892 95.8842 57.5727 96.8676C58.4883 97.7832 59.1823 97.5323 61.9433 95.289C63.4388 94.0736 64.6714 93.2613 64.8012 93.4053C65.2742 93.9299 84.7308 148.393 84.8198 149.441C85.2091 154.032 93.9488 156.435 95.3644 152.34C95.9027 150.783 94.3637 150.029 92.3589 150.866C89.443 152.085 87.1564 150.624 88.1783 148.196C88.5654 147.276 88.5522 147.214 87.8392 146.6C87.232 146.077 85.4086 141.278 77.7676 120.089C72.6362 105.859 68.1913 93.554 67.8899 92.7442C67.0507 90.4883 75.8376 85.1448 87.5303 80.8006C91.3937 79.3654 92.0048 78.8558 91.3443 77.6215C90.5375 76.1143 75.0732 53.4231 74.5542 52.985C73.8032 52.3513 73.3282 52.3686 72.642 53.0548ZM124.878 55.4321C120.332 57.4065 119.022 64.7213 122.87 66.6398C124.51 67.4575 125.446 65.8233 124.379 64.0035C122.955 61.5721 123.392 59.8622 125.849 58.2568C127.38 57.2566 127.665 56.4515 126.797 55.5834C126.124 54.91 126.087 54.9069 124.878 55.4321ZM127.079 59.9295C125.627 61.7755 125.664 64.1746 127.169 65.8166C128.776 67.5705 131.016 66.1127 129.619 64.222C128.903 63.2542 128.868 62.7941 129.43 61.7077C130.409 59.8142 128.378 58.278 127.079 59.9295ZM132.134 60.7804C130.766 61.3276 131.211 62.9331 132.98 63.8291C136.66 65.6944 139.332 70.4672 138.21 73.1749C137.751 74.2839 138.078 75.2911 139.063 75.8003C140.194 76.385 140.179 77.4334 139.024 78.6253C137.367 80.3343 138.883 82.1909 140.911 80.9373C143.145 79.5565 143.58 75.0871 141.6 73.8628C141.426 73.7557 141.291 72.883 141.291 71.8661C141.291 67.4474 138.585 63.2791 134.442 61.3176C132.846 60.5619 132.741 60.5373 132.134 60.7804ZM211.673 69.5865C209.972 70.4058 205.018 77.0358 205.473 77.8849C206.317 79.4636 207.198 79.237 209.04 76.9671C211.232 74.2652 211.879 73.8346 210.54 75.9681C209.045 78.3507 209.178 79.2945 211.007 79.2814C213.907 79.2607 215.824 75.4141 215.284 70.7013C215.169 69.7056 212.888 69.001 211.673 69.5865ZM118.321 69.8683C116.995 70.8464 117.434 73.1473 118.946 73.1473C119.58 73.1473 120.641 71.901 120.641 71.1562C120.641 69.9917 119.222 69.2039 118.321 69.8683ZM200.732 70.6701C196.932 72.1854 193.941 84.8679 197.383 84.8679C198.302 84.8679 198.727 84.1064 198.902 82.1496C199.334 77.3039 200.924 72.9492 201.904 73.9289C202.17 74.1952 202.132 74.9383 201.725 77.3832C201.119 81.0277 201.35 81.5192 203.668 81.5192C204.687 81.5192 204.978 81.6562 205.595 82.4261C205.994 82.9251 206.45 83.4902 206.607 83.6819C207.362 84.6023 209.104 83.8209 209.104 82.562C209.104 81.6227 207.375 79.5867 206.081 79.002C204.766 78.4074 204.766 78.4073 204.872 75.5425C205.038 71.0443 203.711 69.4824 200.732 70.6701ZM130.843 72.0933C130.016 73.2732 130.535 75.1007 131.696 75.1007C132.341 75.1007 133.478 73.8011 133.478 73.0636C133.478 71.6292 131.641 70.9527 130.843 72.0933ZM123.215 72.7446C122.069 73.5469 122.68 75.3798 124.093 75.3798C124.928 75.3798 125.385 74.8719 125.385 73.9446C125.385 73.2815 124.556 72.3101 123.99 72.3101C123.904 72.3101 123.556 72.5057 123.215 72.7446ZM121.637 76.6554C120.385 77.9081 122.022 80.4029 124.097 80.4029C125.26 80.4029 127.294 79.1418 127.508 78.2885C127.864 76.8689 126.329 76.0476 124.976 76.9339C124.354 77.3413 124.267 77.3316 123.73 76.7944C123.042 76.1062 122.24 76.0529 121.637 76.6554ZM212.813 79.1792C210.608 80.572 210.22 81.191 210.901 82.2305C211.852 83.683 216.62 81.3289 216.634 79.3997C216.647 77.6519 215.349 77.5769 212.813 79.1792ZM211.064 85.2424C207.209 88.7143 200.814 90.3951 197.07 88.9208C195.963 88.4849 195.158 90.9403 196.197 91.5844C196.466 91.7507 197.502 92.2302 198.499 92.6496C200.664 93.5596 200.672 93.095 198.398 98.6034C195.258 106.21 193.313 108.309 189.409 108.309C185.476 108.309 172.334 103.89 161.518 98.9305C157.529 97.1015 156.578 97.0605 156.416 98.7103C156.295 99.946 158.956 101.363 168.64 105.221C191.424 114.297 195.544 113.595 201.121 99.6792C201.824 97.9258 202.84 95.7505 203.379 94.8455C203.918 93.9403 204.36 92.9538 204.36 92.6529C204.36 92.3521 204.517 92.0591 204.708 92.0016C207.518 91.1616 208.397 90.8081 209.941 89.8997C213.724 87.6736 215.584 84.9709 214.065 83.9071C213.197 83.2993 213.246 83.2776 211.064 85.2424ZM166.63 84.2741C160.843 86.184 154.133 92.4526 156.034 94.1733C156.899 94.9558 157.411 94.7119 159.645 92.4542C164.156 87.8952 169.673 85.771 172.826 87.3795C174.187 88.0738 174.566 88.0777 175.177 87.4024C177.303 85.0532 171.124 82.7911 166.63 84.2741ZM87.4315 85.1487C86.44 87.0014 86.1961 102.564 87.1539 102.868C89.011 103.457 89.2767 102.581 89.6512 94.6351C89.8214 91.0282 90.0288 87.4989 90.1125 86.7921C90.3441 84.8308 88.279 83.565 87.4315 85.1487ZM79.5667 87.2422C79.2114 88.0219 88.2701 143.497 88.8706 144.221C89.6866 145.204 91.3434 144.215 91.3339 142.751C91.327 141.682 82.2337 87.2148 81.9987 86.8345C81.6147 86.2133 79.9049 86.5002 79.5667 87.2422ZM198.499 116.819C192.08 118.259 184.714 125.737 187.753 127.728C188.723 128.364 189.037 128.16 190.519 125.931C198.308 114.215 215.231 120.104 213.963 134.09C213.705 136.935 215.541 138.306 216.618 136.073C220.917 127.157 208.977 114.468 198.499 116.819ZM177.171 126.608C176.511 127.267 176.613 128.592 177.36 129.067C178.578 129.841 195.382 136.456 202.267 138.871C205.051 139.848 205.122 139.914 204.395 140.839C202.567 143.163 202.211 148.679 203.649 152.408C203.773 152.731 200.707 157.109 199.192 158.77C199.146 158.82 198.634 157.956 198.053 156.85C196.758 154.386 196.087 153.946 192.953 153.507C185.077 152.402 181.779 146.864 185.411 140.841C186.73 138.654 186.681 138.233 184.966 137.053C182.682 135.482 180.479 136.854 182.211 138.768C182.635 139.236 182.62 139.376 182.002 140.744C178.813 147.802 183.355 155.058 191.814 156.42C193.221 156.646 194.395 156.871 194.424 156.919C194.453 156.967 194.799 157.511 195.194 158.128C197.283 161.395 197.283 161.39 195.699 163.972C194.116 166.553 194.009 167.393 195.192 167.958C196.289 168.482 196.526 168.282 198.5 165.164C204.579 155.565 204.917 155.34 207.33 159.308C211.229 165.721 211.777 167.328 211.517 171.577C211.245 176.023 212.684 176.381 216.271 172.76C221.641 167.341 221.926 159.322 217.139 148.355C215.777 145.234 215.26 144.642 214.286 145.086C213.039 145.654 213.098 146.526 214.641 150.391C218.133 159.135 218.342 165.688 215.252 169.616C214.685 170.336 214.685 170.336 214.685 169.432C214.685 166.961 213.093 162.986 210.128 158.055C204.712 149.047 204.263 145.647 207.876 141C207.918 140.946 210.657 141.803 213.962 142.904C220.336 145.029 221.028 145.132 221.574 144.032C222.206 142.76 221.595 142.352 216.474 140.617C203.172 136.113 194.989 133.104 184.319 128.796C176.86 125.784 177.728 126.05 177.171 126.608ZM141.354 133.022C140.471 133.641 140.578 134.489 141.834 136.822C142.439 137.946 143.333 139.912 143.82 141.189C145.02 144.338 144.727 144.268 151.771 143.095C163.834 141.086 166.223 140.243 165.342 138.308C164.932 137.41 164.229 137.408 160.499 138.3C157.303 139.064 150.716 140.306 148.448 140.572C146.984 140.744 146.984 140.744 146.189 138.829C144.031 133.625 142.727 132.06 141.354 133.022ZM191.355 138.312C190.009 140.366 191.03 143.108 192.726 141.996C193.35 141.587 194.034 139.926 194.034 138.82C194.034 137.485 192.133 137.125 191.355 138.312ZM93.1981 144.538C92.1488 145.697 92.6539 146.566 94.7756 147.252C98.7802 148.548 100.839 151.676 100.359 155.735C100.188 157.176 100.188 157.176 99.3215 156.374C97.2121 154.42 95.7398 154.147 94.976 155.568C94.5577 156.346 94.5697 156.379 95.5221 157.103C96.0576 157.51 97.139 158.515 97.9251 159.336C99.5007 160.982 100.019 161.077 100.91 159.882C101.456 159.15 101.458 159.111 100.961 158.347C100.551 157.718 100.54 157.637 100.903 157.934C103.26 159.865 104.316 153.672 102.301 149.74C100.405 146.04 94.7586 142.813 93.1981 144.538ZM192.639 145.584C189.741 146.109 189.29 146.349 189.29 147.366C189.29 148.66 190.214 149.127 192.072 148.775C192.887 148.621 193.609 148.494 193.678 148.494C193.748 148.494 193.721 148.987 193.619 149.59C193.307 151.437 195.173 152.662 196.096 151.215C196.663 150.326 197.185 146.655 196.837 146.005C196.326 145.051 195.851 145.003 192.639 145.584ZM145.977 146.611C145.444 147.029 132.703 168.939 132.483 169.814C132.278 170.633 133.191 171.448 134.18 171.329C135.004 171.229 148.231 149.065 148.256 147.743C148.277 146.669 146.823 145.946 145.977 146.611ZM223.86 148.301C220.676 149.387 219.485 150.663 220.276 152.14C220.686 152.907 221.599 152.811 223.45 151.809C225.34 150.785 227.805 150.473 229.754 151.011C231.01 151.357 231.01 151.357 229.475 151.883C227.817 152.45 227.243 152.988 227.243 153.973C227.243 155.155 228.199 155.496 229.885 154.916C235.93 152.836 237.475 154.001 243.569 165.237C247.399 172.298 250.287 176.374 255.184 181.628C258.891 185.606 259.358 186.724 258.233 188.93C257.143 191.066 251.383 195.785 248.462 196.935C245.652 198.041 245.065 198.03 246.917 196.908C251.497 194.132 255.149 189.976 255.149 187.54C255.149 186.589 253.572 184.249 250.649 180.865C247.032 176.679 246.025 175.163 243.701 170.401C237.626 157.953 233.604 154.703 227.261 157.113C226.202 157.515 225.622 157.602 225.268 157.413C221.98 155.653 222.121 156.443 228.521 175.578C235.312 195.881 235.235 195.405 232.48 199.827C231.359 201.628 231.685 203.191 233.182 203.191C233.795 203.191 235.429 200.999 236.197 199.145C236.824 197.633 236.824 197.633 237.811 198.5C242.864 202.936 250.905 201.091 258.103 193.845C262.909 189.005 262.874 185.551 257.965 180.168C255.071 176.995 251.923 173.123 250.476 170.959C249.389 169.333 248.931 168.543 244.972 161.471C243.941 159.629 242.483 157.314 241.732 156.328C240.981 155.34 240.412 154.488 240.467 154.432C240.715 154.185 243.081 155.374 243.75 156.083C244.599 156.982 244.83 157.021 245.934 156.451C249.187 154.768 244.643 151.667 237.757 150.87C236.665 150.743 235.475 150.327 234.129 149.602C230.4 147.591 227.15 147.18 223.86 148.301ZM150.789 156.29C150.631 156.586 150.501 157.042 150.501 157.303C150.501 159.255 177.953 202.439 185.17 211.838C187.304 214.618 187.872 214.992 188.753 214.195C189.7 213.338 189.392 212.539 186.749 208.996C181.354 201.763 162.656 172.659 155.91 160.997C152.686 155.422 151.726 154.54 150.789 156.29ZM91.462 158.387C90.6929 159.561 91.1581 160.027 99.0324 165.968C106.697 171.75 106.697 171.75 110.771 178.052C115.985 186.117 116.023 186.168 116.971 186.168C119.002 186.168 118.853 184.905 116.372 181.078C115.252 179.349 114.225 177.756 114.091 177.536C113.958 177.316 116.181 178.915 119.031 181.088C125.23 185.813 125.528 185.978 126.255 185.08C127.464 183.587 127.739 183.868 117.592 176.232C109.101 169.843 109.101 169.843 106.742 166.215C105.445 164.219 104.243 162.495 104.07 162.382C103.088 161.738 101.457 162.741 101.739 163.817C101.834 164.182 100.388 163.243 97.4568 161.036C92.8216 157.546 92.1948 157.269 91.462 158.387ZM118.883 172.617C117.498 174.002 118.683 175.141 121.757 175.382C126.251 175.733 132.082 177.706 140.036 181.567C149.836 186.324 151.32 187.957 157.91 201.228C165.114 215.735 171.788 226.331 180.928 237.772C184.365 242.074 184.365 242.074 184.483 244.469C184.548 245.786 184.644 246.908 184.695 246.962C184.823 247.096 168.634 261.356 168.248 261.45C168.08 261.491 160.287 247.072 150.932 229.407C141.061 210.77 133.696 197.168 133.385 197.002C132.648 196.607 131.587 197.125 131.371 197.984C131.169 198.789 165.711 264.342 166.834 265.284C167.567 265.899 167.484 266.17 166.337 266.899C163.613 268.633 168.512 273.957 173.137 274.289C181.796 274.91 185.159 263.006 177.491 258.877C176.523 258.356 176.523 258.356 178.36 256.75C180.197 255.143 180.197 255.143 180.546 256.166C180.963 257.386 182.062 258.409 183.204 258.637C183.715 258.739 184.124 259.045 184.273 259.437C185.052 261.488 189.406 259.873 190.563 257.105C191.419 255.056 190.631 251.954 189.16 251.585C188.211 251.347 187.008 249.291 187.395 248.569C188.737 246.062 187.372 240.858 184.426 237.247C175.015 225.711 167.338 213.63 160.523 199.635C153.497 185.205 150.817 182.703 135.369 176.151C128.247 173.13 120.114 171.386 118.883 172.617ZM200.602 174.436C199.849 175.269 202.214 180.136 211.366 196.582C217.447 207.509 218.395 210.396 216.55 212.361C211.656 217.571 216.517 221.449 222.355 216.993C223.681 215.98 223.681 215.981 224.504 216.979C226.979 219.981 231.955 222.645 233.047 221.553C233.949 220.651 233.452 219.721 231.498 218.649C230.207 217.941 228.77 216.752 226.927 214.868C223.92 211.795 223.594 211.675 222.205 213.124C219.576 215.867 216.557 216.891 218.872 214.255C222.032 210.656 221.773 209.828 211.409 190.354C201.788 172.273 202.118 172.761 200.602 174.436ZM214.859 177.103C214.087 177.876 214.266 178.257 219.59 187.144C227.124 199.721 227.746 201.15 227.354 204.98C227.18 206.677 227.205 206.781 227.891 207.23C231.07 209.313 231.279 201.951 228.212 195.947C222.15 184.077 216.234 175.729 214.859 177.103ZM107.181 178.363C102.975 180.07 99.9037 183.129 101.054 184.463C101.775 185.298 109.722 189.755 116.873 193.335C120.404 195.102 123.606 196.722 123.99 196.935C125.424 197.731 127.066 197.073 127.051 195.71C127.044 195.004 126.534 194.706 118.749 190.851C114.187 188.593 109.145 185.971 107.544 185.025C104.188 183.042 104.177 183.192 107.804 181.493C110.055 180.438 110.305 180.218 110.311 179.277C110.321 177.943 109.095 177.585 107.181 178.363ZM84.5399 182.281C83.557 183.054 83.4898 182.81 86.14 188.081C87.4243 190.635 89.3841 194.798 90.4951 197.33C97.864 214.13 104.558 224.257 106.807 222.007C107.565 221.249 107.297 220.464 105.568 218.373C101.582 213.554 98.447 207.949 93.7205 197.191C87.5763 183.205 86.202 180.973 84.5399 182.281ZM198.019 181.987C197.026 182.387 197.015 183.249 197.93 189.251C200.951 209.082 201.414 221.765 199.332 227.688C198.256 230.749 198.288 230.782 204.252 232.785C211.663 235.274 216.886 236.505 221.875 236.938C223.472 237.077 224.827 237.24 224.887 237.299C225.022 237.434 222.259 250.789 221.029 255.951C220.127 259.736 220.127 259.736 219.506 258.985C218.729 258.045 217.958 257.832 217.215 258.352C216.269 259.014 216.488 260.096 217.89 261.699C218.578 262.486 219.26 263.443 219.406 263.827C219.656 264.484 221.065 265.421 221.801 265.421C222.707 265.421 223.454 263.452 222.812 262.756C222.669 262.602 223.077 260.338 223.79 257.329C224.814 253.002 228.08 237.669 228.08 237.186C228.08 237.104 228.928 236.958 229.964 236.86C231 236.763 232.938 236.382 234.27 236.015C236.693 235.346 236.693 235.346 236.458 235.942C229.017 254.835 224.511 266.964 224.64 267.757C224.809 268.802 224.008 270.725 222.908 271.911C222.024 272.864 222.371 272.945 219.593 271.134C218.292 270.286 215.619 268.762 213.654 267.747C207.195 264.413 205.92 263.303 207.146 262.077C208.373 260.85 210.304 261.52 212.31 263.869C214.66 266.619 217.357 265.759 215.371 262.893C212 258.029 206.609 257.016 204.434 260.838C202.578 264.099 204.14 266.202 211.059 269.756C213.629 271.076 217.059 273.027 218.681 274.091C223.18 277.041 227.373 274.298 227.688 268.199C227.753 266.962 229.006 263.448 233.924 250.723C237.31 241.963 240.08 234.557 240.08 234.266C240.08 233.939 240.477 233.523 241.114 233.183C242.744 232.314 245.279 230.383 248.4 227.633C251.839 224.604 254.919 222.433 256.744 221.751C260.032 220.524 260.041 220.552 253.192 211.273C246.052 201.602 245.814 201.363 244.545 202.632C243.671 203.506 243.675 203.512 249.557 211.445C254.252 217.777 255.058 219.001 254.682 219.237C251.38 221.306 249.683 222.549 247.086 224.805C237.611 233.03 231.127 235.205 220.337 233.776C214.454 232.997 202.14 229.416 202.367 228.549C204.262 221.289 204.073 211.714 201.683 193.981C200.02 181.645 199.894 181.233 198.019 181.987ZM104.04 193.417C103.619 194.23 103.668 194.389 106.238 200.633C114.461 220.608 121.028 239.439 120.113 240.413C119.23 241.353 119.386 241.962 120.909 243.506C122.425 245.043 122.518 245.29 125.94 256.982C127.291 261.6 127.534 262.06 128.621 262.069C130.551 262.082 130.474 261.346 127.516 251.575C126.577 248.471 126.577 248.472 129.123 250.462C130.523 251.556 132.198 252.827 132.846 253.286C133.803 253.963 134.132 254.441 134.601 255.835C135.716 259.148 138.574 263.032 141.47 265.171C143.701 266.819 147.655 268.662 148.21 268.313C149.733 267.351 149.336 265.965 147.294 265.119C145.76 264.483 145.76 264.483 147.18 263.707C148.599 262.93 148.599 262.93 151.294 264.203C159.915 268.275 161.384 268.613 161.384 266.525C161.384 265.497 160.891 265.162 156.919 263.493C147.011 259.331 136.55 252.855 127.39 245.212C124.966 243.191 124.966 243.191 123.328 238.19C118.168 222.446 107.656 194.779 106.185 193.074C105.52 192.303 104.535 192.46 104.04 193.417ZM112.958 195.865C113.643 197.774 128.455 241.457 128.455 241.57C128.455 242.55 145.433 253.32 157.617 260.069C164.513 263.889 164.436 263.857 163.73 262.662C163.437 262.168 155.412 248.134 145.896 231.477C128.726 201.421 122.079 193.981 112.394 193.981C112.332 193.981 112.585 194.829 112.958 195.865ZM141.224 196.046C140.03 196.48 138.78 197.247 138.78 197.546C138.78 197.958 169.649 256.874 169.907 256.955C177.17 259.218 174.335 250.135 159.395 223.28C142.222 192.409 143.981 195.045 141.224 196.046ZM70.3052 200.265C68.7184 201.852 79.8951 218.613 91.8854 232.628C97.4069 239.081 97.0039 239.059 101.901 233.19C106.397 227.802 107.822 225.068 106.562 224.243C105.471 223.528 104.974 223.844 103.333 226.289C97.9469 234.32 97.5261 234.538 94.4028 230.92C87.3525 222.754 81.0563 214.152 74.785 204.118C72.0515 199.745 71.3924 199.178 70.3052 200.265ZM231.429 207.656C230.487 208.597 232.2 211.467 233.981 211.933C234.588 212.092 235.894 211.056 235.894 210.416C235.894 208.948 232.336 206.748 231.429 207.656ZM229.1 211.515C228.221 212.486 228.534 213.117 230.912 215.175C233.653 217.548 235.336 217.691 235.336 215.553C235.336 213.984 229.995 210.526 229.1 211.515ZM250.281 231.717C248.898 233.692 252.962 234.946 259.366 234.519C261.999 234.343 261.817 233.805 262.03 242.399C262.285 252.702 262.055 253.282 257.709 253.282C254.153 253.282 253.325 252.843 253.566 251.085C253.879 248.805 251.825 247.857 250.813 249.814C249.141 253.048 252.18 256.171 257.258 256.438C263.879 256.785 265.056 254.94 265.056 244.213C265.056 231.744 264.755 230.886 260.584 231.424C258.703 231.667 257.338 231.666 254.987 231.421C250.874 230.992 250.785 230.998 250.281 231.717ZM100.127 236.483C96.2753 240.391 93.1651 242.942 88.7956 245.78C85.1279 248.163 85.0268 250.003 88.3943 253.08C93.4272 257.681 100.707 255.042 105.637 246.832C111.528 237.021 111.077 233.045 104.776 239.243C101.253 242.709 99.3634 244.349 96.0096 246.854C93.6496 248.617 93.173 249.449 94.0004 250.363C94.9383 251.4 96.4916 250.583 101.316 246.52C102.988 245.112 103.112 245.167 101.977 246.814C98.212 252.276 92.9355 253.97 90.1167 250.62C89.0732 249.38 89.1567 249.19 91.409 247.698C99.7993 242.137 106.827 234.864 105.292 233.329C104.351 232.388 103.881 232.675 100.127 236.483ZM249.568 238.652C241.373 239.685 241.14 239.771 241.591 241.569C241.845 242.581 242.4 242.603 248.555 241.849C256.496 240.875 255.707 240.717 255.707 243.279C255.707 245.331 255.687 245.397 255.197 244.954C254.246 244.093 252.358 244.62 252.358 245.746C252.358 246.369 253.804 247.89 254.787 248.301C255.293 248.512 255.707 248.812 255.707 248.967C255.707 249.121 256.016 249.389 256.393 249.56C257.209 249.932 258.493 249.265 258.506 248.462C258.51 248.197 258.887 247.614 259.343 247.166C260.43 246.099 260.246 244.492 259.036 244.492C258.893 244.492 258.777 243.186 258.777 241.581C258.777 237.228 259.371 237.417 249.568 238.652ZM10.411 240.027C9.31322 241.125 9.56689 241.403 17.6675 247.971C22.9401 252.246 25.5374 254.529 25.6529 254.988C26.0042 256.388 28.3947 256.429 29.1342 255.048C29.7255 253.943 29.046 253.248 21.1363 246.864C11.0188 238.698 11.4589 238.979 10.411 240.027ZM203.403 268.092C202.065 269.43 202.447 269.794 210.15 274.519C217.764 279.19 218.431 279.487 219.259 278.571C220.347 277.369 219.895 276.966 212.07 272.172C204.451 267.505 204.138 267.358 203.403 268.092Z" fill="#FFE1B4"/>
<path fill-rule="evenodd" clip-rule="evenodd" d="M53.3867 0.279846C51.8387 0.783275 50.3712 1.72567 49.2633 2.92759C48.0951 4.19482 48.0951 4.19482 47.122 3.78822C39.3144 0.525979 30.0571 16.31 35.0961 24.2924C36.9784 27.2739 39.1152 25.4798 37.4924 22.2803C34.1515 15.6928 42.7748 2.461 47.1723 7.42804C48.5025 8.93079 49.3074 8.78428 50.2113 6.87521C52.4214 2.20761 57.8869 1.51051 60.6504 5.54352C61.561 6.87242 62.7649 7.56534 64.1663 7.56645C66.796 7.56896 67.6298 14.2414 65.4885 18.1502C64.3748 20.1837 64.4259 20.5719 65.9409 21.5849C67.9186 22.9074 67.7021 25.3773 65.6242 25.1985C64.2495 25.0799 63.6099 25.7449 63.8172 27.0774C64.6402 32.3651 64.2582 37.5261 62.7041 42.1164C61.6548 45.2151 61.6623 45.8176 62.7565 46.3163C65.0211 47.348 67.6767 38.4846 67.2595 31.2879C67.1057 28.6368 67.1057 28.6368 68.2178 27.8591C70.7511 26.087 71.117 22.3704 68.9791 20.1254C68.3319 19.4459 68.3266 19.4023 68.777 18.4505C71.2141 13.2995 68.9249 4.49788 65.1486 4.49788C63.9353 4.49788 63.7335 4.39016 62.449 3.05959C60.1205 0.646813 56.0746 -0.594178 53.3867 0.279846ZM55.6192 12.0622C52.2721 15.1575 48.5662 17.3007 44.3149 18.5992C41.1685 19.5606 41.1839 19.5447 40.6994 22.3012C40.4778 23.5604 40.0397 25.1717 39.7257 25.8816C39.022 27.4726 39.0102 28.0011 39.6649 28.5935C41.195 29.9783 42.9492 27.6043 43.5735 23.3042C43.759 22.0255 43.759 22.0255 45.7125 21.4049C52.8227 19.1456 60.9727 12.6817 59.0877 10.7966C58.3189 10.0281 57.4923 10.3297 55.6192 12.0622ZM152.873 21.0932C146.051 22.5809 140.859 27.8616 141.949 32.2035C142.417 34.0707 144.903 33.6543 144.916 31.7065C144.971 23.8894 159.09 20.9824 167.074 27.1444C173.044 31.7525 174.629 37.9045 172.563 48.4503C170.318 59.9091 171.663 65.7424 177.899 71.6094C181.71 75.1937 187.817 77.6489 188.72 75.9597C189.421 74.6509 189.037 74.1921 186.473 73.2732C176.244 69.6074 172.917 62.0939 175.584 48.6861C177.03 41.4187 176.995 38.3406 175.419 33.9705C172.065 24.6719 162.227 19.053 152.873 21.0932ZM58.2597 23.1061C57.7136 23.6522 57.8057 25.9556 58.402 26.6742C59.4577 27.9461 61.3414 26.6574 61.0305 24.8759C60.6711 22.8181 59.3754 21.9904 58.2597 23.1061ZM45.3037 24.851C44.4388 26.4671 45.3628 28.7615 46.8826 28.7721C48.2525 28.7816 48.675 26.6089 47.6282 24.9392C47.1215 24.1311 45.7175 24.0778 45.3037 24.851ZM35.1198 26.4682C29.1518 27.9844 33.2456 36.726 39.9219 36.7226C41.4707 36.7218 42.2242 36.8262 42.2242 37.0419C42.2242 39.0662 47.4471 45.8689 49.0012 45.8689C51.1299 45.8689 51.0526 44.5612 48.7788 42.1055C46.6644 39.8216 45.187 37.0369 44.6077 34.2432C43.965 31.1428 41.9329 30.1856 41.4144 32.7387C41.164 33.9719 39.2441 34.1994 37.4759 33.2053C35.755 32.2384 34.5854 29.3345 35.9165 29.3345C37.1031 29.3345 37.6992 27.1089 36.6614 26.5536C36.0943 26.2503 35.9991 26.245 35.1198 26.4682ZM53.3169 26.8452C51.9085 27.6657 53.8848 35.2645 55.5067 35.2645C57.1485 35.2645 57.2824 34.4248 56.3026 30.2774C55.4071 26.488 54.9107 25.9171 53.3169 26.8452ZM151.338 29.817C148.823 30.7744 152.613 45.5134 156.233 48.8496C157.278 49.8135 157.492 50.1665 157.357 50.7059C157.24 51.1706 157.368 51.5501 157.779 51.9617C158.427 52.6094 158.575 52.596 161.31 51.6366C162.727 51.1393 163.128 51.091 163.473 51.3771C164.508 52.2357 163.35 53.7148 161.156 54.3368C157.636 55.335 158.215 59.1858 162.97 66.3987C163.936 67.8632 164.686 69.1009 164.638 69.1495C164.392 69.3948 157.637 73.0337 155.942 73.8332C147.403 77.8626 147.236 77.5939 154.765 71.942C158.077 69.4559 158.457 68.8578 157.617 67.4421C157.339 66.973 156.505 65.4117 155.764 63.9726C153.869 60.2906 153.422 59.9234 152.323 61.1384C151.551 61.9912 151.717 62.8426 153.206 65.6709C154.586 68.2919 154.586 68.2919 152.892 69.5329C146.043 74.5515 142.918 78.2508 144.161 79.8691C145.712 81.8895 148.398 81.0255 161.418 74.3171C167.172 71.3521 167.172 71.3521 168.195 72.2495C170.777 74.5167 172.262 72.1926 169.725 69.8563C166.856 67.2153 163.777 62.4863 162.489 58.7407C161.996 57.3108 161.996 57.3108 163.383 56.6614C168.279 54.3678 167.965 48.333 162.947 48.3018C162.141 48.2968 161.289 48.1154 160.982 47.8832C160.684 47.658 160.129 47.4735 159.748 47.4735C157.397 47.4735 154.247 39.9868 153.656 32.9919C153.435 30.3835 152.655 29.3152 151.338 29.817ZM1.77629 34.5861C-1.62241 38.1587 -0.0384544 43.1913 5.6254 46.8161C5.67926 46.8507 5.41555 47.2952 5.03965 47.8039C3.91586 49.3248 3.35997 51.0849 3.29356 53.3339C3.25532 54.6343 3.05942 55.7438 2.77673 56.264C0.940777 59.6412 6.92416 64.5321 17.9653 68.679C19.8601 69.3906 20.4205 69.7305 20.6635 70.3157C24.835 80.3594 25.8256 84.2158 26.8752 94.4956C27.5779 101.378 27.7752 102.394 28.7594 104.202C31.0715 108.45 36.8305 109.479 41.7414 106.522C42.6207 105.993 43.3407 105.582 43.3413 105.609C43.3418 105.636 43.5983 106.977 43.9114 108.588C44.9305 113.833 45.7189 119.77 46.5608 128.54C46.6641 129.614 46.8326 133.363 46.9359 136.87C47.1619 144.552 46.8505 144.029 51.2005 144.029C54.2099 144.029 54.2099 144.029 53.9359 144.751C52.8573 147.587 26.5967 232.35 26.5967 232.994C26.5967 233.444 26.8746 234.174 27.2145 234.617C28.4385 236.213 32.4743 240.469 33.7976 241.56C35.0967 242.632 34.056 245.813 31.4881 248.619C30.6049 249.584 13.8257 236.011 14.0816 234.538C14.2105 233.796 14.3869 232.593 14.4734 231.864C14.6503 230.378 14.9023 230.248 15.7956 231.181C17.3636 232.819 23.6774 239.865 25.5982 242.12C28.2197 245.198 28.6553 245.448 29.5612 244.395C30.6487 243.13 30.529 242.956 22.0407 233.469C15.1322 225.748 12.091 225.429 11.3883 232.353C11.2792 233.427 11.0149 234.584 10.8006 234.924C10.0092 236.18 10.2899 236.837 12.2947 238.426C16.2909 241.594 31.3617 252.864 31.6011 252.864C32.3789 252.864 32.9501 252.169 35.0104 248.717C37.8005 244.043 37.4581 244.394 38.7105 244.918C41.776 246.199 47.5069 238.454 60.9147 214.911C73.0779 193.554 85.3168 166.025 83.4697 164.178C82.0838 162.792 81.2305 163.815 79.3303 169.145C72.6652 187.838 62.3781 207.728 46.1146 233.365C41.8447 240.096 40.4519 241.981 39.7489 241.979C38.1594 241.975 29.4959 233.517 29.7939 232.259C29.8907 231.85 35.9481 212.365 43.2545 188.958C50.5609 165.552 56.6903 145.899 56.875 145.285C57.254 144.025 56.8624 144.17 62.4562 143.224C69.9854 141.95 72.9811 140.674 72.543 138.928C72.2675 137.832 71.5556 137.793 68.4756 138.708C63.1115 140.302 53.6415 141.61 51.0261 141.12C50.038 140.934 50.038 140.934 50.038 138.039C50.038 125.014 47.2348 106.367 43.0522 91.5671C40.0308 80.8765 39.387 79.547 37.6197 80.3521C36.6309 80.8025 36.7029 81.3766 38.4206 86.7435C43.0237 101.128 43.1052 102.522 39.4475 104.329C33.5347 107.251 30.6847 104.566 30.0573 95.484C29.4328 86.441 27.8388 79.7932 24.0477 70.4184C23.6992 69.5563 23.7204 69.4673 24.4155 68.8835C25.4082 68.0499 25.9292 66.9206 26.3165 64.7637C26.4943 63.7725 26.8813 62.4118 27.1763 61.7401C28.0461 59.7598 27.781 58.636 26.4446 58.636C25.2854 58.636 24.3567 60.2789 23.6939 63.5029C22.9379 67.1804 22.1241 67.3872 17.1384 65.1686C8.44031 61.2977 4.57027 58.4756 6.12576 57.1375C6.86305 56.5032 6.86333 56.5018 6.49943 54.6706C5.97814 52.0488 6.42185 50.6194 8.3711 48.6386C10.1381 46.8431 10.2908 46.0129 8.98476 45.2977C4.79045 43.0013 3.39541 41.5443 3.23411 39.2909C3.02314 36.3434 4.09251 36.9847 10.8296 43.8454C13.8943 46.9665 15.3061 47.5213 15.8469 45.8173C16.1547 44.8481 15.8196 44.4424 10.1295 38.8924C3.80647 32.7251 3.63206 32.6352 1.77629 34.5861ZM49.4798 36.8692C48.8466 37.5023 48.8003 37.7951 49.2108 38.5622C50.0301 40.0932 55.2121 41.4223 56.263 40.3714C57.4016 39.2328 56.4006 37.7089 54.5105 37.7036C53.9691 37.7022 52.8545 37.3882 52.0335 37.0059C50.2336 36.1681 50.1836 36.1654 49.4798 36.8692ZM148.544 41.7569C147.834 42.6123 147.405 45.2994 147.866 46.0032C149.055 47.8176 151.059 45.6792 151.059 42.5961C151.059 41.5253 149.24 40.9184 148.544 41.7569ZM138.377 43.9216C137.758 44.8663 138.123 45.6691 139.504 46.4017C140.733 47.0541 140.733 47.0541 140.733 49.622C140.733 54.9053 143.138 60.0314 145.616 60.0314C147.118 60.0314 147.426 58.0852 146.1 56.9717C144.303 55.4634 143.945 54.2302 143.926 49.5032C143.916 47.166 143.854 45.2087 143.786 45.1534C142.141 43.8053 138.932 43.0747 138.377 43.9216ZM64.4075 46.8175C63.6411 47.224 60.9181 48.7159 58.3563 50.1327C53.6979 52.7085 53.6979 52.7085 53.1367 50.3272C52.5523 47.8486 52.4075 47.5575 51.7123 47.4638C49.7955 47.2056 49.5016 48.0534 50.3042 51.5264C50.6458 53.0046 50.8827 54.2481 50.8305 54.2899C50.7783 54.3315 49.2471 55.1695 47.4282 56.1521C43.6293 58.2038 43.3661 58.5501 44.1899 60.4128C44.9303 62.0864 44.9367 62.0783 40.7443 64.7539C36.2963 67.5931 35.8058 68.0103 35.8058 68.9541C35.8058 71.0711 36.9734 70.8088 41.9675 67.5697C46.2645 64.7827 46.2645 64.7827 46.8985 66.0304C48.1239 68.4415 47.3936 68.7437 59.1005 60.9807C68.4248 54.7978 68.8635 54.4158 68.0542 53.1806C67.2913 52.0164 66.6408 52.3326 57.9776 58.0779C48.2372 64.5374 49.2954 64.1459 48.1733 61.7057C47.2853 59.7743 47.2853 59.7743 48.1733 59.2402C48.6616 58.9464 53.0169 56.5403 57.8517 53.8937C68.0116 48.3319 68.4282 48.0038 67.0608 46.6363C66.3377 45.9133 66.0782 45.9309 64.4075 46.8175ZM17.4222 47.9139C7.34554 50.6242 9.78176 59.0438 20.0834 57.1112C22.8199 56.5978 21.9252 54.3304 18.8773 54.0544C13.7302 53.5881 12.9731 53.1145 15.4903 51.9366C19.9101 49.8685 23.1656 50.404 23.6247 53.2747C24.0274 55.7924 26.5967 55.8142 26.5967 53.2998C26.5967 49.3 22.0948 46.657 17.4222 47.9139ZM146.163 51.4993C145.267 52.8667 146.046 53.6584 148.916 54.2958C149.594 54.4465 149.683 54.5754 149.559 55.2278C148.952 58.4072 149.166 59.1942 150.64 59.1942C151.6 59.1942 152.118 58.525 152.319 57.0281C152.416 56.3008 152.675 55.1497 152.893 54.4702C153.658 52.0945 153.311 51.6335 150.537 51.3391C149.519 51.2314 148.228 51.0564 147.667 50.9507C146.768 50.7807 146.592 50.8446 146.163 51.4993ZM72.642 53.0548C71.8079 53.8889 71.9075 54.1842 74.1239 57.447C88.2682 78.2695 87.7988 77.4716 86.2296 78.0231C81.4526 79.7016 73.3922 83.7204 68.7731 86.7268C67.4891 87.5623 66.3857 88.193 66.321 88.1282C66.2565 88.0635 64.8394 84.2582 63.1726 79.6721C61.5058 75.0857 60.0521 71.1127 59.9427 70.8425C59.5378 69.8443 57.4778 69.8954 57.1552 70.9115C57.0282 71.3111 61.3693 83.995 63.5577 89.6184C63.6741 89.9176 62.8494 90.7363 60.7715 92.3845C56.889 95.4642 56.5892 95.8842 57.5727 96.8676C58.4883 97.7832 59.1823 97.5323 61.9433 95.289C63.4388 94.0736 64.6714 93.2613 64.8012 93.4053C65.2742 93.9299 84.7308 148.393 84.8198 149.441C85.2091 154.032 93.9488 156.435 95.3644 152.34C95.9027 150.783 94.3637 150.029 92.3589 150.866C89.443 152.085 87.1564 150.624 88.1783 148.196C88.5654 147.276 88.5522 147.214 87.8392 146.6C87.232 146.077 85.4086 141.278 77.7676 120.089C72.6362 105.859 68.1913 93.554 67.8899 92.7442C67.0507 90.4883 75.8376 85.1448 87.5303 80.8006C91.3937 79.3654 92.0048 78.8558 91.3443 77.6215C90.5375 76.1143 75.0732 53.4231 74.5542 52.985C73.8032 52.3513 73.3282 52.3686 72.642 53.0548ZM124.878 55.4321C120.332 57.4065 119.022 64.7213 122.87 66.6398C124.51 67.4575 125.446 65.8233 124.379 64.0035C122.955 61.5721 123.392 59.8622 125.849 58.2568C127.38 57.2566 127.665 56.4515 126.797 55.5834C126.124 54.91 126.087 54.9069 124.878 55.4321ZM127.079 59.9295C125.627 61.7755 125.664 64.1746 127.169 65.8166C128.776 67.5705 131.016 66.1127 129.619 64.222C128.903 63.2542 128.868 62.7941 129.43 61.7077C130.409 59.8142 128.378 58.278 127.079 59.9295ZM132.134 60.7804C130.766 61.3276 131.211 62.9331 132.98 63.8291C136.66 65.6944 139.332 70.4672 138.21 73.1749C137.751 74.2839 138.078 75.2911 139.063 75.8003C140.194 76.385 140.179 77.4334 139.024 78.6253C137.367 80.3343 138.883 82.1909 140.911 80.9373C143.145 79.5565 143.58 75.0871 141.6 73.8628C141.426 73.7557 141.291 72.883 141.291 71.8661C141.291 67.4474 138.585 63.2791 134.442 61.3176C132.846 60.5619 132.741 60.5373 132.134 60.7804ZM117.221 64.7994C107.343 67.1274 105.634 81.5792 114.755 85.6624C115.744 86.1056 115.803 86.191 115.447 86.6768C114.167 88.4277 117.998 92.8075 119.567 91.3874C120.238 90.7804 120.219 90.1397 119.504 89.2302C119.066 88.6741 119.015 88.4634 119.294 88.3685C120.241 88.0459 125.737 87.5785 130.489 87.4163C136.14 87.2235 136.255 87.1889 136.264 85.6691C136.274 83.9853 128.407 83.9546 118.125 85.5988C117.037 85.7727 117.037 85.7727 117.196 84.7912C117.349 83.8491 117.294 83.7701 115.822 82.8283C109.354 78.6909 110.707 69.8105 118.123 67.7299C120.457 67.0746 120.984 65.7061 119.258 64.7818C118.657 64.4604 118.659 64.4604 117.221 64.7994ZM211.673 69.5865C209.972 70.4058 205.018 77.0358 205.473 77.8849C206.317 79.4636 207.198 79.237 209.04 76.9671C211.232 74.2652 211.879 73.8346 210.54 75.9681C209.045 78.3507 209.178 79.2945 211.007 79.2814C213.907 79.2607 215.824 75.4141 215.284 70.7013C215.169 69.7056 212.888 69.001 211.673 69.5865ZM118.321 69.8683C116.995 70.8464 117.434 73.1473 118.946 73.1473C119.58 73.1473 120.641 71.901 120.641 71.1562C120.641 69.9917 119.222 69.2039 118.321 69.8683ZM200.732 70.6701C196.932 72.1854 193.941 84.8679 197.383 84.8679C198.302 84.8679 198.727 84.1064 198.902 82.1496C199.334 77.3039 200.924 72.9492 201.904 73.9289C202.17 74.1952 202.132 74.9383 201.725 77.3832C201.119 81.0277 201.35 81.5192 203.668 81.5192C204.687 81.5192 204.978 81.6562 205.595 82.4261C205.994 82.9251 206.45 83.4902 206.607 83.6819C207.362 84.6023 209.104 83.8209 209.104 82.562C209.104 81.6227 207.375 79.5867 206.081 79.002C204.766 78.4074 204.766 78.4073 204.872 75.5425C205.038 71.0443 203.711 69.4824 200.732 70.6701ZM130.843 72.0933C130.016 73.2732 130.535 75.1007 131.696 75.1007C132.341 75.1007 133.478 73.8011 133.478 73.0636C133.478 71.6292 131.641 70.9527 130.843 72.0933ZM123.215 72.7446C122.069 73.5469 122.68 75.3798 124.093 75.3798C124.928 75.3798 125.385 74.8719 125.385 73.9446C125.385 73.2815 124.556 72.3101 123.99 72.3101C123.904 72.3101 123.556 72.5057 123.215 72.7446ZM171.988 75.3525C171.758 75.4817 171.067 75.675 170.454 75.7822C152.864 78.8538 134.594 99.4333 134.594 116.174C134.594 116.782 134.451 116.94 133.832 117.011C132.651 117.148 132.274 118.498 133.204 119.258C134.893 120.638 152.559 119.457 163.896 117.207C165.507 116.888 166.925 116.607 167.047 116.584C167.169 116.561 167.507 117.206 167.798 118.019C168.089 118.831 168.708 120.114 169.173 120.87C170.019 122.245 170.019 122.245 168.265 122.786C160.596 125.155 141.541 126.646 134.428 125.433C133.84 125.333 133.416 125.434 133.102 125.748C132.138 126.711 132.853 128.123 134.305 128.123C135.029 128.123 135.431 128.535 135.431 129.277C135.431 130.65 128.95 131.603 124.196 130.93C111.433 129.124 103.04 122.327 104.02 114.589C104.354 111.955 104.603 111.536 106.233 110.86C108.823 109.787 110.281 108.421 110.306 107.047C110.312 106.695 110.68 106.287 111.286 105.96C112.674 105.213 113.189 104.54 113.368 103.244C113.52 102.14 113.572 102.091 115.101 101.618C118.953 100.428 120.028 98.0316 117.676 95.8772C116.7 94.9831 116.7 94.9831 117.274 94.0418C118.736 91.6447 116.376 90.4726 114.746 92.7858C113.901 93.9846 113.853 94.0084 112.018 94.1398C108.283 94.4071 103.084 98.1248 101.106 101.942C99.7103 104.637 102.236 105.463 104.008 102.891C107.065 98.4527 113.874 95.3342 115.337 97.7026C115.72 98.3213 115.534 98.4108 111.314 99.6435C109.177 100.267 107.404 100.809 107.375 100.846C106.434 102.043 106.89 103.438 108.286 103.637C109.06 103.747 109.06 103.747 108.147 104.104C107.042 104.536 106.593 105.288 106.82 106.323C107.187 107.993 100.087 110.213 99.5721 108.59C98.8943 106.454 96.2507 106.786 96.2507 109.007C96.2507 110.495 97.8004 111.714 100.174 112.094C101.246 112.265 101.246 112.265 101.248 115.659C101.255 125.378 110.726 132.434 125.841 133.982C132.671 134.682 139.528 132.04 138.415 129.138C138.294 128.824 139.493 128.728 145.152 128.599C156.496 128.339 165.524 127.056 171.463 124.861C174.217 123.843 174.384 123.332 172.742 120.938C170.196 117.225 169.862 115.766 171.481 115.419C171.99 115.31 172.533 115.127 172.686 115.011C172.84 114.896 173.656 114.579 174.5 114.307C178.184 113.121 179.287 112.337 179.173 110.988C179.018 109.159 176.616 108.6 175.788 110.2C175.467 110.821 174.921 111.12 172.922 111.769C171.564 112.21 170.297 112.63 170.105 112.702C169.858 112.795 169.756 112.468 169.756 111.582C169.756 110.174 169.317 109.635 168.172 109.635C167.139 109.635 166.686 110.394 166.686 112.125C166.686 113.427 166.612 113.618 166.058 113.744C152.234 116.893 137.223 117.911 137.519 115.679C139.974 97.1964 154.034 81.9434 171.849 78.4375C174.111 77.9924 174.5 77.7493 174.5 76.7812C174.5 75.5333 173.093 74.7329 171.988 75.3525ZM121.637 76.6554C120.385 77.9081 122.022 80.4029 124.097 80.4029C125.26 80.4029 127.294 79.1418 127.508 78.2885C127.864 76.8689 126.329 76.0476 124.976 76.9339C124.354 77.3413 124.267 77.3316 123.73 76.7944C123.042 76.1062 122.24 76.0529 121.637 76.6554ZM212.813 79.1792C210.608 80.572 210.22 81.191 210.901 82.2305C211.852 83.683 216.62 81.3289 216.634 79.3997C216.647 77.6519 215.349 77.5769 212.813 79.1792ZM211.064 85.2424C207.209 88.7143 200.814 90.3951 197.07 88.9208C195.963 88.4849 195.158 90.9403 196.197 91.5844C196.466 91.7507 197.502 92.2302 198.499 92.6496C200.664 93.5596 200.672 93.095 198.398 98.6034C195.258 106.21 193.313 108.309 189.409 108.309C185.476 108.309 172.334 103.89 161.518 98.9305C157.529 97.1015 156.578 97.0605 156.416 98.7103C156.295 99.946 158.956 101.363 168.64 105.221C191.424 114.297 195.544 113.595 201.121 99.6792C201.824 97.9258 202.84 95.7505 203.379 94.8455C203.918 93.9403 204.36 92.9538 204.36 92.6529C204.36 92.3521 204.517 92.0591 204.708 92.0016C207.518 91.1616 208.397 90.8081 209.941 89.8997C213.724 87.6736 215.584 84.9709 214.065 83.9071C213.197 83.2993 213.246 83.2776 211.064 85.2424ZM166.63 84.2741C160.843 86.184 154.133 92.4526 156.034 94.1733C156.899 94.9558 157.411 94.7119 159.645 92.4542C164.156 87.8952 169.673 85.771 172.826 87.3795C174.187 88.0738 174.566 88.0777 175.177 87.4024C177.303 85.0532 171.124 82.7911 166.63 84.2741ZM87.4315 85.1487C86.44 87.0014 86.1961 102.564 87.1539 102.868C89.011 103.457 89.2767 102.581 89.6512 94.6351C89.8214 91.0282 90.0288 87.4989 90.1125 86.7921C90.3441 84.8308 88.279 83.565 87.4315 85.1487ZM79.5667 87.2422C79.2114 88.0219 88.2701 143.497 88.8706 144.221C89.6866 145.204 91.3434 144.215 91.3339 142.751C91.327 141.682 82.2337 87.2148 81.9987 86.8345C81.6147 86.2133 79.9049 86.5002 79.5667 87.2422ZM175.273 116.57C174.823 117.559 176.503 120.954 177.515 121.098C178.992 121.307 179.364 119.965 178.374 117.995C177.22 115.7 175.938 115.111 175.273 116.57ZM198.499 116.819C192.08 118.259 184.714 125.737 187.753 127.728C188.723 128.364 189.037 128.16 190.519 125.931C198.308 114.215 215.231 120.104 213.963 134.09C213.705 136.935 215.541 138.306 216.618 136.073C220.917 127.157 208.977 114.468 198.499 116.819ZM177.171 126.608C176.511 127.267 176.613 128.592 177.36 129.067C178.578 129.841 195.382 136.456 202.267 138.871C205.051 139.848 205.122 139.914 204.395 140.839C202.567 143.163 202.211 148.679 203.649 152.408C203.773 152.731 200.707 157.109 199.192 158.77C199.146 158.82 198.634 157.956 198.053 156.85C196.758 154.386 196.087 153.946 192.953 153.507C185.077 152.402 181.779 146.864 185.411 140.841C186.73 138.654 186.681 138.233 184.966 137.053C182.682 135.482 180.479 136.854 182.211 138.768C182.635 139.236 182.62 139.376 182.002 140.744C178.813 147.802 183.355 155.058 191.814 156.42C193.221 156.646 194.395 156.871 194.424 156.919C194.453 156.967 194.799 157.511 195.194 158.128C197.283 161.395 197.283 161.39 195.699 163.972C194.116 166.553 194.009 167.393 195.192 167.958C196.289 168.482 196.526 168.282 198.5 165.164C204.579 155.565 204.917 155.34 207.33 159.308C211.229 165.721 211.777 167.328 211.517 171.577C211.245 176.023 212.684 176.381 216.271 172.76C221.641 167.341 221.926 159.322 217.139 148.355C215.777 145.234 215.26 144.642 214.286 145.086C213.039 145.654 213.098 146.526 214.641 150.391C218.133 159.135 218.342 165.688 215.252 169.616C214.685 170.336 214.685 170.336 214.685 169.432C214.685 166.961 213.093 162.986 210.128 158.055C204.712 149.047 204.263 145.647 207.876 141C207.918 140.946 210.657 141.803 213.962 142.904C220.336 145.029 221.028 145.132 221.574 144.032C222.206 142.76 221.595 142.352 216.474 140.617C203.172 136.113 194.989 133.104 184.319 128.796C176.86 125.784 177.728 126.05 177.171 126.608ZM141.354 133.022C140.471 133.641 140.578 134.489 141.834 136.822C142.439 137.946 143.333 139.912 143.82 141.189C145.02 144.338 144.727 144.268 151.771 143.095C163.834 141.086 166.223 140.243 165.342 138.308C164.932 137.41 164.229 137.408 160.499 138.3C157.303 139.064 150.716 140.306 148.448 140.572C146.984 140.744 146.984 140.744 146.189 138.829C144.031 133.625 142.727 132.06 141.354 133.022ZM191.355 138.312C190.009 140.366 191.03 143.108 192.726 141.996C193.35 141.587 194.034 139.926 194.034 138.82C194.034 137.485 192.133 137.125 191.355 138.312ZM93.1981 144.538C92.1488 145.697 92.6539 146.566 94.7756 147.252C98.7802 148.548 100.839 151.676 100.359 155.735C100.188 157.176 100.188 157.176 99.3215 156.374C97.2121 154.42 95.7398 154.147 94.976 155.568C94.5577 156.346 94.5697 156.379 95.5221 157.103C96.0576 157.51 97.139 158.515 97.9251 159.336C99.5007 160.982 100.019 161.077 100.91 159.882C101.456 159.15 101.458 159.111 100.961 158.347C100.551 157.718 100.54 157.637 100.903 157.934C103.26 159.865 104.316 153.672 102.301 149.74C100.405 146.04 94.7586 142.813 93.1981 144.538ZM192.639 145.584C189.741 146.109 189.29 146.349 189.29 147.366C189.29 148.66 190.214 149.127 192.072 148.775C192.887 148.621 193.609 148.494 193.678 148.494C193.748 148.494 193.721 148.987 193.619 149.59C193.307 151.437 195.173 152.662 196.096 151.215C196.663 150.326 197.185 146.655 196.837 146.005C196.326 145.051 195.851 145.003 192.639 145.584ZM145.977 146.611C145.444 147.029 132.703 168.939 132.483 169.814C132.278 170.633 133.191 171.448 134.18 171.329C135.004 171.229 148.231 149.065 148.256 147.743C148.277 146.669 146.823 145.946 145.977 146.611ZM223.86 148.301C220.676 149.387 219.485 150.663 220.276 152.14C220.686 152.907 221.599 152.811 223.45 151.809C225.34 150.785 227.805 150.473 229.754 151.011C231.01 151.357 231.01 151.357 229.475 151.883C227.817 152.45 227.243 152.988 227.243 153.973C227.243 155.155 228.199 155.496 229.885 154.916C235.93 152.836 237.475 154.001 243.569 165.237C247.399 172.298 250.287 176.374 255.184 181.628C259.832 186.615 259.898 187.951 255.689 191.848C247.472 199.455 241.048 200.054 237.761 193.518C237.387 192.775 234.484 184.361 231.309 174.82C227.566 163.572 225.387 157.414 225.111 157.308C222.057 156.137 222.106 156.397 228.521 175.578C235.312 195.881 235.235 195.405 232.48 199.827C231.359 201.628 231.685 203.191 233.182 203.191C233.795 203.191 235.429 200.999 236.197 199.145C236.824 197.633 236.824 197.633 237.811 198.5C242.864 202.936 250.905 201.091 258.103 193.845C262.909 189.005 262.874 185.551 257.965 180.168C255.071 176.995 251.923 173.123 250.476 170.959C249.389 169.333 248.931 168.543 244.972 161.471C243.941 159.629 242.483 157.314 241.732 156.328C240.981 155.34 240.412 154.488 240.467 154.432C240.715 154.185 243.081 155.374 243.75 156.083C244.599 156.982 244.83 157.021 245.934 156.451C249.187 154.768 244.643 151.667 237.757 150.87C236.665 150.743 235.475 150.327 234.129 149.602C230.4 147.591 227.15 147.18 223.86 148.301ZM150.789 156.29C150.631 156.586 150.501 157.042 150.501 157.303C150.501 159.255 177.953 202.439 185.17 211.838C187.304 214.618 187.872 214.992 188.753 214.195C189.7 213.338 189.392 212.539 186.749 208.996C181.354 201.763 162.656 172.659 155.91 160.997C152.686 155.422 151.726 154.54 150.789 156.29ZM91.462 158.387C90.6929 159.561 91.1581 160.027 99.0324 165.968C106.697 171.75 106.697 171.75 110.771 178.052C115.985 186.117 116.023 186.168 116.971 186.168C119.002 186.168 118.853 184.905 116.372 181.078C115.252 179.349 114.225 177.756 114.091 177.536C113.958 177.316 116.181 178.915 119.031 181.088C125.23 185.813 125.528 185.978 126.255 185.08C127.464 183.587 127.739 183.868 117.592 176.232C109.101 169.843 109.101 169.843 106.742 166.215C105.445 164.219 104.243 162.495 104.07 162.382C103.088 161.738 101.457 162.741 101.739 163.817C101.834 164.182 100.388 163.243 97.4568 161.036C92.8216 157.546 92.1948 157.269 91.462 158.387ZM118.883 172.617C117.498 174.002 118.683 175.141 121.757 175.382C126.251 175.733 132.082 177.706 140.036 181.567C149.836 186.324 151.32 187.957 157.91 201.228C165.114 215.735 171.788 226.331 180.928 237.772C184.365 242.074 184.365 242.074 184.483 244.469C184.548 245.786 184.644 246.908 184.695 246.962C184.823 247.096 168.634 261.356 168.248 261.45C168.08 261.491 160.287 247.072 150.932 229.407C141.061 210.77 133.696 197.168 133.385 197.002C132.648 196.607 131.587 197.125 131.371 197.984C131.169 198.789 165.946 264.721 166.91 265.362C167.679 265.872 168.117 265.615 171.203 262.849C174.48 259.911 176.481 260.166 178.355 263.763C181.518 269.833 172.548 274.65 169.003 268.785C167.783 266.767 167.158 266.347 166.256 266.938C163.629 268.659 168.594 273.962 173.137 274.289C181.793 274.91 185.16 263.007 177.495 258.879C176.531 258.36 176.531 258.36 177.957 257.113C178.742 256.427 179.817 255.431 180.346 254.898C180.876 254.366 182.438 252.968 183.818 251.792C188.127 248.119 187.705 248.934 187.535 244.617C187.387 240.877 187.387 240.877 184.429 237.25C175.015 225.711 167.338 213.631 160.523 199.635C153.497 185.205 150.817 182.703 135.369 176.151C128.247 173.13 120.114 171.386 118.883 172.617ZM200.602 174.436C199.849 175.269 202.214 180.136 211.366 196.582C217.447 207.509 218.395 210.396 216.55 212.361C211.656 217.571 216.517 221.449 222.355 216.993C223.681 215.98 223.681 215.981 224.504 216.979C226.979 219.981 231.955 222.645 233.047 221.553C233.949 220.651 233.452 219.721 231.498 218.649C230.207 217.941 228.77 216.752 226.927 214.868C223.92 211.795 223.594 211.675 222.205 213.124C219.576 215.867 216.557 216.891 218.872 214.255C222.032 210.656 221.773 209.828 211.409 190.354C201.788 172.273 202.118 172.761 200.602 174.436ZM214.859 177.103C214.087 177.876 214.266 178.257 219.59 187.144C227.124 199.721 227.746 201.15 227.354 204.98C227.18 206.677 227.205 206.781 227.891 207.23C231.07 209.313 231.279 201.951 228.212 195.947C222.15 184.077 216.234 175.729 214.859 177.103ZM107.181 178.363C102.975 180.07 99.9037 183.129 101.054 184.463C101.775 185.298 109.722 189.755 116.873 193.335C120.404 195.102 123.606 196.722 123.99 196.935C125.424 197.731 127.066 197.073 127.051 195.71C127.044 195.004 126.534 194.706 118.749 190.851C114.187 188.593 109.145 185.971 107.544 185.025C104.188 183.042 104.177 183.192 107.804 181.493C110.055 180.438 110.305 180.218 110.311 179.277C110.321 177.943 109.095 177.585 107.181 178.363ZM84.5399 182.281C83.557 183.054 83.4898 182.81 86.14 188.081C87.4243 190.635 89.3841 194.798 90.4951 197.33C97.864 214.13 104.558 224.257 106.807 222.007C107.565 221.249 107.297 220.464 105.568 218.373C101.582 213.554 98.447 207.949 93.7205 197.191C87.5763 183.205 86.202 180.973 84.5399 182.281ZM198.019 181.987C197.026 182.387 197.015 183.249 197.93 189.251C200.951 209.082 201.414 221.765 199.332 227.688C198.256 230.749 198.288 230.782 204.252 232.785C211.663 235.274 216.886 236.505 221.875 236.938C223.472 237.077 224.827 237.24 224.887 237.299C225.022 237.434 222.259 250.789 221.029 255.951C220.127 259.736 220.127 259.736 219.506 258.985C218.729 258.045 217.958 257.832 217.215 258.352C216.269 259.014 216.488 260.096 217.89 261.699C218.578 262.486 219.26 263.443 219.406 263.827C219.656 264.484 221.065 265.421 221.801 265.421C222.707 265.421 223.454 263.452 222.812 262.756C222.669 262.602 223.077 260.338 223.79 257.329C224.814 253.002 228.08 237.669 228.08 237.186C228.08 237.104 228.928 236.958 229.964 236.86C231 236.763 232.938 236.382 234.27 236.015C236.693 235.346 236.693 235.346 236.458 235.942C229.017 254.835 224.511 266.964 224.64 267.757C224.809 268.802 224.008 270.725 222.908 271.911C222.024 272.864 222.371 272.945 219.593 271.134C218.292 270.286 215.619 268.762 213.654 267.747C207.195 264.413 205.92 263.303 207.146 262.077C208.373 260.85 210.304 261.52 212.31 263.869C214.66 266.619 217.357 265.759 215.371 262.893C212 258.029 206.609 257.016 204.434 260.838C202.578 264.099 204.14 266.202 211.059 269.756C213.629 271.076 217.059 273.027 218.681 274.091C223.18 277.041 227.373 274.298 227.688 268.199C227.753 266.962 229.006 263.448 233.924 250.723C237.31 241.963 240.08 234.557 240.08 234.266C240.08 233.939 240.477 233.523 241.114 233.183C242.744 232.314 245.279 230.383 248.4 227.633C251.839 224.604 254.919 222.433 256.744 221.751C260.032 220.524 260.041 220.552 253.192 211.273C246.052 201.602 245.814 201.363 244.545 202.632C243.671 203.506 243.675 203.512 249.557 211.445C254.252 217.777 255.058 219.001 254.682 219.237C251.38 221.306 249.683 222.549 247.086 224.805C237.611 233.03 231.127 235.205 220.337 233.776C214.454 232.997 202.14 229.416 202.367 228.549C204.262 221.289 204.073 211.714 201.683 193.981C200.02 181.645 199.894 181.233 198.019 181.987ZM104.04 193.417C103.619 194.23 103.668 194.389 106.238 200.633C114.461 220.608 121.028 239.439 120.113 240.413C119.23 241.353 119.386 241.962 120.909 243.506C122.425 245.043 122.518 245.29 125.94 256.982C127.291 261.6 127.534 262.06 128.621 262.069C130.551 262.082 130.474 261.346 127.516 251.575C126.577 248.471 126.577 248.472 129.123 250.462C130.523 251.556 132.198 252.827 132.846 253.286C133.803 253.963 134.132 254.441 134.601 255.835C135.716 259.148 138.574 263.032 141.47 265.171C143.701 266.819 147.655 268.662 148.21 268.313C149.839 267.285 149.344 265.979 146.945 264.98C143.362 263.489 138.222 258.745 138.222 256.929C138.222 256.849 139.321 257.448 140.664 258.261C142.007 259.074 144.236 260.35 145.617 261.097C146.998 261.844 148.191 262.543 148.268 262.65C148.636 263.163 159.456 267.933 160.253 267.933C163.407 267.933 161.526 265.429 156.919 263.493C147.011 259.331 136.55 252.855 127.39 245.212C124.966 243.191 124.966 243.191 123.328 238.19C118.168 222.446 107.656 194.779 106.185 193.074C105.52 192.303 104.535 192.46 104.04 193.417ZM70.3052 200.265C68.7184 201.852 79.8951 218.613 91.8854 232.628C97.4069 239.081 97.0039 239.059 101.901 233.19C106.397 227.802 107.822 225.068 106.562 224.243C105.471 223.528 104.974 223.844 103.333 226.289C97.9469 234.32 97.5261 234.538 94.4028 230.92C87.3525 222.754 81.0563 214.152 74.785 204.118C72.0515 199.745 71.3924 199.178 70.3052 200.265ZM231.429 207.656C230.487 208.597 232.2 211.467 233.981 211.933C234.588 212.092 235.894 211.056 235.894 210.416C235.894 208.948 232.336 206.748 231.429 207.656ZM229.1 211.515C228.221 212.486 228.534 213.117 230.912 215.175C233.653 217.548 235.336 217.691 235.336 215.553C235.336 213.984 229.995 210.526 229.1 211.515ZM250.281 231.717C248.898 233.692 252.962 234.946 259.366 234.519C261.999 234.343 261.817 233.805 262.03 242.399C262.285 252.702 262.055 253.282 257.709 253.282C254.153 253.282 253.325 252.843 253.566 251.085C253.879 248.805 251.825 247.857 250.813 249.814C249.141 253.048 252.18 256.171 257.258 256.438C263.879 256.785 265.056 254.94 265.056 244.213C265.056 231.744 264.755 230.886 260.584 231.424C258.703 231.667 257.338 231.666 254.987 231.421C250.874 230.992 250.785 230.998 250.281 231.717ZM100.127 236.483C96.2753 240.391 93.1651 242.942 88.7956 245.78C85.1279 248.163 85.0268 250.003 88.3943 253.08C93.4272 257.681 100.707 255.042 105.637 246.832C111.528 237.021 111.077 233.045 104.776 239.243C101.253 242.709 99.3634 244.349 96.0096 246.854C93.6496 248.617 93.173 249.449 94.0004 250.363C94.9383 251.4 96.4916 250.583 101.316 246.52C102.988 245.112 103.112 245.167 101.977 246.814C98.212 252.276 92.9355 253.97 90.1167 250.62C89.0732 249.38 89.1567 249.19 91.409 247.698C99.7993 242.137 106.827 234.864 105.292 233.329C104.351 232.388 103.881 232.675 100.127 236.483ZM249.568 238.652C241.373 239.685 241.14 239.771 241.591 241.569C241.845 242.581 242.4 242.603 248.555 241.849C256.496 240.875 255.707 240.717 255.707 243.279C255.707 245.331 255.687 245.397 255.197 244.954C254.246 244.093 252.358 244.62 252.358 245.746C252.358 246.369 253.804 247.89 254.787 248.301C255.293 248.512 255.707 248.812 255.707 248.967C255.707 249.121 256.016 249.389 256.393 249.56C257.209 249.932 258.493 249.265 258.506 248.462C258.51 248.197 258.887 247.614 259.343 247.166C260.43 246.099 260.246 244.492 259.036 244.492C258.893 244.492 258.777 243.186 258.777 241.581C258.777 237.228 259.371 237.417 249.568 238.652ZM10.411 240.027C9.31322 241.125 9.56689 241.403 17.6675 247.971C22.9401 252.246 25.5374 254.529 25.6529 254.988C26.0042 256.388 28.3947 256.429 29.1342 255.048C29.7255 253.943 29.046 253.248 21.1363 246.864C11.0188 238.698 11.4589 238.979 10.411 240.027ZM188.12 251.957C187.361 252.84 187.309 253.117 187.744 253.958C188.634 255.679 187.829 257.09 185.767 257.419C184.012 257.7 183.53 259.759 185.102 260.258C187.643 261.065 190.965 258.114 190.965 255.051C190.965 252.633 189.194 250.707 188.12 251.957ZM172.174 265.44C170.784 267.425 174.827 269.585 176.605 267.806C177.93 266.482 176.657 264.683 175.095 265.672C174.844 265.831 174.533 265.734 174.188 265.389C173.5 264.701 172.677 264.722 172.174 265.44ZM203.403 268.092C202.065 269.43 202.447 269.794 210.15 274.519C217.764 279.19 218.431 279.487 219.259 278.571C220.347 277.369 219.895 276.966 212.07 272.172C204.451 267.505 204.138 267.358 203.403 268.092Z" fill="#5B5B5B"/>
</svg>
