<svg width="234" height="249" viewBox="0 0 234 249" fill="none" xmlns="http://www.w3.org/2000/svg">
<path fill-rule="evenodd" clip-rule="evenodd" d="M63.0945 0.441903C60.145 2.15981 62.6708 9.6119 68.0741 15.134C70.5161 17.6302 70.9244 17.8004 71.9673 16.7573C72.9091 15.8157 72.894 15.7764 70.7687 13.6237C67.759 10.5755 65.0013 5.94502 65.176 4.23297C65.2631 3.37959 65.659 3.73791 76.8428 14.7913C83.2099 21.0842 88.3968 26.2764 88.3692 26.3297C88.2754 26.51 83.1278 23.9585 81.2285 22.7901C78.9187 21.3691 78.1052 21.3057 77.4531 22.4962C75.8758 25.3753 75.4678 23.8715 76.9488 20.6368C78.0762 18.1741 77.7101 16.9605 75.9168 17.2155C74.7132 17.3869 72.9314 21.9032 72.9314 24.7826C72.9314 26.0079 72.9314 26.008 70.6699 26.9576C67.7088 28.2011 67.4872 28.6311 68.6846 30.8095C70.0487 33.2906 70.2792 34.8277 69.7141 37.6744C69.0784 40.8781 69.8277 43.3001 71.4878 43.4075C71.5911 43.4142 72.2301 43.5267 72.908 43.6576C74.5824 43.9807 81.9273 43.3355 84.1534 42.6699C85.7747 42.1849 86.7149 48.7597 85.2967 50.6645C84.6738 51.5012 83.3754 53.5671 82.4115 55.2554C81.4473 56.9437 80.364 58.7624 80.0043 59.2968C78.5551 61.4486 79.3755 62.5205 82.2613 62.2459C90.2674 61.4841 97.9756 57.7689 105.042 51.2662C106.873 49.5804 106.873 49.5804 109.121 49.7344C110.358 49.8193 112.373 49.7417 113.6 49.5622C115.653 49.2622 116.006 49.2868 118.032 49.872C123.369 51.4138 131.54 50.6793 140.248 47.875C148.794 45.1229 153.495 44.615 154.838 46.2992C156.453 48.3235 156.763 51.8701 155.536 54.2753C154.812 55.6944 154.97 56.6956 155.979 57.0794C157.774 57.7617 159.002 55.2914 159.014 50.976C159.022 48.0919 159.022 48.0919 159.965 49.1621C163.509 53.1836 163.709 59.846 160.415 64.1645C158.747 66.3504 160.619 68.4754 162.399 66.4179C168.338 59.5558 166.434 48.6221 158.563 44.3859C157.741 43.9436 156.261 42.8321 155.274 41.9159C148.912 36.0107 140.946 36.0793 126.63 42.1632C117.283 46.1351 116.239 46.3578 113.815 44.8966C110.201 42.7171 106.819 38.885 108.917 39.3458C111.308 39.8712 113.53 37.3167 112.857 34.816C112.093 31.9802 106.818 29.5677 106.258 31.7982C105.964 32.9714 106.347 33.5354 107.693 33.9124C108.931 34.259 110.16 35.3772 109.963 35.9775C109.704 36.7641 108.425 36.3584 104.795 34.3391C96.7921 29.8869 93.1654 26.8393 79.2103 12.8393C66.3916 -0.020783 65.3133 -0.850437 63.0945 0.441903ZM91.21 2.93728C89.3102 3.31848 86.9485 4.32088 85.276 5.45554C83.6753 6.54166 83.6753 6.54166 82.9777 5.71061C81.8226 4.33455 80.1871 4.7657 80.1871 6.44621C80.1871 8.56179 91.0356 23.3694 93.0552 24.0104C95.3756 24.7469 95.4551 22.3938 93.1903 20.0162C86.4328 12.9213 84.6264 9.43581 86.9342 7.94394C92.6983 4.21846 100.327 5.02858 104.772 9.83822C108.165 13.5085 109.029 17.059 108.199 23.9069C107.954 25.9265 110.106 26.6314 110.838 24.7714C115.409 13.1568 103.928 0.384695 91.21 2.93728ZM80.4848 25.8277C82.7184 27.4181 91.8368 31.1165 93.5243 31.1165C94.2236 31.1165 96.3727 32.3778 96.3727 32.7881C96.3727 34.2908 93.6702 34.9597 92.1477 33.8343C90.6519 32.7281 88.8919 34.5319 90.1303 35.9016C90.9126 36.7661 92.5973 37.5349 93.7104 37.5349C94.5741 37.5349 94.6983 37.6214 94.6983 38.222C94.6983 41.2956 98.1866 45.7924 102.18 47.8672C103.383 48.4923 103.383 48.4923 102.599 49.3228C98.9367 53.2004 92.2794 56.9451 86.3638 58.4551C83.4557 59.1974 83.5132 59.3102 85.247 56.2734C86.6049 53.895 86.7244 53.766 87.0866 54.2834C87.5504 54.9454 88.8952 55.0218 89.3992 54.4146C90.6449 52.9138 88.0658 40.4193 86.3172 39.4833C85.9388 39.281 85.026 39.3709 83.0592 39.804C78.4019 40.8298 72.4855 40.7302 72.5988 39.6279C72.9641 36.0746 72.7715 32.0552 72.1833 30.9563C71.5255 29.727 72.2131 29.1226 74.4305 28.9811C75.4315 28.9172 77.9091 27.228 78.6522 26.1028C79.3139 25.1013 79.4383 25.0823 80.4848 25.8277ZM144.603 26.3607C142.152 26.8086 140.045 27.5403 137.674 28.7684C135.444 29.9232 133.971 30.9563 128.186 35.4241C125.504 37.495 122.892 38.9481 120.685 39.5966C118.881 40.1266 118.419 40.4732 118.419 41.2931C118.419 44.5746 124.282 42.4227 132.056 36.2881C139.527 30.3923 142.06 29.3051 148.278 29.3257C155.567 29.35 161.342 32.5196 165.373 38.7087C167.433 41.8715 170.258 41.53 168.68 38.3088C164.741 30.2698 153.566 24.7243 144.603 26.3607ZM75.6288 34.0402C75.0523 34.6168 75.0308 35.4029 75.5795 35.858C75.808 36.0478 75.9255 36.3154 75.8404 36.4527C74.579 38.4941 78.4036 38.6023 79.7397 36.5632C80.993 34.65 77.2909 32.3778 75.6288 34.0402ZM100.633 35.3995C101.436 35.9133 102.421 36.5322 102.82 36.7747C103.253 37.0371 103.942 38.0423 104.522 39.259C105.665 41.6533 107.587 44.0982 109.542 45.6436C111.181 46.9396 110.947 47.0136 107.374 46.3299C100.769 45.0663 95.7105 39.1543 98.0906 35.4816C98.8893 34.2492 98.8368 34.2509 100.633 35.3995ZM146.508 40.8876C149.253 41.3332 150.936 42.1838 149.515 42.4073C146.145 42.937 144.667 43.2995 140.744 44.5586C133.64 46.8383 120.37 48.9017 121.767 47.5095C122.109 47.169 133.77 42.4908 135.817 41.8729C139.978 40.6166 143.077 40.3308 146.508 40.8876ZM102.077 56.637C101.421 57.6383 101.768 58.2824 103.712 59.6738C109.295 63.6677 115.165 72.3739 115.967 77.8477C116.035 78.3185 99.6578 89.1439 98.855 89.1584C98.6764 89.1618 98.1146 85.2345 97.9575 82.8826C97.806 80.6191 98.2815 75.5873 98.8882 73.0325C99.5473 70.2581 99.2741 69.5239 97.6427 69.6832C94.1048 70.0295 94.1664 93.0689 97.7055 93.0681C98.1235 93.0681 99.2802 92.5669 100.276 91.9544C102.086 90.8409 102.087 90.8409 104.08 98.7219C108.399 115.8 117.887 145.232 119.731 147.269C120.31 147.909 121.277 147.902 121.864 147.254C122.487 146.566 122.67 147.241 119.424 138.308C109.896 112.091 104.047 89.596 106.373 88.1234C107.243 87.5734 108.797 86.5827 109.827 85.9221C111.701 84.7211 111.701 84.7211 111.854 85.6157C111.938 86.1077 112.384 89.0658 112.845 92.1888C114.636 104.323 117.29 118.122 120.421 131.579C122.302 139.661 122.5 140.11 124.142 139.999C124.981 139.943 125.349 140.136 126.588 141.287C128.485 143.05 129.326 143.597 131.589 144.543C133.565 145.369 134.796 146.392 134.462 146.932C134.183 147.384 132.644 147.055 130.796 146.149C129.167 145.35 128.748 145.416 127.964 146.597C127.583 147.172 127.622 147.275 128.568 148.167C129.406 148.957 129.497 149.143 129.093 149.243C128.426 149.407 127.062 149.317 126.308 149.06C125.309 148.718 124.73 149.27 124.279 150.992C123.878 152.525 123.152 153.429 122.693 152.969C122.573 152.85 122.693 152.373 122.959 151.91C123.627 150.746 123.564 150.09 122.733 149.545C121.232 148.562 119.241 150.993 119.671 153.285C120.155 155.865 123.34 157.107 125.133 155.414C125.847 154.739 125.847 154.739 126.479 155.594C128.119 157.812 130.539 158.141 132.511 156.416C133.056 155.939 133.3 156.142 142.534 164.772C152.304 173.903 152.499 174.12 150.992 174.161C150.497 174.174 149.963 174.205 149.804 174.23C149.271 174.314 143.128 179.579 142.925 180.126C142.618 180.957 143.525 181.837 145.213 182.346C147.064 182.903 147.515 183.868 146.541 185.185C145.684 186.344 144.679 185.111 167.189 210.525C187.803 233.798 187.803 233.798 187.296 234.793C185.58 238.159 189.894 243.215 194.566 243.312C197.476 243.373 197.392 241.332 194.448 240.449C192.258 239.792 190.882 238.803 190.143 237.354C189.264 235.63 190.057 235.694 192.874 237.573C195.679 239.445 198.93 241.239 200.763 241.927C201.777 242.307 202.11 242.602 202.386 243.363C203.278 245.83 207.223 248.514 210.284 248.735C216.249 249.167 219.795 243.271 216.422 238.533C215.848 237.728 215.848 237.728 223.72 229.792C236.3 217.108 236.393 216.315 226.52 205.964C219.635 198.746 205.82 185.396 192.156 172.758C186.468 167.498 186.73 168.496 190.208 165.332C194.126 161.766 194.316 161.471 193.327 160.482C192.419 159.574 191.648 159.954 188.274 162.977C186.472 164.591 184.91 165.878 184.802 165.838C184.693 165.797 183.397 164.666 181.922 163.322C179.06 160.718 178.455 160.471 177.251 161.418C176.295 162.17 173.952 161.482 173.952 160.449C173.952 158.099 168.783 158.806 164.421 161.753C162.4 163.118 157.559 167.091 156.646 168.133C155.944 168.935 155.944 168.935 146.017 159.365C137.02 150.691 136.141 149.764 136.624 149.462C139.356 147.756 137.819 144.324 133.369 142.193C131.638 141.364 129.741 140.18 128.544 139.18C127.459 138.273 126.182 137.371 125.706 137.174C124.729 136.768 124.864 137.151 123.184 130.044C120.401 118.268 117.573 103.518 115.774 91.394C115.239 87.7871 114.731 84.4286 114.644 83.9308C114.492 83.0523 114.557 82.9805 116.833 81.5124C119.911 79.5263 119.977 78.8831 117.683 73.205C114.027 64.1569 104.073 53.5899 102.077 56.637ZM75.8806 63.9063C70.4589 71.0143 71.5676 80.9172 79.2215 93.7501C83.0611 100.188 83.3276 104.358 80.2878 110.431C79.2279 112.548 79.5904 113.998 81.1797 113.998C81.7216 113.998 82.0088 113.684 82.6481 112.393C86.2084 105.205 86.3192 100.459 83.0659 94.4922C74.8829 79.4842 73.6961 73.2954 77.7051 66.5407C79.4671 63.5723 77.8812 61.2831 75.8806 63.9063ZM84.7104 110.161C84.5513 110.353 82.3322 115.337 79.7788 121.238C66.6252 151.633 58.6512 167.051 50.0053 178.803C47.6824 181.961 49.9076 183.303 52.6277 180.385C54.5024 178.374 54.5303 178.316 50.6058 184.601C43.0541 196.694 38.117 203.35 30.0255 212.345C28.2214 214.351 27.9236 215.179 28.7198 215.976C29.6636 216.919 30.3361 216.526 33.1016 213.414C41.3334 204.151 45.7041 198.114 55.274 182.787C60.687 174.117 60.0306 174.633 65.7274 174.581C68.2058 174.559 72.4629 175.109 72.8564 175.503C73.1597 175.806 53.404 199.036 46.0141 207.066C28.8906 225.671 24.0818 230.028 19.8141 230.803C18.7419 230.997 18.7419 230.997 19.2155 230.081C19.9996 228.565 20.1191 224.996 19.4094 224.286C18.224 223.1 16.8398 224.31 16.8398 226.532C16.8398 228.05 16.3604 229.377 15.3192 230.742C12.0296 235.055 20.7193 235.045 26.7111 230.729C32.9094 226.264 53.2904 204.105 71.6313 181.891C76.7783 175.656 75.1452 175.802 85.0707 180.692C99.1745 187.641 105.043 188.73 114.22 186.099C123.292 183.498 135.32 172.953 131.528 170.924C130.735 170.499 130.218 170.864 128.251 173.242C121.984 180.819 112.35 184.991 103.292 184.051C98.4459 183.549 94.7421 182.208 85.2493 177.521C73.026 171.486 63.6643 169.795 58.3163 172.657C57.8031 172.931 57.8096 172.876 58.4104 171.87C68.21 155.447 88.1794 111.944 86.6298 110.395C85.9748 109.74 85.1435 109.639 84.7104 110.161ZM121.392 184.274C120.049 185.758 125.711 193.442 132.581 199.457C143.351 208.887 162.511 216.69 162.511 211.645C162.511 210.957 161.546 210.375 159.999 210.128C147.638 208.157 133.67 198.714 125.13 186.554C123.061 183.609 122.374 183.189 121.392 184.274ZM0.27883 205.762C-2.14371 208.439 11.9353 226.375 14.8543 224.331C16.0294 223.507 15.6477 222.461 13.5608 220.787C10.0879 218 7.0768 214.521 5.12783 211.042C4.0339 209.09 3.93735 209.093 8.51509 210.932C17.0382 214.357 19.3514 215.827 19.3514 217.817C19.3514 221.072 25.1855 224.179 27.4501 222.13C28.9255 220.795 27.8885 219.484 25.3568 219.484C23.3604 219.484 22.5969 218.817 22.3251 216.835C21.9539 214.127 21.0294 213.343 14.9204 210.551C5.94771 206.451 1.09258 204.863 0.27883 205.762ZM161.23 215.507C157.645 222.098 155.365 225.614 152.076 229.623C150.004 232.147 149.959 232.945 151.836 233.776C157.682 236.363 169.473 228.388 171.458 220.505C172.227 217.452 169.454 217.025 168.485 220.047C166.959 224.802 160.44 230.453 155.43 231.362C154.35 231.558 154.35 231.558 155.597 230.028C158.305 226.703 163.906 217.457 163.906 216.311C163.906 214.893 161.893 214.288 161.23 215.507ZM211.23 237.344C211.448 237.344 211.626 237.501 211.626 237.693C211.626 237.885 212.096 238.449 212.672 238.946C213.719 239.851 213.719 239.851 212.936 240.551C211.741 241.618 210.317 241.515 209.114 240.274C207.117 238.213 204.917 239.748 206.602 242.027C208.087 244.036 211.195 244.82 213.509 243.77C214.788 243.19 214.94 243.289 214.26 244.26C211.345 248.421 202.742 243.236 205.075 238.725C205.555 237.797 206.825 237.58 207.44 238.321C208.12 239.14 209.951 238.476 209.951 237.41C209.951 237.155 210.115 237.068 210.393 237.174C210.635 237.268 211.012 237.344 211.23 237.344Z" fill="#FFE1B4"/>
<path fill-rule="evenodd" clip-rule="evenodd" d="M63.0945 0.441903C60.145 2.15981 62.6708 9.6119 68.0741 15.134C70.5161 17.6302 70.9244 17.8004 71.9673 16.7573C72.9091 15.8157 72.894 15.7764 70.7687 13.6237C67.759 10.5755 65.0013 5.94502 65.176 4.23297C65.2631 3.37959 65.659 3.73791 76.8428 14.7913C83.2099 21.0842 88.3968 26.2764 88.3692 26.3297C88.2754 26.51 83.1278 23.9585 81.2285 22.7901C78.9187 21.3691 78.1052 21.3057 77.4531 22.4962C75.8758 25.3753 75.4678 23.8715 76.9488 20.6368C78.0762 18.1741 77.7101 16.9605 75.9168 17.2155C74.7132 17.3869 72.9314 21.9032 72.9314 24.7826C72.9314 26.0079 72.9314 26.008 70.6699 26.9576C67.7088 28.2011 67.4872 28.6311 68.6846 30.8095C70.0487 33.2906 70.2792 34.8277 69.7141 37.6744C69.0784 40.8781 69.8277 43.3001 71.4878 43.4075C71.5911 43.4142 72.2301 43.5267 72.908 43.6576C74.5824 43.9807 81.9273 43.3355 84.1534 42.6699C85.7747 42.1849 86.7149 48.7597 85.2967 50.6645C84.6738 51.5012 83.3754 53.5671 82.4115 55.2554C81.4473 56.9437 80.364 58.7624 80.0043 59.2968C78.5551 61.4486 79.3755 62.5205 82.2613 62.2459C90.2674 61.4841 97.9756 57.7689 105.042 51.2662C106.873 49.5804 106.873 49.5804 109.121 49.7344C110.358 49.8193 112.373 49.7417 113.6 49.5622C115.653 49.2622 116.006 49.2868 118.032 49.872C123.369 51.4138 131.54 50.6793 140.248 47.875C148.794 45.1229 153.495 44.615 154.838 46.2992C156.453 48.3235 156.763 51.8701 155.536 54.2753C154.812 55.6944 154.97 56.6956 155.979 57.0794C157.774 57.7617 159.002 55.2914 159.014 50.976C159.022 48.0919 159.022 48.0919 159.965 49.1621C163.509 53.1836 163.709 59.846 160.415 64.1645C158.747 66.3504 160.619 68.4754 162.399 66.4179C168.338 59.5558 166.434 48.6221 158.563 44.3859C157.741 43.9436 156.261 42.8321 155.274 41.9159C148.912 36.0107 140.946 36.0793 126.63 42.1632C117.283 46.1351 116.239 46.3578 113.815 44.8966C110.201 42.7171 106.819 38.885 108.917 39.3458C111.308 39.8712 113.53 37.3167 112.857 34.816C112.093 31.9802 106.818 29.5677 106.258 31.7982C105.964 32.9714 106.347 33.5354 107.693 33.9124C108.931 34.259 110.16 35.3772 109.963 35.9775C109.704 36.7641 108.425 36.3584 104.795 34.3391C96.7921 29.8869 93.1654 26.8393 79.2103 12.8393C66.3916 -0.020783 65.3133 -0.850437 63.0945 0.441903ZM91.21 2.93728C89.3102 3.31848 86.9485 4.32088 85.276 5.45554C83.6753 6.54166 83.6753 6.54166 82.9777 5.71061C81.8226 4.33455 80.1871 4.7657 80.1871 6.44621C80.1871 8.56179 91.0356 23.3694 93.0552 24.0104C95.3756 24.7469 95.4551 22.3938 93.1903 20.0162C86.4328 12.9213 84.6264 9.43581 86.9342 7.94394C92.6983 4.21846 100.327 5.02858 104.772 9.83822C108.165 13.5085 109.029 17.059 108.199 23.9069C107.954 25.9265 110.106 26.6314 110.838 24.7714C115.409 13.1568 103.928 0.384695 91.21 2.93728ZM80.4848 25.8277C82.7184 27.4181 91.8368 31.1165 93.5243 31.1165C94.2236 31.1165 96.3727 32.3778 96.3727 32.7881C96.3727 34.2908 93.6702 34.9597 92.1477 33.8343C90.6519 32.7281 88.8919 34.5319 90.1303 35.9016C90.9126 36.7661 92.5973 37.5349 93.7104 37.5349C94.5741 37.5349 94.6983 37.6214 94.6983 38.222C94.6983 41.2956 98.1866 45.7924 102.18 47.8672C103.383 48.4923 103.383 48.4923 102.599 49.3228C98.9367 53.2004 92.2794 56.9451 86.3638 58.4551C83.4557 59.1974 83.5132 59.3102 85.247 56.2734C86.6049 53.895 86.7244 53.766 87.0866 54.2834C87.5504 54.9454 88.8952 55.0218 89.3992 54.4146C90.6449 52.9138 88.0658 40.4193 86.3172 39.4833C85.9388 39.281 85.026 39.3709 83.0592 39.804C78.4019 40.8298 72.4855 40.7302 72.5988 39.6279C72.9641 36.0746 72.7715 32.0552 72.1833 30.9563C71.5255 29.727 72.2131 29.1226 74.4305 28.9811C75.4315 28.9172 77.9091 27.228 78.6522 26.1028C79.3139 25.1013 79.4383 25.0823 80.4848 25.8277ZM144.603 26.3607C142.152 26.8086 140.045 27.5403 137.674 28.7684C135.444 29.9232 133.971 30.9563 128.186 35.4241C125.504 37.495 122.892 38.9481 120.685 39.5966C118.881 40.1266 118.419 40.4732 118.419 41.2931C118.419 44.5746 124.282 42.4227 132.056 36.2881C139.527 30.3923 142.06 29.3051 148.278 29.3257C155.567 29.35 161.342 32.5196 165.373 38.7087C167.433 41.8715 170.258 41.53 168.68 38.3088C164.741 30.2698 153.566 24.7243 144.603 26.3607ZM75.6288 34.0402C75.0523 34.6168 75.0308 35.4029 75.5795 35.858C75.808 36.0478 75.9255 36.3154 75.8404 36.4527C74.579 38.4941 78.4036 38.6023 79.7397 36.5632C80.993 34.65 77.2909 32.3778 75.6288 34.0402ZM100.633 35.3995C101.436 35.9133 102.421 36.5322 102.82 36.7747C103.253 37.0371 103.942 38.0423 104.522 39.259C105.665 41.6533 107.587 44.0982 109.542 45.6436C111.181 46.9396 110.947 47.0136 107.374 46.3299C100.769 45.0663 95.7105 39.1543 98.0906 35.4816C98.8893 34.2492 98.8368 34.2509 100.633 35.3995ZM146.508 40.8876C149.253 41.3332 150.936 42.1838 149.515 42.4073C146.145 42.937 144.667 43.2995 140.744 44.5586C133.64 46.8383 120.37 48.9017 121.767 47.5095C122.109 47.169 133.77 42.4908 135.817 41.8729C139.978 40.6166 143.077 40.3308 146.508 40.8876ZM102.077 56.637C101.421 57.6383 101.768 58.2824 103.712 59.6738C109.295 63.6677 115.165 72.3739 115.967 77.8477C116.035 78.3185 99.6578 89.1439 98.855 89.1584C98.6764 89.1618 98.1146 85.2345 97.9575 82.8826C97.806 80.6191 98.2815 75.5873 98.8882 73.0325C99.5473 70.2581 99.2741 69.5239 97.6427 69.6832C94.1048 70.0295 94.1664 93.0689 97.7055 93.0681C98.1235 93.0681 99.2802 92.5669 100.276 91.9544C102.086 90.8409 102.087 90.8409 104.08 98.7219C108.399 115.8 117.887 145.232 119.731 147.269C120.31 147.909 121.277 147.902 121.864 147.254C122.487 146.566 122.67 147.241 119.424 138.308C109.896 112.091 104.047 89.596 106.373 88.1234C107.243 87.5734 108.797 86.5827 109.827 85.9221C111.701 84.7211 111.701 84.7211 111.854 85.6157C111.938 86.1077 112.384 89.0658 112.845 92.1888C114.636 104.323 117.29 118.122 120.421 131.579C122.302 139.661 122.5 140.11 124.142 139.999C124.981 139.943 125.349 140.136 126.588 141.287C128.485 143.05 129.326 143.597 131.589 144.543C133.565 145.369 134.796 146.392 134.462 146.932C134.183 147.384 132.644 147.055 130.796 146.149C129.17 145.351 128.748 145.417 127.971 146.586C126.746 148.432 133.453 150.989 136.139 149.701C139.444 148.116 138.093 144.455 133.369 142.193C131.638 141.364 129.741 140.18 128.544 139.18C127.459 138.273 126.182 137.371 125.706 137.174C124.729 136.768 124.864 137.151 123.184 130.044C120.401 118.268 117.573 103.518 115.774 91.394C115.239 87.7871 114.731 84.4286 114.644 83.9308C114.492 83.0523 114.557 82.9805 116.833 81.5124C119.911 79.5263 119.977 78.8831 117.683 73.205C114.027 64.1569 104.073 53.5899 102.077 56.637ZM75.8806 63.9063C70.4589 71.0143 71.5676 80.9172 79.2215 93.7501C83.0611 100.188 83.3276 104.358 80.2878 110.431C79.2279 112.548 79.5904 113.998 81.1797 113.998C81.7216 113.998 82.0088 113.684 82.6481 112.393C86.2084 105.205 86.3192 100.459 83.0659 94.4922C74.8829 79.4842 73.6961 73.2954 77.7051 66.5407C79.4671 63.5723 77.8812 61.2831 75.8806 63.9063ZM84.7104 110.161C84.5513 110.353 82.3322 115.337 79.7788 121.238C66.6252 151.633 58.6512 167.051 50.0053 178.803C47.6824 181.961 49.9076 183.303 52.6277 180.385C54.5024 178.374 54.5303 178.316 50.6058 184.601C43.0541 196.694 38.117 203.35 30.0255 212.345C28.2214 214.351 27.9236 215.179 28.7198 215.976C29.6636 216.919 30.3361 216.526 33.1016 213.414C41.3334 204.151 45.7041 198.114 55.274 182.787C60.687 174.117 60.0306 174.633 65.7274 174.581C68.2058 174.559 72.4629 175.109 72.8564 175.503C73.1597 175.806 53.404 199.036 46.0141 207.066C28.8906 225.671 24.0818 230.028 19.8141 230.803C18.7419 230.997 18.7419 230.997 19.2155 230.081C19.9996 228.565 20.1191 224.996 19.4094 224.286C18.224 223.1 16.8398 224.31 16.8398 226.532C16.8398 228.05 16.3604 229.377 15.3192 230.742C12.0296 235.055 20.7193 235.045 26.7111 230.729C32.9094 226.264 53.2904 204.105 71.6313 181.891C76.7783 175.656 75.1452 175.802 85.0707 180.692C99.1745 187.641 105.043 188.73 114.22 186.099C123.292 183.498 135.32 172.953 131.528 170.924C130.735 170.499 130.218 170.864 128.251 173.242C121.984 180.819 112.35 184.991 103.292 184.051C98.4459 183.549 94.7421 182.208 85.2493 177.521C73.026 171.486 63.6643 169.795 58.3163 172.657C57.8031 172.931 57.8096 172.876 58.4104 171.87C68.21 155.447 88.1794 111.944 86.6298 110.395C85.9748 109.74 85.1435 109.639 84.7104 110.161ZM125.064 149.216C124.805 149.416 124.429 150.257 124.227 151.086C123.875 152.534 123.149 153.425 122.693 152.969C122.573 152.85 122.693 152.373 122.959 151.91C123.627 150.746 123.564 150.09 122.733 149.545C121.232 148.562 119.241 150.993 119.671 153.285C120.155 155.865 123.34 157.107 125.133 155.414C125.847 154.739 125.847 154.739 126.479 155.594C128.119 157.812 131.091 158.156 132.628 156.304C132.934 155.935 134.05 156.873 140.7 163.08C155.698 177.08 155.283 176.743 156.481 175.867C157.729 174.954 157.267 174.437 145.093 163.111C132.056 150.983 132.413 151.22 130.881 153.695C130.357 154.54 129.936 154.644 129.203 154.108C128.663 153.713 128.602 153.225 128.866 151.393C129.088 149.852 128.777 149.338 127.575 149.262C127.067 149.23 126.4 149.125 126.093 149.029C125.786 148.933 125.323 149.017 125.064 149.216ZM170.308 159.208C165.689 159.991 155.579 167.589 156.375 169.681C156.986 171.288 157.759 170.995 161.458 167.757C165.948 163.827 168.188 162.535 171.399 162.023C173.411 161.702 173.952 161.368 173.952 160.448C173.952 159.059 173.033 158.747 170.308 159.208ZM188.274 162.977C186.472 164.591 184.91 165.878 184.802 165.838C184.693 165.797 183.397 164.666 181.922 163.322C178.66 160.353 178.421 160.314 176.234 162.369C175.363 163.188 170.317 167.664 165.022 172.316C159.727 176.969 155.141 181.003 154.831 181.281C154.212 181.836 154.571 181.895 149.311 180.374C147.413 179.825 147.413 179.825 149.66 177.97C152.02 176.02 152.283 175.489 151.348 174.555C150.388 173.594 150.239 173.666 146.165 177.058C141.376 181.045 141.509 181.352 148.884 183.371C153.816 184.72 153.816 184.72 172.605 206.56C184.266 220.115 191.641 228.469 192.047 228.583C192.94 228.834 193.903 227.881 193.673 226.974C193.556 226.511 163.746 191.557 157.038 184.016C155.309 182.073 178.608 164.361 180.571 166.125C181.695 167.135 182.581 168.04 182.539 168.136C182.498 168.232 180.486 170.103 178.068 172.295C173.686 176.268 173.415 176.621 173.962 177.643C174.666 178.958 175.658 178.412 180.384 174.107C184.859 170.031 184.859 170.031 186.312 171.386C227.289 209.583 231.869 214.523 229.942 218.45C229.133 220.099 213.781 235.948 212.992 235.948C211.479 235.948 211.287 237.749 212.672 238.946C213.719 239.851 213.719 239.851 212.936 240.551C211.741 241.618 210.317 241.515 209.114 240.274C207.117 238.213 204.917 239.748 206.602 242.027C208.087 244.036 211.195 244.82 213.509 243.77C214.788 243.19 214.94 243.289 214.26 244.26C211.345 248.421 202.742 243.236 205.075 238.725C205.555 237.797 206.825 237.58 207.44 238.321C208.175 239.207 209.951 238.455 209.951 237.256C209.951 233.993 203.961 234.283 202.367 237.623C202.038 238.314 201.736 238.921 201.697 238.972C201.417 239.338 196.861 236.756 192.959 234.019C190.48 232.281 189.202 230.897 169.296 208.391C146.848 183.011 147.504 183.673 146.431 185.31C145.737 186.37 144.975 185.445 167.189 210.525C187.803 233.798 187.803 233.798 187.296 234.793C185.58 238.159 189.894 243.215 194.566 243.312C197.476 243.373 197.392 241.332 194.448 240.449C192.258 239.792 190.882 238.803 190.143 237.354C189.264 235.63 190.057 235.694 192.874 237.573C195.679 239.445 198.93 241.239 200.763 241.927C201.777 242.307 202.11 242.602 202.386 243.363C203.278 245.83 207.223 248.514 210.284 248.735C216.249 249.167 219.795 243.271 216.422 238.533C215.848 237.728 215.848 237.728 223.72 229.792C236.3 217.108 236.393 216.315 226.52 205.964C219.635 198.746 205.82 185.396 192.156 172.758C186.468 167.498 186.73 168.496 190.208 165.332C194.126 161.766 194.316 161.471 193.327 160.482C192.419 159.574 191.648 159.954 188.274 162.977ZM121.392 184.274C120.049 185.758 125.711 193.442 132.581 199.457C143.351 208.887 162.511 216.69 162.511 211.645C162.511 210.957 161.546 210.375 159.999 210.128C147.638 208.157 133.67 198.714 125.13 186.554C123.061 183.609 122.374 183.189 121.392 184.274ZM0.27883 205.762C-2.14371 208.439 11.9353 226.375 14.8543 224.331C16.0294 223.507 15.6477 222.461 13.5608 220.787C10.0879 218 7.0768 214.521 5.12783 211.042C4.0339 209.09 3.93735 209.093 8.51509 210.932C17.0382 214.357 19.3514 215.827 19.3514 217.817C19.3514 221.072 25.1855 224.179 27.4501 222.13C28.9255 220.795 27.8885 219.484 25.3568 219.484C23.3604 219.484 22.5969 218.817 22.3251 216.835C21.9539 214.127 21.0294 213.343 14.9204 210.551C5.94771 206.451 1.09258 204.863 0.27883 205.762ZM161.23 215.507C157.645 222.098 155.365 225.614 152.076 229.623C150.004 232.147 149.959 232.945 151.836 233.776C157.682 236.363 169.473 228.388 171.458 220.505C172.227 217.452 169.454 217.025 168.485 220.047C166.959 224.802 160.44 230.453 155.43 231.362C154.35 231.558 154.35 231.558 155.597 230.028C158.305 226.703 163.906 217.457 163.906 216.311C163.906 214.893 161.893 214.288 161.23 215.507Z" fill="#5B5B5B"/>
</svg>
