<svg width="258" height="34" viewBox="0 0 258 34" fill="none" xmlns="http://www.w3.org/2000/svg">
<path d="M14.4619 25.7262H26.5413C26.7427 25.7262 26.9074 25.5625 26.9074 25.3625V21.5438C26.9074 21.3438 26.7427 21.1801 26.5413 21.1801H24.7111C24.5098 21.1801 24.3451 21.3438 24.3451 21.5438V23.1804H16.6582V21.5438C16.6582 21.3438 16.4935 21.1801 16.2921 21.1801H14.4619C14.2606 21.1801 14.0959 21.3438 14.0959 21.5438V25.3625C14.0959 25.5625 14.2606 25.7262 14.4619 25.7262ZM30.0187 20.1345C30.0187 20.6168 30.2116 21.0793 30.5548 21.4203C30.898 21.7614 31.3635 21.9529 31.849 21.9529C32.3344 21.9529 32.7999 21.7614 33.1431 21.4203C33.4863 21.0793 33.6792 20.6168 33.6792 20.1345C33.6792 19.6522 33.4863 19.1897 33.1431 18.8487C32.7999 18.5077 32.3344 18.3161 31.849 18.3161C31.3635 18.3161 30.898 18.5077 30.5548 18.8487C30.2116 19.1897 30.0187 19.6522 30.0187 20.1345ZM40.9543 12.5153L39.8699 10.6332C39.8211 10.5503 39.7413 10.4898 39.6479 10.4651C39.5544 10.4404 39.4549 10.4535 39.3711 10.5014L37.0513 11.847L33.4687 2.01845C33.2795 1.43198 32.9077 0.920416 32.4068 0.557611C31.906 0.194806 31.302 -0.000462196 30.6822 8.21528e-07H10.8564C9.26868 8.21528e-07 7.85942 1.01832 7.36984 2.52307L3.95649 11.8516L1.63212 10.506C1.54831 10.458 1.44883 10.445 1.35539 10.4697C1.26194 10.4944 1.18213 10.5548 1.13338 10.6378L0.0489805 12.5153C-0.0516813 12.6881 0.00780077 12.9063 0.181671 13.0063L2.94529 14.6065L2.28184 16.4249C2.22694 16.5704 2.19948 16.725 2.19948 16.8795V32.7089C2.19948 33.4226 2.7394 34 3.40285 34H6.49591C7.0587 34 7.54828 33.5772 7.66725 32.9862L8.01956 31.2724H32.9837L33.336 32.9862C33.4595 33.5772 33.9445 34 34.5073 34H37.6004C38.2639 34 38.8038 33.4226 38.8038 32.7089V16.8795C38.8038 16.725 38.7763 16.5704 38.7214 16.4249L38.058 14.6065L40.817 13.0063C40.9001 12.9586 40.961 12.8805 40.9866 12.7887C41.0123 12.6969 41.0007 12.5987 40.9543 12.5153ZM35.5094 17.225V27.9992H5.49387V17.225L6.20765 15.2702H34.7956L35.5094 17.225ZM10.4675 3.63685L10.4904 3.57775L10.5087 3.51865C10.559 3.36863 10.6963 3.26862 10.8564 3.26862H30.4214L33.8713 12.7244H7.14106L10.4675 3.63685ZM7.32408 20.1345C7.32408 20.6168 7.51691 21.0793 7.86014 21.4203C8.20337 21.7614 8.66889 21.9529 9.15429 21.9529C9.6397 21.9529 10.1052 21.7614 10.4485 21.4203C10.7917 21.0793 10.9845 20.6168 10.9845 20.1345C10.9845 19.6522 10.7917 19.1897 10.4485 18.8487C10.1052 18.5077 9.6397 18.3161 9.15429 18.3161C8.66889 18.3161 8.20337 18.5077 7.86014 18.8487C7.51691 19.1897 7.32408 19.6522 7.32408 20.1345Z" fill="#333333"/>
<path d="M249.324 27.5175C248.948 27.5175 248.631 27.3887 248.374 27.1312C248.116 26.8737 247.987 26.5568 247.987 26.1805V9.15605H241.926C241.57 9.15605 241.273 9.03721 241.035 8.79952C240.797 8.56183 240.678 8.26472 240.678 7.90819C240.678 7.55166 240.797 7.25454 241.035 7.01686C241.273 6.75936 241.57 6.63062 241.926 6.63062H256.722C257.079 6.63062 257.376 6.75936 257.614 7.01686C257.871 7.25454 258 7.55166 258 7.90819C258 8.26472 257.871 8.56183 257.614 8.79952C257.376 9.03721 257.079 9.15605 256.722 9.15605H250.691V26.1805C250.691 26.5568 250.552 26.8737 250.275 27.1312C250.018 27.3887 249.701 27.5175 249.324 27.5175Z" fill="#333333"/>
<path d="M213.862 27.5176C213.446 27.5176 213.119 27.3888 212.882 27.1313C212.644 26.8738 212.525 26.5569 212.525 26.1806C212.525 26.0221 212.575 25.824 212.674 25.5864L220.25 7.70033C220.389 7.38341 220.597 7.10611 220.874 6.86842C221.171 6.61092 221.537 6.48218 221.973 6.48218H222.27C222.726 6.48218 223.092 6.61092 223.37 6.86842C223.647 7.10611 223.855 7.38341 223.994 7.70033L231.57 25.5864C231.669 25.824 231.718 26.0221 231.718 26.1806C231.718 26.5569 231.6 26.8738 231.362 27.1313C231.124 27.3888 230.797 27.5176 230.381 27.5176C229.767 27.5176 229.342 27.2403 229.104 26.6857L227.173 22.0508H217.071L215.14 26.6857C214.902 27.2403 214.476 27.5176 213.862 27.5176ZM218.111 19.5847H226.133L222.122 9.92866L218.111 19.5847Z" fill="#333333"/>
<path d="M187.399 27.3689C187.022 27.3689 186.706 27.2402 186.448 26.9827C186.191 26.7252 186.062 26.4082 186.062 26.0319V7.99732C186.062 7.62098 186.191 7.30406 186.448 7.04657C186.706 6.76927 187.022 6.63062 187.399 6.63062H199.313C199.669 6.63062 199.967 6.75936 200.204 7.01686C200.462 7.25454 200.59 7.55166 200.59 7.90819C200.59 8.26472 200.462 8.56183 200.204 8.79952C199.967 9.03721 199.669 9.15605 199.313 9.15605H188.765V15.7222H198.243C198.6 15.7222 198.897 15.8509 199.135 16.1084C199.392 16.3461 199.521 16.6432 199.521 16.9998C199.521 17.3563 199.392 17.6534 199.135 17.8911C198.897 18.1288 198.6 18.2476 198.243 18.2476H188.765V24.8435H199.313C199.669 24.8435 199.967 24.9722 200.204 25.2297C200.462 25.4674 200.59 25.7645 200.59 26.121C200.59 26.4776 200.462 26.7747 200.204 27.0124C199.967 27.2501 199.669 27.3689 199.313 27.3689H187.399Z" fill="#333333"/>
<path d="M165.377 27.6663C163.891 27.6663 162.554 27.5276 161.366 27.2503C160.197 26.9532 159.177 26.6165 158.305 26.2401C158.087 26.1411 157.889 25.9826 157.711 25.7647C157.553 25.5271 157.473 25.2795 157.473 25.022C157.473 24.6852 157.582 24.398 157.8 24.1603C158.018 23.9029 158.315 23.7741 158.692 23.7741C158.89 23.7741 159.078 23.8137 159.256 23.893C159.93 24.1901 160.752 24.4674 161.722 24.7249C162.712 24.9824 163.841 25.1111 165.109 25.1111C166.099 25.1111 166.981 25.0121 167.753 24.814C168.546 24.5961 169.17 24.2396 169.625 23.7444C170.081 23.2294 170.309 22.5461 170.309 21.6943C170.309 21.0605 170.081 20.5554 169.625 20.1791C169.17 19.7829 168.565 19.4561 167.813 19.1986C167.06 18.9411 166.228 18.7034 165.317 18.4855C164.426 18.2677 163.534 18.03 162.643 17.7725C161.752 17.4952 160.93 17.1386 160.177 16.7029C159.424 16.2671 158.82 15.7125 158.365 15.0391C157.909 14.3458 157.681 13.4743 157.681 12.4245C157.681 11.3153 157.969 10.3051 158.543 9.39398C159.137 8.46303 160.009 7.72025 161.158 7.16565C162.306 6.61104 163.713 6.33374 165.377 6.33374C166.545 6.33374 167.625 6.42287 168.615 6.60114C169.605 6.7794 170.497 7.01709 171.289 7.3142C171.507 7.39343 171.695 7.52218 171.854 7.70045C172.032 7.87871 172.121 8.14611 172.121 8.50264C172.121 8.79975 172.012 9.08696 171.794 9.36426C171.596 9.62176 171.309 9.75051 170.932 9.75051C170.853 9.75051 170.774 9.7406 170.695 9.7208C170.616 9.68118 170.536 9.65147 170.457 9.63166C169.784 9.39397 169.041 9.2058 168.229 9.06715C167.436 8.90869 166.585 8.82947 165.674 8.82947C164.168 8.82947 162.911 9.11667 161.9 9.69108C160.89 10.2655 160.385 11.1073 160.385 12.2165C160.385 12.9494 160.613 13.5337 161.068 13.9695C161.524 14.4052 162.128 14.7519 162.881 15.0094C163.633 15.2669 164.455 15.5045 165.347 15.7224C166.238 15.9205 167.129 16.1483 168.021 16.4058C168.912 16.6633 169.734 17.0099 170.487 17.4457C171.239 17.8616 171.844 18.4261 172.299 19.1392C172.755 19.8324 172.983 20.7436 172.983 21.8726C172.983 22.9818 172.666 23.9821 172.032 24.8734C171.418 25.7449 170.536 26.4283 169.388 26.9235C168.258 27.4187 166.921 27.6663 165.377 27.6663Z" fill="#333333"/>
<path d="M131.302 27.5175C130.925 27.5175 130.608 27.3887 130.351 27.1312C130.093 26.8737 129.965 26.5568 129.965 26.1805V7.99732C129.965 7.62098 130.093 7.30406 130.351 7.04657C130.608 6.76927 130.925 6.63062 131.302 6.63062H138.076C139.581 6.63062 140.839 6.82869 141.849 7.22483C142.879 7.60117 143.691 8.11616 144.285 8.76981C144.899 9.40364 145.335 10.1068 145.593 10.8793C145.87 11.6518 146.009 12.4342 146.009 13.2265C146.009 14.0188 145.87 14.8011 145.593 15.5736C145.335 16.3461 144.899 17.0592 144.285 17.7128C143.691 18.3467 142.879 18.8616 141.849 19.2578C140.839 19.6341 139.581 19.8223 138.076 19.8223H132.668V26.1805C132.668 26.5568 132.53 26.8737 132.252 27.1312C131.995 27.3887 131.678 27.5175 131.302 27.5175ZM132.668 17.2672H137.808C139.294 17.2672 140.433 17.0691 141.225 16.6729C142.017 16.257 142.562 15.742 142.859 15.128C143.156 14.4941 143.305 13.8603 143.305 13.2265C143.305 12.5728 143.156 11.939 142.859 11.325C142.562 10.7109 142.017 10.2058 141.225 9.80969C140.433 9.39374 139.294 9.18576 137.808 9.18576H132.668V17.2672Z" fill="#333333"/>
<path d="M113.916 27.5176C113.54 27.5176 113.223 27.3888 112.965 27.1313C112.708 26.8738 112.579 26.5569 112.579 26.1806V7.84889C112.579 7.47254 112.708 7.15563 112.965 6.89813C113.223 6.62083 113.54 6.48218 113.916 6.48218C114.292 6.48218 114.609 6.62083 114.867 6.89813C115.144 7.15563 115.283 7.47254 115.283 7.84889V26.1806C115.283 26.5569 115.144 26.8738 114.867 27.1313C114.609 27.3888 114.292 27.5176 113.916 27.5176Z" fill="#333333"/>
<path d="M83.8512 27.5175C83.4748 27.5175 83.1579 27.3887 82.9004 27.1312C82.6429 26.8737 82.5142 26.5568 82.5142 26.1805V7.99732C82.5142 7.62098 82.6429 7.30406 82.9004 7.04657C83.1579 6.76927 83.4748 6.63062 83.8512 6.63062H90.7738C92.6555 6.63062 94.1906 6.89802 95.379 7.43281C96.5675 7.96761 97.439 8.69058 97.9936 9.60172C98.568 10.493 98.8552 11.5131 98.8552 12.662C98.8552 13.8108 98.5284 14.8804 97.8748 15.8707C97.2409 16.8611 96.2704 17.5841 94.9631 18.0396C95.795 18.2575 96.4585 18.6537 96.9537 19.2281C97.4489 19.7827 97.8153 20.4165 98.053 21.1296C98.3105 21.8427 98.4789 22.5359 98.5581 23.2094C98.6373 23.863 98.677 24.3978 98.677 24.8138V26.1805C98.677 26.5568 98.5482 26.8737 98.2907 27.1312C98.0332 27.3887 97.7163 27.5175 97.34 27.5175C96.924 27.5175 96.5873 27.3986 96.3298 27.1609C96.0921 26.9034 95.9733 26.5766 95.9733 26.1805V25.2891C95.9733 24.7939 95.9336 24.2096 95.8544 23.5362C95.795 22.8627 95.6266 22.1992 95.3493 21.5455C95.072 20.8919 94.6164 20.3571 93.9826 19.9412C93.3686 19.5054 92.4971 19.2875 91.368 19.2875H85.2179V26.1805C85.2179 26.5568 85.0792 26.8737 84.8019 27.1312C84.5444 27.3887 84.2275 27.5175 83.8512 27.5175ZM85.2179 16.7324H90.5956C92.2594 16.7324 93.5964 16.4055 94.6065 15.7519C95.6365 15.0983 96.1515 14.1376 96.1515 12.8699C96.1515 12.1371 95.9832 11.4933 95.6464 10.9387C95.3097 10.3841 94.7254 9.95825 93.8935 9.66114C93.0616 9.34422 91.9127 9.18576 90.447 9.18576H85.2179V16.7324Z" fill="#333333"/>
<path d="M61.6459 27.5175C61.2696 27.5175 60.9526 27.3887 60.6952 27.1312C60.4377 26.8737 60.3089 26.5568 60.3089 26.1805V9.15605H54.2479C53.8913 9.15605 53.5942 9.03721 53.3565 8.79952C53.1188 8.56183 53 8.26472 53 7.90819C53 7.55166 53.1188 7.25454 53.3565 7.01686C53.5942 6.75936 53.8913 6.63062 54.2479 6.63062H69.044C69.4005 6.63062 69.6976 6.75936 69.9353 7.01686C70.1928 7.25454 70.3215 7.55166 70.3215 7.90819C70.3215 8.26472 70.1928 8.56183 69.9353 8.79952C69.6976 9.03721 69.4005 9.15605 69.044 9.15605H63.0126V26.1805C63.0126 26.5568 62.874 26.8737 62.5967 27.1312C62.3392 27.3887 62.0222 27.5175 61.6459 27.5175Z" fill="#333333"/>
</svg>
