<svg width="41" height="34" viewBox="0 0 41 34" fill="none" xmlns="http://www.w3.org/2000/svg">
<path d="M14.4619 25.7262H26.5413C26.7427 25.7262 26.9074 25.5625 26.9074 25.3625V21.5438C26.9074 21.3438 26.7427 21.1801 26.5413 21.1801H24.7111C24.5098 21.1801 24.3451 21.3438 24.3451 21.5438V23.1804H16.6582V21.5438C16.6582 21.3438 16.4935 21.1801 16.2921 21.1801H14.4619C14.2606 21.1801 14.0959 21.3438 14.0959 21.5438V25.3625C14.0959 25.5625 14.2606 25.7262 14.4619 25.7262ZM30.0187 20.1345C30.0187 20.6168 30.2116 21.0793 30.5548 21.4203C30.898 21.7614 31.3635 21.9529 31.849 21.9529C32.3344 21.9529 32.7999 21.7614 33.1431 21.4203C33.4863 21.0793 33.6792 20.6168 33.6792 20.1345C33.6792 19.6522 33.4863 19.1897 33.1431 18.8487C32.7999 18.5077 32.3344 18.3161 31.849 18.3161C31.3635 18.3161 30.898 18.5077 30.5548 18.8487C30.2116 19.1897 30.0187 19.6522 30.0187 20.1345ZM40.9543 12.5153L39.8699 10.6332C39.8211 10.5503 39.7413 10.4898 39.6479 10.4651C39.5544 10.4404 39.4549 10.4535 39.3711 10.5014L37.0513 11.847L33.4687 2.01845C33.2795 1.43198 32.9077 0.920416 32.4068 0.557611C31.906 0.194806 31.302 -0.000462196 30.6822 8.21528e-07H10.8564C9.26868 8.21528e-07 7.85942 1.01832 7.36984 2.52307L3.95649 11.8516L1.63212 10.506C1.54831 10.458 1.44883 10.445 1.35539 10.4697C1.26194 10.4944 1.18213 10.5548 1.13338 10.6378L0.0489805 12.5153C-0.0516813 12.6881 0.00780077 12.9063 0.181671 13.0063L2.94529 14.6065L2.28184 16.4249C2.22694 16.5704 2.19948 16.725 2.19948 16.8795V32.7089C2.19948 33.4226 2.7394 34 3.40285 34H6.49591C7.0587 34 7.54828 33.5772 7.66725 32.9862L8.01956 31.2724H32.9837L33.336 32.9862C33.4595 33.5772 33.9445 34 34.5073 34H37.6004C38.2639 34 38.8038 33.4226 38.8038 32.7089V16.8795C38.8038 16.725 38.7763 16.5704 38.7214 16.4249L38.058 14.6065L40.817 13.0063C40.9001 12.9586 40.961 12.8805 40.9866 12.7887C41.0123 12.6969 41.0007 12.5987 40.9543 12.5153ZM35.5094 17.225V27.9992H5.49387V17.225L6.20765 15.2702H34.7956L35.5094 17.225ZM10.4675 3.63685L10.4904 3.57775L10.5087 3.51865C10.559 3.36863 10.6963 3.26862 10.8564 3.26862H30.4214L33.8713 12.7244H7.14106L10.4675 3.63685ZM7.32408 20.1345C7.32408 20.6168 7.51691 21.0793 7.86014 21.4203C8.20337 21.7614 8.66889 21.9529 9.15429 21.9529C9.6397 21.9529 10.1052 21.7614 10.4485 21.4203C10.7917 21.0793 10.9845 20.6168 10.9845 20.1345C10.9845 19.6522 10.7917 19.1897 10.4485 18.8487C10.1052 18.5077 9.6397 18.3161 9.15429 18.3161C8.66889 18.3161 8.20337 18.5077 7.86014 18.8487C7.51691 19.1897 7.32408 19.6522 7.32408 20.1345Z" fill="#333333"/>
</svg>
