<svg width="260" height="154" viewBox="0 0 260 154" fill="none" xmlns="http://www.w3.org/2000/svg">
<path fill-rule="evenodd" clip-rule="evenodd" d="M90.4486 0.720704C66.1716 4.23149 49.0586 18.0031 43.8711 38.2026C43.0791 41.2864 43.0791 41.2864 40.2529 41.694C19.9181 44.6268 6.01199 64.8742 9.27578 86.798C10.4511 94.6957 11.8762 97.4603 14.0417 96.045C15.0888 95.3605 15.0871 95.2975 13.9155 90.9324C8.82829 71.9843 18.2451 52.4887 35.1913 46.8835C42.1091 44.5951 42.4035 44.7302 42.6245 50.2915C43.0048 59.858 45.4953 65.8123 48.0504 63.2636C48.7844 62.5318 48.7844 62.5318 47.8853 59.5378C45.3807 51.1979 45.5342 45.0575 48.24 45.3603C55.7622 46.2027 62.5227 49.8329 67.0468 55.4595C70.5831 59.858 73.7814 58.133 70.3464 53.6802C65.5634 47.4799 57.7527 42.9971 49.5289 41.7328C46.4838 41.2643 46.4647 41.1037 48.7138 34.9521C66.3268 -13.2176 157.56 -2.64514 157.237 47.5282C157.19 54.857 157.085 55.1353 154.266 55.4143C146.848 56.1485 137.754 60.7589 139.031 63.1384C139.796 64.5653 141.089 64.5231 143.307 62.9993C148.884 59.168 155.993 57.9789 154.695 61.0943C153.828 63.1772 154.137 64.3751 155.641 64.7514C156.836 65.0508 157.517 64.2339 158.48 61.3478C160.451 55.4408 174.956 64.7174 178.436 74.1104C179.377 76.6481 182.39 77.0652 182.36 74.6533C182.278 67.8812 170.795 57.3236 161.786 55.7375C160.656 55.5388 160.384 55.3544 160.442 54.8254C161.333 46.631 161.322 45.0153 160.346 39.5088C155.918 14.5359 122.634 -3.93426 90.4486 0.720704ZM171.573 48.5438C165.948 50.0149 163.467 52.3114 165.834 53.8581C166.652 54.3929 166.793 54.3749 168.797 53.4781C178.661 49.0623 190.035 52.8606 194.277 61.9878C194.886 63.2976 195.569 64.7521 195.794 65.2199C196.867 67.4436 199.68 66.0069 199.009 63.5777C196.011 52.7272 182.949 45.5692 171.573 48.5438ZM208.633 74.9391C204.072 76.1265 200.639 78.6772 201.39 80.3205C202.015 81.6885 202.892 81.6933 205.357 80.3416C216.106 74.4479 227.329 80.7992 227.633 92.9483C227.774 98.5436 230.749 99.6936 231.32 94.3728C232.642 82.0631 220.668 71.806 208.633 74.9391ZM238.733 86.1591C234.566 87.2784 232.936 88.7669 234.138 90.3541C234.94 91.4108 235.295 91.3996 238.648 90.2091C249.694 86.287 260.122 97.4464 255.09 107.805C252.227 113.699 244.857 116.76 238.818 114.565C234.675 113.058 234.57 113.106 233.499 116.983C229.657 130.89 214.97 137.322 202.233 130.676C198.809 128.89 197.959 128.801 197.39 130.172C196.761 131.687 197.34 132.335 200.866 134.062C215.31 141.139 232.234 134.2 236.622 119.401C236.857 118.606 237.095 117.955 237.15 117.955C237.205 117.955 238.134 118.184 239.214 118.465C250.499 121.397 261.641 111.284 259.799 99.782C258.26 90.1714 248.146 83.6309 238.733 86.1591ZM9.49237 103.351C3.28029 104.569 -0.879172 111.77 0.158732 119.508C2.07014 133.758 17.169 143.425 30.7996 139.126C32.886 138.468 32.886 138.468 35.7452 140.981C50.4222 153.88 64.3782 156.651 89.632 151.68C104.013 148.85 110.843 148.577 121.316 150.416C124.036 150.894 128.411 151.66 131.037 152.118C143.737 154.335 152.514 154.204 163.178 151.636C178.266 148.004 198.37 135.403 191.729 133.74C190.813 133.511 190.951 133.428 185.098 137.715C170.958 148.073 151.409 152.09 132.06 148.613C109.695 144.595 107.047 144.55 89.7664 147.894C77.4592 150.276 76.405 150.408 69.8133 150.394C58.2732 150.37 50.1432 147.593 40.9921 140.547C38.2839 138.462 36.4803 136.767 36.7555 136.564C39.3808 134.637 41.5129 132.739 41.5439 132.3C41.7264 129.747 39.9518 129.123 37.8381 130.998C33.7274 134.644 32.4279 133.804 27.7033 124.445C26.4597 121.982 25.665 121.389 24.4668 122.028C22.7481 122.946 24.2058 126.957 28.3496 132.711C29.4104 134.184 30.2331 135.429 30.1778 135.478C28.2787 137.148 19.0416 136.418 14.5738 134.245C1.88289 128.074 -0.195989 106.754 11.8908 106.729C13.7548 106.725 14.5888 104.542 13.118 103.515C12.2906 102.936 11.7336 102.911 9.49237 103.351Z" fill="#D4D4D4"/>
</svg>
