<svg width="149" height="77" viewBox="0 0 149 77" fill="none" xmlns="http://www.w3.org/2000/svg">
<path fill-rule="evenodd" clip-rule="evenodd" d="M73.3267 0.672027C65.0857 2.3658 52.4076 10.4872 52.4076 14.0716C52.4076 14.8552 52.4482 14.858 50.2604 13.9186C35.051 7.38784 17.9167 17.8676 16.986 34.27C16.7843 37.8284 16.7843 37.8283 13.3808 37.841C-0.11719 37.892 -4.75648 54.6253 5.7986 65.1877C15.4064 74.802 32.3805 77.6807 62.941 74.8799C68.1917 74.3987 74.6793 74.0049 77.3582 74.0049C82.704 74.0049 83.9836 73.5862 83.9836 71.8363C83.9836 69.2719 78.6228 69.043 59.7095 70.7993C32.7314 73.3047 18.283 70.8957 9.07578 62.3569C0.873515 54.7503 3.71023 42.0023 13.6097 41.9837C16.1883 41.979 17.5413 42.5827 17.8673 43.8843C18.7653 47.4671 21.5732 51.4687 23.1895 51.4687C25.5364 51.4687 25.7164 49.9999 23.7918 46.5526C23.032 45.1918 22.4103 43.5569 22.4103 42.9192C22.4103 42.2818 22.1352 41.3665 21.7986 40.8854C21.0514 39.8167 20.9413 34.0739 21.6119 31.1193C24.863 16.7926 43.1305 11.37 54.1521 21.4603C56.4011 23.5194 56.4012 23.5194 53.7109 24.3738C45.1617 27.0892 38.6499 34.9014 37.3036 44.059C36.7944 47.5221 37.1753 48.4046 39.1796 48.4046C40.6688 48.4046 40.8673 48.0788 41.5375 44.5406C43.0816 36.3896 48.6248 30.1431 56.0957 28.1362C58.7398 27.4261 59.4735 29.1736 58.3036 33.3939C57.5967 35.9444 58.8017 37.3701 61.059 36.6525C62.1812 36.2955 63.209 32.6596 62.9777 29.8647C62.7736 27.4016 62.5731 27.4716 66.2596 28.721C71.3094 30.4325 75.1167 33.6967 77.6862 38.5183C80.0232 42.9034 83.8826 41.788 81.8179 37.3242C78.474 30.0949 71.1578 24.7542 62.9911 23.5807C61.4364 23.3573 60.9895 23.0853 60.1867 21.8735C59.6614 21.0808 58.3774 19.6021 57.3334 18.5876C55.1523 16.468 56.0088 14.8256 61.415 10.7611C79.7875 -3.05119 104.355 6.6208 108.854 29.4374C109.499 32.7063 110.479 33.3021 113.248 32.1089C122.335 28.1931 131.32 35.4917 128.956 44.8687C127.435 50.9041 119.507 54.5214 113.642 51.8554C111.519 50.8907 111.117 50.8835 110.292 51.7965C107.113 55.3149 116.293 58.5095 123.026 56.2278C141.568 49.9445 133.534 22.9616 114.341 27.0604C112.936 27.3605 112.921 27.3498 112.445 25.6766C107.387 7.89194 90.5522 -2.86893 73.3267 0.672027ZM139.612 47.1437C138.336 48.4223 138.779 49.5084 141.122 50.8456C158.255 60.6247 124.405 77.2063 100.005 70.9871C95.4137 69.8164 93.1048 73.1964 97.4895 74.67C120.817 82.5082 153.082 69.3154 148.574 53.7816C147.111 48.7398 141.884 44.8683 139.612 47.1437Z" fill="#D4D4D4"/>
</svg>
